<svg width="29" height="14" viewBox="0 0 29 14" fill="none" xmlns="http://www.w3.org/2000/svg">
<path opacity="0.35" d="M1.2994 4.08423C1.2994 2.15123 2.86641 0.584229 4.7994 0.584229H21.7994C23.7324 0.584229 25.2994 2.15123 25.2994 4.08423V9.08423C25.2994 11.0172 23.7324 12.5842 21.7994 12.5842H4.7994C2.86641 12.5842 1.2994 11.0172 1.2994 9.08423V4.08423Z" stroke="black"/>
<path opacity="0.4" d="M26.7994 5.08423V9.30457C27.6485 8.94713 28.2006 8.11563 28.2006 7.1944C28.2006 6.27317 27.6485 5.44167 26.7994 5.08423Z" fill="black"/>
<path d="M2.7994 4.08423C2.7994 2.97966 3.69483 2.08423 4.7994 2.08423H21.7994C22.904 2.08423 23.7994 2.97966 23.7994 4.08423V9.08423C23.7994 10.1888 22.904 11.0842 21.7994 11.0842H4.7994C3.69483 11.0842 2.7994 10.1888 2.7994 9.08423V4.08423Z" fill="black"/>
</svg>
