<svg width="259" height="24" viewBox="0 0 259 24" fill="none" xmlns="http://www.w3.org/2000/svg">
<g clip-path="url(#clip0_112_1935)">
<path d="M17.6699 24.0002C17.5383 24.0009 17.4078 23.9757 17.286 23.9259C17.1641 23.8762 17.0533 23.8028 16.9599 23.7102L8.78989 15.5402C8.32426 15.0757 7.95483 14.524 7.70277 13.9165C7.4507 13.3091 7.32095 12.6578 7.32095 12.0002C7.32095 11.3425 7.4507 10.6913 7.70277 10.0838C7.95483 9.47639 8.32426 8.92463 8.78989 8.46017L16.9599 0.290185C17.0531 0.196947 17.1638 0.122986 17.2856 0.0725256C17.4075 0.0220653 17.538 -0.00390625 17.6699 -0.00390625C17.8018 -0.00390625 17.9323 0.0220653 18.0541 0.0725256C18.176 0.122986 18.2867 0.196947 18.3799 0.290185C18.4731 0.383423 18.5471 0.494114 18.5976 0.615935C18.648 0.737757 18.674 0.868325 18.674 1.00018C18.674 1.13204 18.648 1.26261 18.5976 1.38443C18.5471 1.50625 18.4731 1.61694 18.3799 1.71018L10.2099 9.88017C9.64809 10.4427 9.33253 11.2052 9.33253 12.0002C9.33253 12.7952 9.64809 13.5577 10.2099 14.1202L18.3799 22.2902C18.4736 22.3831 18.548 22.4937 18.5988 22.6156C18.6496 22.7374 18.6757 22.8681 18.6757 23.0002C18.6757 23.1322 18.6496 23.2629 18.5988 23.3847C18.548 23.5066 18.4736 23.6172 18.3799 23.7102C18.2865 23.8028 18.1756 23.8762 18.0538 23.9259C17.932 23.9757 17.8015 24.0009 17.6699 24.0002Z" fill="#374957"/>
</g>
<g clip-path="url(#clip1_112_1935)">
<path d="M129.5 0C127.127 0 124.807 0.703788 122.833 2.02236C120.86 3.34094 119.322 5.21509 118.413 7.4078C117.505 9.60051 117.268 12.0133 117.731 14.3411C118.194 16.6689 119.336 18.8071 121.015 20.4853C122.693 22.1635 124.831 23.3064 127.159 23.7694C129.487 24.2324 131.899 23.9948 134.092 23.0866C136.285 22.1783 138.159 20.6402 139.478 18.6668C140.796 16.6935 141.5 14.3734 141.5 12C141.497 8.81846 140.231 5.76821 137.981 3.51852C135.732 1.26883 132.682 0.00344108 129.5 0V0ZM129.5 22C127.522 22 125.589 21.4135 123.944 20.3147C122.3 19.2159 121.018 17.6541 120.261 15.8268C119.504 13.9996 119.306 11.9889 119.692 10.0491C120.078 8.10929 121.03 6.32746 122.429 4.92893C123.827 3.53041 125.609 2.578 127.549 2.19215C129.489 1.8063 131.5 2.00433 133.327 2.7612C135.154 3.51808 136.716 4.79981 137.815 6.4443C138.914 8.08879 139.5 10.0222 139.5 12C139.497 14.6513 138.443 17.1931 136.568 19.0679C134.693 20.9426 132.151 21.9971 129.5 22Z" fill="#374957"/>
</g>
<g clip-path="url(#clip2_112_1935)">
<path d="M257.5 10.9995H235.5C234.948 10.9995 234.5 11.4472 234.5 11.9995C234.5 12.5518 234.948 12.9995 235.5 12.9995H257.5C258.052 12.9995 258.5 12.5518 258.5 11.9995C258.5 11.4472 258.052 10.9995 257.5 10.9995Z" fill="#374957"/>
<path d="M257.5 4.00049H235.5C234.948 4.00049 234.5 4.4482 234.5 5.00049C234.5 5.55277 234.948 6.00048 235.5 6.00048H257.5C258.052 6.00048 258.5 5.55277 258.5 5.00049C258.5 4.4482 258.052 4.00049 257.5 4.00049Z" fill="#374957"/>
<path d="M257.5 18H235.5C234.948 18 234.5 18.4477 234.5 19C234.5 19.5523 234.948 20 235.5 20H257.5C258.052 20 258.5 19.5523 258.5 19C258.5 18.4477 258.052 18 257.5 18Z" fill="#374957"/>
</g>
<defs>
<clipPath id="clip0_112_1935">
<rect width="24" height="24" fill="white" transform="translate(0.5)"/>
</clipPath>
<clipPath id="clip1_112_1935">
<rect width="24" height="24" fill="white" transform="translate(117.5)"/>
</clipPath>
<clipPath id="clip2_112_1935">
<rect width="24" height="24" fill="white" transform="translate(234.5)"/>
</clipPath>
</defs>
</svg>
