<svg width="258" height="24" viewBox="0 0 258 24" fill="none" xmlns="http://www.w3.org/2000/svg">
<g clip-path="url(#clip0_112_1980)">
<path d="M17.1699 23.9999C17.0383 24.0007 16.9078 23.9754 16.786 23.9257C16.6641 23.8759 16.5533 23.8026 16.4599 23.7099L8.28986 15.5399C7.82423 15.0755 7.4548 14.5237 7.20274 13.9163C6.95067 13.3088 6.82092 12.6576 6.82092 11.9999C6.82092 11.3423 6.95067 10.691 7.20274 10.0836C7.4548 9.47614 7.82423 8.92439 8.28986 8.45993L16.4599 0.289941C16.5531 0.196702 16.6638 0.122742 16.7856 0.0722815C16.9074 0.0218212 17.038 -0.00415039 17.1699 -0.00415039C17.3017 -0.00415039 17.4323 0.0218212 17.5541 0.0722814C17.6759 0.122742 17.7866 0.196702 17.8799 0.289941C17.9731 0.383179 18.0471 0.493869 18.0975 0.615691C18.148 0.737513 18.174 0.868081 18.174 0.99994C18.174 1.1318 18.148 1.26237 18.0975 1.38419C18.0471 1.50601 17.9731 1.6167 17.8799 1.70994L9.70986 9.87993C9.14806 10.4424 8.8325 11.2049 8.8325 11.9999C8.8325 12.7949 9.14806 13.5574 9.70986 14.1199L17.8799 22.2899C17.9736 22.3829 18.048 22.4935 18.0988 22.6153C18.1495 22.7372 18.1757 22.8679 18.1757 22.9999C18.1757 23.1319 18.1495 23.2626 18.0988 23.3845C18.048 23.5063 17.9736 23.6169 17.8799 23.7099C17.7864 23.8026 17.6756 23.8759 17.5538 23.9257C17.4319 23.9754 17.3015 24.0007 17.1699 23.9999Z" fill="#374957"/>
</g>
<g clip-path="url(#clip1_112_1980)">
<path d="M129 0C126.627 0 124.307 0.703788 122.333 2.02236C120.36 3.34094 118.822 5.21509 117.913 7.4078C117.005 9.60051 116.768 12.0133 117.231 14.3411C117.694 16.6689 118.836 18.8071 120.515 20.4853C122.193 22.1635 124.331 23.3064 126.659 23.7694C128.987 24.2324 131.399 23.9948 133.592 23.0866C135.785 22.1783 137.659 20.6402 138.978 18.6668C140.296 16.6935 141 14.3734 141 12C140.997 8.81846 139.731 5.76821 137.481 3.51852C135.232 1.26883 132.182 0.00344108 129 0V0ZM129 22C127.022 22 125.089 21.4135 123.444 20.3147C121.8 19.2159 120.518 17.6541 119.761 15.8268C119.004 13.9996 118.806 11.9889 119.192 10.0491C119.578 8.10929 120.53 6.32746 121.929 4.92893C123.327 3.53041 125.109 2.578 127.049 2.19215C128.989 1.8063 131 2.00433 132.827 2.7612C134.654 3.51808 136.216 4.79981 137.315 6.4443C138.414 8.08879 139 10.0222 139 12C138.997 14.6513 137.943 17.1931 136.068 19.0679C134.193 20.9426 131.651 21.9971 129 22Z" fill="#374957"/>
</g>
<g clip-path="url(#clip2_112_1980)">
<path d="M257 10.9998H235C234.448 10.9998 234 11.4475 234 11.9998C234 12.552 234.448 12.9998 235 12.9998H257C257.552 12.9998 258 12.552 258 11.9998C258 11.4475 257.552 10.9998 257 10.9998Z" fill="#374957"/>
<path d="M257 4.00024H235C234.448 4.00024 234 4.44796 234 5.00024C234 5.55253 234.448 6.00024 235 6.00024H257C257.552 6.00024 258 5.55253 258 5.00024C258 4.44796 257.552 4.00024 257 4.00024Z" fill="#374957"/>
<path d="M257 18H235C234.448 18 234 18.4477 234 19C234 19.5523 234.448 20 235 20H257C257.552 20 258 19.5523 258 19C258 18.4477 257.552 18 257 18Z" fill="#374957"/>
</g>
<defs>
<clipPath id="clip0_112_1980">
<rect width="24" height="24" fill="white"/>
</clipPath>
<clipPath id="clip1_112_1980">
<rect width="24" height="24" fill="white" transform="translate(117)"/>
</clipPath>
<clipPath id="clip2_112_1980">
<rect width="24" height="24" fill="white" transform="translate(234)"/>
</clipPath>
</defs>
</svg>
