<svg width="258" height="24" viewBox="0 0 258 24" fill="none" xmlns="http://www.w3.org/2000/svg">
<g clip-path="url(#clip0_112_1953)">
<path d="M17.1699 24.0002C17.0383 24.0009 16.9078 23.9757 16.786 23.9259C16.6641 23.8762 16.5533 23.8028 16.4599 23.7102L8.28989 15.5402C7.82426 15.0757 7.45483 14.524 7.20277 13.9165C6.9507 13.3091 6.82095 12.6578 6.82095 12.0002C6.82095 11.3425 6.9507 10.6913 7.20277 10.0838C7.45483 9.47639 7.82426 8.92463 8.28989 8.46017L16.4599 0.290185C16.5531 0.196947 16.6638 0.122986 16.7856 0.0725256C16.9075 0.0220653 17.038 -0.00390625 17.1699 -0.00390625C17.3018 -0.00390625 17.4323 0.0220653 17.5541 0.0725256C17.676 0.122986 17.7867 0.196947 17.8799 0.290185C17.9731 0.383423 18.0471 0.494114 18.0976 0.615935C18.148 0.737757 18.174 0.868325 18.174 1.00018C18.174 1.13204 18.148 1.26261 18.0976 1.38443C18.0471 1.50625 17.9731 1.61694 17.8799 1.71018L9.70989 9.88017C9.14809 10.4427 8.83253 11.2052 8.83253 12.0002C8.83253 12.7952 9.14809 13.5577 9.70989 14.1202L17.8799 22.2902C17.9736 22.3831 18.048 22.4937 18.0988 22.6156C18.1496 22.7374 18.1757 22.8681 18.1757 23.0002C18.1757 23.1322 18.1496 23.2629 18.0988 23.3847C18.048 23.5066 17.9736 23.6172 17.8799 23.7102C17.7865 23.8028 17.6756 23.8762 17.5538 23.9259C17.432 23.9757 17.3015 24.0009 17.1699 24.0002Z" fill="#374957"/>
</g>
<g clip-path="url(#clip1_112_1953)">
<path d="M129 0C126.627 0 124.307 0.703788 122.333 2.02236C120.36 3.34094 118.822 5.21509 117.913 7.4078C117.005 9.60051 116.768 12.0133 117.231 14.3411C117.694 16.6689 118.836 18.8071 120.515 20.4853C122.193 22.1635 124.331 23.3064 126.659 23.7694C128.987 24.2324 131.399 23.9948 133.592 23.0866C135.785 22.1783 137.659 20.6402 138.978 18.6668C140.296 16.6935 141 14.3734 141 12C140.997 8.81846 139.731 5.76821 137.481 3.51852C135.232 1.26883 132.182 0.00344108 129 0V0ZM129 22C127.022 22 125.089 21.4135 123.444 20.3147C121.8 19.2159 120.518 17.6541 119.761 15.8268C119.004 13.9996 118.806 11.9889 119.192 10.0491C119.578 8.10929 120.53 6.32746 121.929 4.92893C123.327 3.53041 125.109 2.578 127.049 2.19215C128.989 1.8063 131 2.00433 132.827 2.7612C134.654 3.51808 136.216 4.79981 137.315 6.4443C138.414 8.08879 139 10.0222 139 12C138.997 14.6513 137.943 17.1931 136.068 19.0679C134.193 20.9426 131.651 21.9971 129 22Z" fill="#374957"/>
</g>
<g clip-path="url(#clip2_112_1953)">
<path d="M257 10.9995H235C234.448 10.9995 234 11.4472 234 11.9995C234 12.5518 234.448 12.9995 235 12.9995H257C257.552 12.9995 258 12.5518 258 11.9995C258 11.4472 257.552 10.9995 257 10.9995Z" fill="#374957"/>
<path d="M257 4.00049H235C234.448 4.00049 234 4.4482 234 5.00049C234 5.55277 234.448 6.00048 235 6.00048H257C257.552 6.00048 258 5.55277 258 5.00049C258 4.4482 257.552 4.00049 257 4.00049Z" fill="#374957"/>
<path d="M257 18H235C234.448 18 234 18.4477 234 19C234 19.5523 234.448 20 235 20H257C257.552 20 258 19.5523 258 19C258 18.4477 257.552 18 257 18Z" fill="#374957"/>
</g>
<defs>
<clipPath id="clip0_112_1953">
<rect width="24" height="24" fill="white"/>
</clipPath>
<clipPath id="clip1_112_1953">
<rect width="24" height="24" fill="white" transform="translate(117)"/>
</clipPath>
<clipPath id="clip2_112_1953">
<rect width="24" height="24" fill="white" transform="translate(234)"/>
</clipPath>
</defs>
</svg>
