<svg width="22" height="22" viewBox="0 0 22 22" fill="none" xmlns="http://www.w3.org/2000/svg">
<g clip-path="url(#clip0_216_186)">
<path d="M0.937011 4.9384C1.00085 4.77924 1.12529 4.65194 1.28296 4.58451C1.44063 4.51708 1.61863 4.51502 1.77781 4.57879L4.05056 5.48815C4.51309 5.67313 5.02904 5.67313 5.49157 5.48815L6.80322 4.96297C7.57422 4.65456 8.43432 4.65456 9.20533 4.96297L10.5183 5.48815C10.9808 5.67313 11.4967 5.67313 11.9593 5.48815L13.2709 4.96297C14.0419 4.65456 14.902 4.65456 15.673 4.96297L16.986 5.48815C17.4485 5.67313 17.9645 5.67313 18.427 5.48815L20.6997 4.57879C20.7789 4.54511 20.8641 4.52758 20.9501 4.52723C21.0362 4.52687 21.1215 4.5437 21.2009 4.57672C21.2804 4.60974 21.3525 4.65829 21.413 4.71952C21.4735 4.78076 21.5211 4.85345 21.5531 4.93334C21.5852 5.01323 21.6009 5.0987 21.5995 5.18476C21.5981 5.27081 21.5795 5.35572 21.5448 5.43449C21.5101 5.51327 21.4601 5.58433 21.3976 5.64353C21.3351 5.70272 21.2615 5.74884 21.1809 5.7792L18.9069 6.68856C18.1359 6.99697 17.2758 6.99697 16.5048 6.68856L15.1931 6.16338C14.7306 5.9784 14.2146 5.9784 13.7521 6.16338L12.4392 6.68856C11.6682 6.99697 10.8081 6.99697 10.0371 6.68856L8.72542 6.16338C8.2629 5.9784 7.74694 5.9784 7.28442 6.16338L5.97147 6.68856C5.20047 6.99697 4.34037 6.99697 3.56937 6.68856L1.29662 5.7792C1.13746 5.71536 1.01016 5.59092 0.942731 5.43325C0.875296 5.27558 0.873239 5.09758 0.937011 4.9384ZM0.937011 8.81902C1.00085 8.65986 1.12529 8.53257 1.28296 8.46513C1.44063 8.3977 1.61863 8.39564 1.77781 8.45941L4.05056 9.36877C4.51309 9.55375 5.02904 9.55375 5.49157 9.36877L6.80322 8.8436C7.57422 8.53519 8.43432 8.53519 9.20533 8.8436L10.5183 9.36877C10.9808 9.55375 11.4967 9.55375 11.9593 9.36877L13.2709 8.8436C14.0419 8.53519 14.902 8.53519 15.673 8.8436L16.986 9.36877C17.4485 9.55375 17.9645 9.55375 18.427 9.36877L20.6997 8.45941C20.7789 8.42574 20.8641 8.40821 20.9501 8.40785C21.0362 8.40749 21.1215 8.42432 21.2009 8.45734C21.2804 8.49036 21.3525 8.53891 21.413 8.60015C21.4735 8.66139 21.5211 8.73408 21.5531 8.81396C21.5852 8.89385 21.6009 8.97933 21.5995 9.06538C21.5981 9.15144 21.5795 9.23634 21.5448 9.31511C21.5101 9.39389 21.4601 9.46496 21.3976 9.52415C21.3351 9.58334 21.2615 9.62946 21.1809 9.65982L18.9069 10.5692C18.1359 10.8776 17.2758 10.8776 16.5048 10.5692L15.1931 10.044C14.7306 9.85902 14.2146 9.85902 13.7521 10.044L12.4392 10.5692C11.6682 10.8776 10.8081 10.8776 10.0371 10.5692L8.72542 10.044C8.2629 9.85902 7.74694 9.85902 7.28442 10.044L5.97147 10.5692C5.20047 10.8776 4.34037 10.8776 3.56937 10.5692L1.29662 9.65982C1.13746 9.59598 1.01016 9.47154 0.942731 9.31387C0.875296 9.1562 0.873239 8.97821 0.937011 8.81902ZM0.937011 12.6996C1.00085 12.5405 1.12529 12.4132 1.28296 12.3458C1.44063 12.2783 1.61863 12.2763 1.77781 12.34L4.05056 13.2494C4.51309 13.4344 5.02904 13.4344 5.49157 13.2494L6.80322 12.7242C7.57422 12.4158 8.43432 12.4158 9.20533 12.7242L10.5183 13.2494C10.9808 13.4344 11.4967 13.4344 11.9593 13.2494L13.2709 12.7242C14.0419 12.4158 14.902 12.4158 15.673 12.7242L16.986 13.2494C17.4485 13.4344 17.9645 13.4344 18.427 13.2494L20.6997 12.34C20.7789 12.3064 20.8641 12.2888 20.9501 12.2885C21.0362 12.2881 21.1215 12.3049 21.2009 12.338C21.2804 12.371 21.3525 12.4195 21.413 12.4808C21.4735 12.542 21.5211 12.6147 21.5531 12.6946C21.5852 12.7745 21.6009 12.8599 21.5995 12.946C21.5981 13.0321 21.5795 13.117 21.5448 13.1957C21.5101 13.2745 21.4601 13.3456 21.3976 13.4048C21.3351 13.464 21.2615 13.5101 21.1809 13.5404L18.9069 14.4498C18.1359 14.7582 17.2758 14.7582 16.5048 14.4498L15.1931 13.9246C14.7306 13.7396 14.2146 13.7396 13.7521 13.9246L12.4392 14.4498C11.6682 14.7582 10.8081 14.7582 10.0371 14.4498L8.72542 13.9246C8.2629 13.7396 7.74694 13.7396 7.28442 13.9246L5.97147 14.4498C5.20047 14.7582 4.34037 14.7582 3.56937 14.4498L1.29662 13.5404C1.13746 13.4766 1.01016 13.3522 0.942731 13.1945C0.875296 13.0368 0.873239 12.8588 0.937011 12.6996ZM0.937011 16.5803C1.00085 16.4211 1.12529 16.2938 1.28296 16.2264C1.44063 16.1589 1.61863 16.1569 1.77781 16.2207L4.05056 17.13C4.51309 17.315 5.02904 17.315 5.49157 17.13L6.80322 16.6048C7.57422 16.2964 8.43432 16.2964 9.20533 16.6048L10.5183 17.13C10.9808 17.315 11.4967 17.315 11.9593 17.13L13.2709 16.6048C14.0419 16.2964 14.902 16.2964 15.673 16.6048L16.986 17.13C17.4485 17.315 17.9645 17.315 18.427 17.13L20.6997 16.2207C20.7789 16.187 20.8641 16.1695 20.9501 16.1691C21.0362 16.1687 21.1215 16.1856 21.2009 16.2186C21.2804 16.2516 21.3525 16.3002 21.413 16.3614C21.4735 16.4226 21.5211 16.4953 21.5531 16.5752C21.5852 16.6551 21.6009 16.7406 21.5995 16.8266C21.5981 16.9127 21.5795 16.9976 21.5448 17.0764C21.5101 17.1551 21.4601 17.2262 21.3976 17.2854C21.3351 17.3446 21.2615 17.3907 21.1809 17.4211L18.9069 18.3304C18.1359 18.6388 17.2758 18.6388 16.5048 18.3304L15.1931 17.8052C14.7306 17.6203 14.2146 17.6203 13.7521 17.8052L12.4392 18.3304C11.6682 18.6388 10.8081 18.6388 10.0371 18.3304L8.72542 17.8052C8.2629 17.6203 7.74694 17.6203 7.28442 17.8052L5.97147 18.3304C5.20047 18.6388 4.34037 18.6388 3.56937 18.3304L1.29662 17.4211C1.13746 17.3572 1.01016 17.2328 0.942731 17.0751C0.875296 16.9174 0.873239 16.7395 0.937011 16.5803Z" fill="#6A778B"/>
</g>
<defs>
<clipPath id="clip0_216_186">
<rect width="20.6967" height="20.6967" fill="white" transform="translate(0.890442 0.651611)"/>
</clipPath>
</defs>
</svg>
