<svg width="22" height="22" viewBox="0 0 22 22" fill="none" xmlns="http://www.w3.org/2000/svg">
<g clip-path="url(#clip0_103_497)">
<path d="M0.80786 4.68009C0.871701 4.52093 0.996137 4.39364 1.15381 4.32621C1.31148 4.25878 1.48948 4.25672 1.64866 4.32049L3.92141 5.22985C4.38394 5.41483 4.89989 5.41483 5.36242 5.22985L6.67407 4.70467C7.44507 4.39626 8.30517 4.39626 9.07617 4.70467L10.3891 5.22985C10.8516 5.41483 11.3676 5.41483 11.8301 5.22985L13.1418 4.70467C13.9128 4.39626 14.7729 4.39626 15.5439 4.70467L16.8568 5.22985C17.3193 5.41483 17.8353 5.41483 18.2978 5.22985L20.5706 4.32049C20.6498 4.28681 20.7349 4.26928 20.821 4.26893C20.907 4.26857 20.9923 4.28539 21.0718 4.31842C21.1513 4.35144 21.2234 4.39999 21.2838 4.46122C21.3443 4.52246 21.392 4.59515 21.424 4.67504C21.456 4.75493 21.4718 4.8404 21.4703 4.92646C21.4689 5.01251 21.4503 5.09741 21.4156 5.17619C21.381 5.25497 21.3309 5.32603 21.2685 5.38522C21.206 5.44441 21.1323 5.49054 21.0518 5.5209L18.7777 6.43026C18.0067 6.73867 17.1466 6.73867 16.3756 6.43026L15.064 5.90508C14.6014 5.7201 14.0855 5.7201 13.623 5.90508L12.31 6.43026C11.539 6.73867 10.6789 6.73867 9.90792 6.43026L8.59627 5.90508C8.13374 5.7201 7.61779 5.7201 7.15527 5.90508L5.84232 6.43026C5.07132 6.73867 4.21122 6.73867 3.44022 6.43026L1.16746 5.5209C1.00831 5.45706 0.881015 5.33262 0.81358 5.17495C0.746146 5.01728 0.744088 4.83928 0.80786 4.68009ZM0.80786 8.56072C0.871701 8.40156 0.996137 8.27427 1.15381 8.20683C1.31148 8.1394 1.48948 8.13734 1.64866 8.20111L3.92141 9.11047C4.38394 9.29545 4.89989 9.29545 5.36242 9.11047L6.67407 8.58529C7.44507 8.27688 8.30517 8.27688 9.07617 8.58529L10.3891 9.11047C10.8516 9.29545 11.3676 9.29545 11.8301 9.11047L13.1418 8.58529C13.9128 8.27688 14.7729 8.27688 15.5439 8.58529L16.8568 9.11047C17.3193 9.29545 17.8353 9.29545 18.2978 9.11047L20.5706 8.20111C20.6498 8.16744 20.7349 8.14991 20.821 8.14955C20.907 8.14919 20.9923 8.16602 21.0718 8.19904C21.1513 8.23206 21.2234 8.28061 21.2838 8.34185C21.3443 8.40308 21.392 8.47578 21.424 8.55566C21.456 8.63555 21.4718 8.72103 21.4703 8.80708C21.4689 8.89313 21.4503 8.97804 21.4156 9.05681C21.381 9.13559 21.3309 9.20666 21.2685 9.26585C21.206 9.32504 21.1323 9.37116 21.0518 9.40152L18.7777 10.3109C18.0067 10.6193 17.1466 10.6193 16.3756 10.3109L15.064 9.7857C14.6014 9.60072 14.0855 9.60072 13.623 9.7857L12.31 10.3109C11.539 10.6193 10.6789 10.6193 9.90792 10.3109L8.59627 9.7857C8.13374 9.60072 7.61779 9.60072 7.15527 9.7857L5.84232 10.3109C5.07132 10.6193 4.21122 10.6193 3.44022 10.3109L1.16746 9.40152C1.00831 9.33768 0.881015 9.21324 0.81358 9.05557C0.746146 8.8979 0.744088 8.7199 0.80786 8.56072ZM0.80786 12.4413C0.871701 12.2822 0.996137 12.1549 1.15381 12.0875C1.31148 12.02 1.48948 12.018 1.64866 12.0817L3.92141 12.9911C4.38394 13.1761 4.89989 13.1761 5.36242 12.9911L6.67407 12.4659C7.44507 12.1575 8.30517 12.1575 9.07617 12.4659L10.3891 12.9911C10.8516 13.1761 11.3676 13.1761 11.8301 12.9911L13.1418 12.4659C13.9128 12.1575 14.7729 12.1575 15.5439 12.4659L16.8568 12.9911C17.3193 13.1761 17.8353 13.1761 18.2978 12.9911L20.5706 12.0817C20.6498 12.0481 20.7349 12.0305 20.821 12.0302C20.907 12.0298 20.9923 12.0466 21.0718 12.0797C21.1513 12.1127 21.2234 12.1612 21.2838 12.2225C21.3443 12.2837 21.392 12.3564 21.424 12.4363C21.456 12.5162 21.4718 12.6016 21.4703 12.6877C21.4689 12.7738 21.4503 12.8587 21.4156 12.9374C21.381 13.0162 21.3309 13.0873 21.2685 13.1465C21.206 13.2057 21.1323 13.2518 21.0518 13.2821L18.7777 14.1915C18.0067 14.4999 17.1466 14.4999 16.3756 14.1915L15.064 13.6663C14.6014 13.4813 14.0855 13.4813 13.623 13.6663L12.31 14.1915C11.539 14.4999 10.6789 14.4999 9.90792 14.1915L8.59627 13.6663C8.13374 13.4813 7.61779 13.4813 7.15527 13.6663L5.84232 14.1915C5.07132 14.4999 4.21122 14.4999 3.44022 14.1915L1.16746 13.2821C1.00831 13.2183 0.881015 13.0939 0.81358 12.9362C0.746146 12.7785 0.744088 12.6005 0.80786 12.4413ZM0.80786 16.322C0.871701 16.1628 0.996137 16.0355 1.15381 15.9681C1.31148 15.9006 1.48948 15.8986 1.64866 15.9624L3.92141 16.8717C4.38394 17.0567 4.89989 17.0567 5.36242 16.8717L6.67407 16.3465C7.44507 16.0381 8.30517 16.0381 9.07617 16.3465L10.3891 16.8717C10.8516 17.0567 11.3676 17.0567 11.8301 16.8717L13.1418 16.3465C13.9128 16.0381 14.7729 16.0381 15.5439 16.3465L16.8568 16.8717C17.3193 17.0567 17.8353 17.0567 18.2978 16.8717L20.5706 15.9624C20.6498 15.9287 20.7349 15.9112 20.821 15.9108C20.907 15.9104 20.9923 15.9273 21.0718 15.9603C21.1513 15.9933 21.2234 16.0419 21.2838 16.1031C21.3443 16.1643 21.392 16.237 21.424 16.3169C21.456 16.3968 21.4718 16.4823 21.4703 16.5683C21.4689 16.6544 21.4503 16.7393 21.4156 16.8181C21.381 16.8968 21.3309 16.9679 21.2685 17.0271C21.206 17.0863 21.1323 17.1324 21.0518 17.1628L18.7777 18.0721C18.0067 18.3805 17.1466 18.3805 16.3756 18.0721L15.064 17.5469C14.6014 17.362 14.0855 17.362 13.623 17.5469L12.31 18.0721C11.539 18.3805 10.6789 18.3805 9.90792 18.0721L8.59627 17.5469C8.13374 17.362 7.61779 17.362 7.15527 17.5469L5.84232 18.0721C5.07132 18.3805 4.21122 18.3805 3.44022 18.0721L1.16746 17.1628C1.00831 17.0989 0.881015 16.9745 0.81358 16.8168C0.746146 16.6591 0.744088 16.4811 0.80786 16.322Z" fill="#6A778B"/>
</g>
<defs>
<clipPath id="clip0_103_497">
<rect width="20.6967" height="20.6967" fill="white" transform="translate(0.76123 0.393311)"/>
</clipPath>
</defs>
</svg>
