<svg width="22" height="22" viewBox="0 0 22 22" fill="none" xmlns="http://www.w3.org/2000/svg">
<path d="M6.27002 16.8748L6.26975 16.8748C6.25538 16.83 6.2267 16.7911 6.18812 16.764C6.14954 16.737 6.10317 16.7234 6.0561 16.7252C6.00903 16.727 5.96385 16.7442 5.92748 16.7742L5.65353 16.4412L5.92748 16.7742C5.8911 16.8041 5.86553 16.8451 5.85467 16.8909C5.65096 17.7539 5.24856 18.266 4.76516 18.5667L4.76506 18.5668C4.27311 18.8726 3.67335 18.9776 3.04637 18.9776C2.98919 18.9776 2.93435 19.0003 2.89392 19.0407C2.85349 19.0812 2.83078 19.136 2.83078 19.1932C2.83078 19.2504 2.85349 19.3052 2.89392 19.3456C2.93435 19.3861 2.98919 19.4088 3.04637 19.4088C3.71395 19.4088 4.40577 19.2981 4.99243 18.9333L6.27002 16.8748ZM6.27002 16.8748C6.66337 18.0983 7.64485 18.7412 8.65552 18.7497C9.66188 18.7582 10.6457 18.1357 11.0347 16.9693L10.6257 16.8329M6.27002 16.8748L6.70205 16.8072C7.41045 18.8456 9.9728 18.7906 10.6257 16.8329M10.6257 16.8329C10.6688 16.7044 10.7512 16.5928 10.8612 16.5137C10.9712 16.4345 11.1033 16.392 11.2388 16.392C11.3743 16.392 11.5064 16.4345 11.6164 16.5137C11.7264 16.5928 11.8088 16.7044 11.8519 16.8329M10.6257 16.8329L11.0344 16.9701C11.0488 16.9273 11.0763 16.8901 11.1129 16.8637C11.1496 16.8374 11.1936 16.8232 11.2388 16.8232C11.284 16.8232 11.328 16.8374 11.3647 16.8637C11.4013 16.8901 11.4288 16.9273 11.4432 16.9701L11.8519 16.8329M11.8519 16.8329L11.4429 16.9693C11.8318 18.136 12.8157 18.7586 13.8221 18.75C14.833 18.7414 15.8145 18.0981 16.2077 16.8743L15.7972 16.7424M11.8519 16.8329C12.5116 18.812 15.1211 18.8465 15.7972 16.7424M15.7972 16.7424C15.8394 16.6116 15.9222 16.4977 16.0335 16.4171C16.1448 16.3365 16.2789 16.2935 16.4163 16.2943C16.5538 16.2951 16.6874 16.3396 16.7978 16.4214C16.9082 16.5032 16.9897 16.618 17.0304 16.7493C17.3754 17.8591 18.411 18.5464 19.4312 18.5464C19.6028 18.5464 19.7673 18.6146 19.8886 18.7359M15.7972 16.7424L16.2076 16.8748C16.2216 16.8312 16.2492 16.7933 16.2863 16.7664C16.3234 16.7395 16.3681 16.7252 16.4139 16.7255C16.4597 16.7257 16.5043 16.7406 16.5411 16.7678C16.5779 16.7951 16.605 16.8334 16.6186 16.8771L16.6187 16.8772C17.0215 18.1734 18.2285 18.9776 19.4312 18.9776C19.4884 18.9776 19.5432 19.0003 19.5837 19.0407L19.8886 18.7359M19.8886 18.7359L19.5837 19.0407C19.6241 19.0812 19.6468 19.136 19.6468 19.1932C19.6468 19.2504 19.6241 19.3052 19.5837 19.3456C19.5432 19.3861 19.4884 19.4088 19.4312 19.4088C18.418 19.4088 17.4038 18.915 16.7529 18.0637L16.4135 17.6199L16.0702 18.0607C14.9187 19.5394 12.722 19.5517 11.5756 18.1177L11.2388 17.6964L10.902 18.1176C9.77588 19.5262 7.63457 19.5391 6.46771 18.1362L6.0983 17.692L5.77758 18.1725C5.57301 18.479 5.30541 18.7383 4.99265 18.9331L19.8886 18.7359ZM9.32695 5.45579L9.32696 5.45578C10.0417 4.21776 11.2189 3.31438 12.5997 2.94436C13.9805 2.57434 15.4518 2.76799 16.6898 3.48272C17.9278 4.19745 18.8312 5.3747 19.2012 6.7555C19.5712 8.1363 19.3776 9.60753 18.6628 10.8455L18.4473 11.2189L18.4471 11.2193C18.4329 11.2438 18.4141 11.2653 18.3916 11.2826C18.3691 11.2999 18.3435 11.3125 18.3161 11.3199L18.3161 11.3199C18.2888 11.3272 18.2602 11.3291 18.2321 11.3254C18.204 11.3217 18.177 11.3125 18.1524 11.2983L18.1524 11.2983L16.2708 10.2118L16.481 9.83491L17.8039 10.5989L18.1956 10.8251L18.4028 10.423C18.8741 9.5084 19.0494 8.46987 18.9044 7.45122C18.7594 6.43258 18.3013 5.48422 17.5934 4.73746L16.7202 3.81618L16.8516 5.07875C16.9009 5.55164 16.8977 6.02852 16.8421 6.5007C16.7559 7.19008 16.538 7.87291 16.1468 8.64606L15.8861 8.49548V9.24241V9.24327V9.98961L14.2217 9.02855L13.8467 8.81197L13.6318 9.18799L11.5854 12.7685L11.2622 13.3339L11.9089 13.4106C13.2167 13.5658 14.4039 14.1684 15.3593 15.059C15.2307 15.131 15.1096 15.2162 14.998 15.3131C13.9673 14.3835 12.6554 13.8026 11.2388 13.8026C9.82211 13.8026 8.51019 14.3836 7.47884 15.3132C7.36744 15.2163 7.24655 15.1313 7.11816 15.0593C8.06194 14.1797 9.23204 13.5809 10.5205 13.4171L10.7338 13.39L10.8405 13.2033L13.2603 8.96912L13.4733 8.59639L13.1015 8.38175L9.19067 6.12409L9.19036 6.12391C9.16581 6.10977 9.14429 6.09093 9.12703 6.06846L8.78511 6.33115L9.12703 6.06846C9.10977 6.04599 9.09711 6.02035 9.08977 5.99298C9.08242 5.96562 9.08055 5.93707 9.08425 5.90898C9.08794 5.88089 9.09714 5.85381 9.11131 5.82928L9.11136 5.82919L9.32695 5.45579ZM9.82399 5.47016L9.57948 5.8506L9.97113 6.0767L11.6665 7.05548L12.0204 7.25979L12.2434 6.91736C12.689 6.23315 13.1315 5.68371 13.674 5.18955C14.1367 4.77608 14.6402 4.41057 15.1766 4.09863L16.1365 3.54045L15.0515 3.30455C14.0633 3.08971 13.033 3.182 12.0987 3.56905C11.1644 3.9561 10.3708 4.61942 9.82399 5.47016ZM14.9815 8.96907L15.361 9.18819L15.5739 8.80507C16.0714 7.9098 16.3235 7.17316 16.4148 6.446L16.4149 6.44537C16.4876 5.85869 16.4575 5.26969 16.3583 4.59616L16.267 3.97576L15.7204 4.28313C14.996 4.69053 14.4392 5.07605 13.9651 5.50769C13.4728 5.95571 13.064 6.45617 12.6442 7.09215L12.392 7.47423L12.7885 7.70312L14.9815 8.96907Z" fill="#6A778B" stroke="#6A778B" stroke-width="0.862361"/>
</svg>
