<svg width="22" height="22" viewBox="0 0 22 22" fill="none" xmlns="http://www.w3.org/2000/svg">
<path d="M17.9707 17.6055L18.0582 17.7911H18.2633H19.4701V18.4378H2.00735V17.7911H3.21422H3.41933L3.50675 17.6055L9.86753 4.10667C9.94666 3.94441 10.0695 3.80744 10.2223 3.71118C10.3755 3.61461 10.5527 3.56287 10.7338 3.56181C10.915 3.56075 11.0928 3.61041 11.2471 3.70518C11.4005 3.79934 11.5246 3.93429 11.6056 4.09491L17.9707 17.6055ZM11.0248 4.38086L10.732 3.75935L10.4396 4.38108L7.24135 11.1825L7.12278 11.4347L7.35465 11.5892L8.61909 12.432L8.79846 12.5515L8.97782 12.4319L10.7387 11.258L12.4997 12.4319L12.6791 12.5515L12.8584 12.4319L14.1177 11.5924L14.3497 11.4378L14.2309 11.1855L11.0248 4.38086ZM7.15718 12.2347L6.8449 12.0264L6.68515 12.3661L4.3503 17.33L4.13346 17.7911H4.64293H16.8326H17.3423L17.1252 17.3299L14.7891 12.3685L14.6293 12.0292L14.3171 12.2372L12.6791 13.3291L10.9181 12.1551L10.7387 12.0355L10.5594 12.1551L8.79845 13.329L7.15718 12.2347Z" fill="#6A778B" stroke="#6A778B" stroke-width="0.64677"/>
</svg>
