<svg width="22" height="21" viewBox="0 0 22 21" fill="none" xmlns="http://www.w3.org/2000/svg">
<path d="M18.3416 16.9538L18.429 17.1394H18.6341H19.841V17.7862H2.37819V17.1394H3.58507H3.79018L3.8776 16.9539L10.2384 3.45499C10.3175 3.29274 10.4404 3.15577 10.5931 3.05951C10.7463 2.96294 10.9236 2.91119 11.1047 2.91013C11.2858 2.90907 11.4636 2.95874 11.618 3.05351C11.7713 3.14767 11.8955 3.28261 11.9765 3.44323L18.3416 16.9538ZM11.3957 3.72919L11.1028 3.10768L10.8105 3.72941L7.6122 10.5309L7.49363 10.783L7.7255 10.9376L8.98993 11.7803L9.16931 11.8998L9.34867 11.7803L11.1096 10.6063L12.8705 11.7803L13.0499 11.8999L13.2293 11.7803L14.4886 10.9408L14.7206 10.7861L14.6017 10.5339L11.3957 3.72919ZM7.52803 11.583L7.21575 11.3748L7.05599 11.7144L4.72115 16.6784L4.50431 17.1394H5.01378H17.2035H17.7132L17.496 16.6783L15.1599 11.7169L15.0001 11.3775L14.688 11.5856L13.0499 12.6774L11.289 11.5034L11.1096 11.3838L10.9302 11.5034L9.1693 12.6774L7.52803 11.583Z" fill="white" stroke="white" stroke-width="0.64677"/>
</svg>
