<svg width="22" height="22" viewBox="0 0 22 22" fill="none" xmlns="http://www.w3.org/2000/svg">
<path d="M6.26996 16.8748L6.26969 16.8748C6.25531 16.83 6.22664 16.7911 6.18806 16.764C6.14948 16.737 6.10311 16.7234 6.05604 16.7252C6.00897 16.727 5.96379 16.7442 5.92742 16.7742L5.65347 16.4412L5.92742 16.7742C5.89104 16.8041 5.86547 16.8451 5.85461 16.8909C5.6509 17.7539 5.2485 18.266 4.76509 18.5667L4.76499 18.5668C4.27305 18.8726 3.67329 18.9776 3.04631 18.9776C2.98913 18.9776 2.93429 19.0003 2.89386 19.0407C2.85343 19.0812 2.83072 19.136 2.83072 19.1932C2.83072 19.2504 2.85343 19.3052 2.89386 19.3456C2.93429 19.3861 2.98913 19.4088 3.04631 19.4088C3.71389 19.4088 4.40571 19.2981 4.99237 18.9333L6.26996 16.8748ZM6.26996 16.8748C6.66331 18.0983 7.64478 18.7412 8.65546 18.7497C9.66181 18.7582 10.6457 18.1357 11.0346 16.9693L10.6256 16.8329M6.26996 16.8748L6.70199 16.8072C7.41039 18.8456 9.97274 18.7906 10.6256 16.8329M10.6256 16.8329C10.6687 16.7044 10.7511 16.5928 10.8611 16.5137C10.9711 16.4345 11.1032 16.392 11.2387 16.392C11.3742 16.392 11.5063 16.4345 11.6163 16.5137C11.7264 16.5928 11.8087 16.7044 11.8519 16.8329M10.6256 16.8329L11.0344 16.9701C11.0487 16.9273 11.0762 16.8901 11.1129 16.8637C11.1495 16.8374 11.1936 16.8232 11.2387 16.8232C11.2839 16.8232 11.3279 16.8374 11.3646 16.8637C11.4013 16.8901 11.4287 16.9273 11.4431 16.9701L11.8519 16.8329M11.8519 16.8329L11.4428 16.9693C11.8317 18.136 12.8156 18.7586 13.8221 18.75C14.8329 18.7414 15.8145 18.0981 16.2077 16.8743L15.7972 16.7424M11.8519 16.8329C12.5116 18.812 15.1211 18.8465 15.7972 16.7424M15.7972 16.7424C15.8394 16.6116 15.9222 16.4977 16.0335 16.4171C16.1448 16.3365 16.2789 16.2935 16.4163 16.2943C16.5537 16.2951 16.6873 16.3396 16.7977 16.4214C16.9081 16.5032 16.9896 16.618 17.0303 16.7493C17.3753 17.8591 18.411 18.5464 19.4312 18.5464C19.6027 18.5464 19.7672 18.6146 19.8885 18.7359M15.7972 16.7424L16.2075 16.8748C16.2216 16.8312 16.2492 16.7933 16.2863 16.7664C16.3234 16.7395 16.3681 16.7252 16.4139 16.7255C16.4597 16.7257 16.5042 16.7406 16.541 16.7678C16.5778 16.7951 16.605 16.8334 16.6186 16.8771L16.6186 16.8772C17.0214 18.1734 18.2284 18.9776 19.4312 18.9776C19.4883 18.9776 19.5432 19.0003 19.5836 19.0407L19.8885 18.7359M19.8885 18.7359L19.5836 19.0407C19.624 19.0812 19.6467 19.136 19.6467 19.1932C19.6467 19.2504 19.624 19.3052 19.5836 19.3456C19.5432 19.3861 19.4883 19.4088 19.4312 19.4088C18.4179 19.4088 17.4037 18.915 16.7528 18.0637L16.4134 17.6199L16.0701 18.0607C14.9186 19.5394 12.7219 19.5517 11.5755 18.1177L11.2388 17.6964L10.902 18.1176C9.77582 19.5262 7.63451 19.5391 6.46765 18.1362L6.09824 17.692L5.77752 18.1725C5.57295 18.479 5.30535 18.7383 4.99258 18.9331L19.8885 18.7359ZM9.32689 5.45579L9.3269 5.45578C10.0416 4.21776 11.2189 3.31438 12.5997 2.94436C13.9805 2.57434 15.4517 2.76799 16.6897 3.48272C17.9277 4.19745 18.8311 5.3747 19.2011 6.7555C19.5712 8.1363 19.3775 9.60753 18.6628 10.8455L18.4472 11.2189L18.447 11.2193C18.4329 11.2438 18.414 11.2653 18.3915 11.2826C18.3691 11.2999 18.3434 11.3125 18.3161 11.3199L18.3161 11.3199C18.2887 11.3272 18.2602 11.3291 18.2321 11.3254C18.204 11.3217 18.1769 11.3125 18.1524 11.2983L18.1523 11.2983L16.2708 10.2118L16.481 9.83491L17.8038 10.5989L18.1956 10.8251L18.4028 10.423C18.8741 9.5084 19.0494 8.46987 18.9044 7.45122C18.7593 6.43258 18.3012 5.48422 17.5934 4.73746L16.7201 3.81618L16.8516 5.07875C16.9008 5.55164 16.8976 6.02852 16.842 6.5007C16.7559 7.19008 16.538 7.87291 16.1467 8.64606L15.886 8.49548V9.24241V9.24327V9.98961L14.2217 9.02855L13.8466 8.81197L13.6317 9.18799L11.5853 12.7685L11.2622 13.3339L11.9089 13.4106C13.2166 13.5658 14.4039 14.1684 15.3592 15.059C15.2306 15.131 15.1095 15.2162 14.998 15.3131C13.9672 14.3835 12.6553 13.8026 11.2387 13.8026C9.82205 13.8026 8.51013 14.3836 7.47878 15.3132C7.36738 15.2163 7.24649 15.1313 7.1181 15.0593C8.06188 14.1797 9.23198 13.5809 10.5204 13.4171L10.7337 13.39L10.8404 13.2033L13.2602 8.96912L13.4732 8.59639L13.1014 8.38175L9.19061 6.12409L9.1903 6.12391C9.16575 6.10977 9.14423 6.09093 9.12697 6.06846L8.78505 6.33115L9.12697 6.06846C9.10971 6.04599 9.09705 6.02035 9.0897 5.99298C9.08236 5.96562 9.08049 5.93707 9.08418 5.90898C9.08788 5.88089 9.09708 5.85381 9.11125 5.82928L9.1113 5.82919L9.32689 5.45579ZM9.82393 5.47016L9.57942 5.8506L9.97107 6.0767L11.6665 7.05548L12.0204 7.25979L12.2434 6.91736C12.6889 6.23315 13.1314 5.68371 13.674 5.18955C14.1367 4.77608 14.6401 4.41057 15.1766 4.09863L16.1365 3.54045L15.0514 3.30455C14.0632 3.08971 13.033 3.182 12.0987 3.56905C11.1644 3.9561 10.3707 4.61942 9.82393 5.47016ZM14.9814 8.96907L15.361 9.18819L15.5739 8.80507C16.0713 7.9098 16.3235 7.17316 16.4147 6.446L16.4148 6.44537C16.4875 5.85869 16.4574 5.26969 16.3583 4.59616L16.2669 3.97576L15.7204 4.28313C14.9959 4.69053 14.4392 5.07605 13.9651 5.50769C13.4727 5.95571 13.064 6.45617 12.6441 7.09215L12.3919 7.47423L12.7884 7.70312L14.9814 8.96907Z" fill="white" stroke="white" stroke-width="0.862361"/>
</svg>
