<svg width="22" height="22" viewBox="0 0 22 22" fill="none" xmlns="http://www.w3.org/2000/svg">
<path d="M18.3416 17.6506L18.429 17.8361H18.6341H19.841V18.4829H2.37819V17.8361H3.58507H3.79018L3.8776 17.6506L10.2384 4.15171C10.3175 3.98946 10.4404 3.85249 10.5931 3.75623C10.7463 3.65965 10.9236 3.60791 11.1047 3.60685C11.2858 3.60579 11.4636 3.65546 11.618 3.75023C11.7713 3.84439 11.8955 3.97933 11.9765 4.13995L18.3416 17.6506ZM11.3957 4.42591L11.1028 3.8044L10.8105 4.42613L7.6122 11.2276L7.49363 11.4797L7.7255 11.6343L8.98993 12.477L9.16931 12.5966L9.34867 12.477L11.1096 11.303L12.8705 12.477L13.0499 12.5966L13.2293 12.477L14.4886 11.6375L14.7206 11.4828L14.6017 11.2306L11.3957 4.42591ZM7.52803 12.2797L7.21575 12.0715L7.05599 12.4111L4.72115 17.3751L4.50431 17.8361H5.01378H17.2035H17.7132L17.496 17.375L15.1599 12.4136L15.0001 12.0742L14.688 12.2823L13.0499 13.3741L11.289 12.2001L11.1096 12.0806L10.9302 12.2001L9.1693 13.3741L7.52803 12.2797Z" fill="white" stroke="white" stroke-width="0.64677"/>
</svg>
