<svg width="22" height="21" viewBox="0 0 22 21" fill="none" xmlns="http://www.w3.org/2000/svg">
<g clip-path="url(#clip0_67_401)">
<path d="M0.80786 4.28678C0.871701 4.12762 0.996137 4.00033 1.15381 3.9329C1.31148 3.86546 1.48948 3.86341 1.64866 3.92718L3.92141 4.83654C4.38394 5.02152 4.89989 5.02152 5.36242 4.83654L6.67407 4.31136C7.44507 4.00295 8.30517 4.00295 9.07617 4.31136L10.3891 4.83654C10.8516 5.02152 11.3676 5.02152 11.8301 4.83654L13.1418 4.31136C13.9128 4.00295 14.7729 4.00295 15.5439 4.31136L16.8568 4.83654C17.3193 5.02152 17.8353 5.02152 18.2978 4.83654L20.5706 3.92718C20.6498 3.8935 20.7349 3.87597 20.821 3.87562C20.907 3.87526 20.9923 3.89208 21.0718 3.9251C21.1513 3.95812 21.2234 4.00668 21.2838 4.06791C21.3443 4.12915 21.392 4.20184 21.424 4.28173C21.456 4.36162 21.4718 4.44709 21.4703 4.53315C21.4689 4.6192 21.4503 4.7041 21.4156 4.78288C21.381 4.86166 21.3309 4.93272 21.2685 4.99191C21.206 5.0511 21.1323 5.09723 21.0518 5.12759L18.7777 6.03694C18.0067 6.34536 17.1466 6.34536 16.3756 6.03694L15.064 5.51177C14.6014 5.32679 14.0855 5.32679 13.623 5.51177L12.31 6.03694C11.539 6.34536 10.6789 6.34536 9.90792 6.03694L8.59627 5.51177C8.13374 5.32679 7.61779 5.32679 7.15527 5.51177L5.84232 6.03694C5.07132 6.34536 4.21122 6.34536 3.44022 6.03694L1.16746 5.12759C1.00831 5.06374 0.881015 4.93931 0.81358 4.78164C0.746146 4.62397 0.744088 4.44597 0.80786 4.28678ZM0.80786 8.16741C0.871701 8.00825 0.996137 7.88096 1.15381 7.81352C1.31148 7.74609 1.48948 7.74403 1.64866 7.8078L3.92141 8.71716C4.38394 8.90214 4.89989 8.90214 5.36242 8.71716L6.67407 8.19198C7.44507 7.88357 8.30517 7.88357 9.07617 8.19198L10.3891 8.71716C10.8516 8.90214 11.3676 8.90214 11.8301 8.71716L13.1418 8.19198C13.9128 7.88357 14.7729 7.88357 15.5439 8.19198L16.8568 8.71716C17.3193 8.90214 17.8353 8.90214 18.2978 8.71716L20.5706 7.8078C20.6498 7.77412 20.7349 7.7566 20.821 7.75624C20.907 7.75588 20.9923 7.77271 21.0718 7.80573C21.1513 7.83875 21.2234 7.8873 21.2838 7.94854C21.3443 8.00977 21.392 8.08247 21.424 8.16235C21.456 8.24224 21.4718 8.32771 21.4703 8.41377C21.4689 8.49982 21.4503 8.58473 21.4156 8.6635C21.381 8.74228 21.3309 8.81335 21.2685 8.87254C21.206 8.93173 21.1323 8.97785 21.0518 9.00821L18.7777 9.91757C18.0067 10.226 17.1466 10.226 16.3756 9.91757L15.064 9.39239C14.6014 9.20741 14.0855 9.20741 13.623 9.39239L12.31 9.91757C11.539 10.226 10.6789 10.226 9.90792 9.91757L8.59627 9.39239C8.13374 9.20741 7.61779 9.20741 7.15527 9.39239L5.84232 9.91757C5.07132 10.226 4.21122 10.226 3.44022 9.91757L1.16746 9.00821C1.00831 8.94437 0.881015 8.81993 0.81358 8.66226C0.746146 8.50459 0.744088 8.32659 0.80786 8.16741ZM0.80786 12.048C0.871701 11.8889 0.996137 11.7616 1.15381 11.6941C1.31148 11.6267 1.48948 11.6247 1.64866 11.6884L3.92141 12.5978C4.38394 12.7828 4.89989 12.7828 5.36242 12.5978L6.67407 12.0726C7.44507 11.7642 8.30517 11.7642 9.07617 12.0726L10.3891 12.5978C10.8516 12.7828 11.3676 12.7828 11.8301 12.5978L13.1418 12.0726C13.9128 11.7642 14.7729 11.7642 15.5439 12.0726L16.8568 12.5978C17.3193 12.7828 17.8353 12.7828 18.2978 12.5978L20.5706 11.6884C20.6498 11.6547 20.7349 11.6372 20.821 11.6369C20.907 11.6365 20.9923 11.6533 21.0718 11.6864C21.1513 11.7194 21.2234 11.7679 21.2838 11.8292C21.3443 11.8904 21.392 11.9631 21.424 12.043C21.456 12.1229 21.4718 12.2083 21.4703 12.2944C21.4689 12.3804 21.4503 12.4653 21.4156 12.5441C21.381 12.6229 21.3309 12.694 21.2685 12.7532C21.206 12.8123 21.1323 12.8585 21.0518 12.8888L18.7777 13.7982C18.0067 14.1066 17.1466 14.1066 16.3756 13.7982L15.064 13.273C14.6014 13.088 14.0855 13.088 13.623 13.273L12.31 13.7982C11.539 14.1066 10.6789 14.1066 9.90792 13.7982L8.59627 13.273C8.13374 13.088 7.61779 13.088 7.15527 13.273L5.84232 13.7982C5.07132 14.1066 4.21122 14.1066 3.44022 13.7982L1.16746 12.8888C1.00831 12.825 0.881015 12.7006 0.81358 12.5429C0.746146 12.3852 0.744088 12.2072 0.80786 12.048ZM0.80786 15.9287C0.871701 15.7695 0.996137 15.6422 1.15381 15.5748C1.31148 15.5073 1.48948 15.5053 1.64866 15.569L3.92141 16.4784C4.38394 16.6634 4.89989 16.6634 5.36242 16.4784L6.67407 15.9532C7.44507 15.6448 8.30517 15.6448 9.07617 15.9532L10.3891 16.4784C10.8516 16.6634 11.3676 16.6634 11.8301 16.4784L13.1418 15.9532C13.9128 15.6448 14.7729 15.6448 15.5439 15.9532L16.8568 16.4784C17.3193 16.6634 17.8353 16.6634 18.2978 16.4784L20.5706 15.569C20.6498 15.5354 20.7349 15.5178 20.821 15.5175C20.907 15.5171 20.9923 15.534 21.0718 15.567C21.1513 15.6 21.2234 15.6485 21.2838 15.7098C21.3443 15.771 21.392 15.8437 21.424 15.9236C21.456 16.0035 21.4718 16.089 21.4703 16.175C21.4689 16.2611 21.4503 16.346 21.4156 16.4247C21.381 16.5035 21.3309 16.5746 21.2685 16.6338C21.206 16.693 21.1323 16.7391 21.0518 16.7695L18.7777 17.6788C18.0067 17.9872 17.1466 17.9872 16.3756 17.6788L15.064 17.1536C14.6014 16.9687 14.0855 16.9687 13.623 17.1536L12.31 17.6788C11.539 17.9872 10.6789 17.9872 9.90792 17.6788L8.59627 17.1536C8.13374 16.9687 7.61779 16.9687 7.15527 17.1536L5.84232 17.6788C5.07132 17.9872 4.21122 17.9872 3.44022 17.6788L1.16746 16.7695C1.00831 16.7056 0.881015 16.5812 0.81358 16.4235C0.746146 16.2658 0.744088 16.0878 0.80786 15.9287Z" fill="white"/>
</g>
<defs>
<clipPath id="clip0_67_401">
<rect width="20.6967" height="20.6967" fill="white" transform="translate(0.76123)"/>
</clipPath>
</defs>
</svg>
