<svg width="22" height="22" viewBox="0 0 22 22" fill="none" xmlns="http://www.w3.org/2000/svg">
<path d="M6.26996 16.8749L6.26969 16.8749C6.25531 16.83 6.22664 16.7911 6.18806 16.7641C6.14948 16.7371 6.10311 16.7234 6.05604 16.7253C6.00897 16.7271 5.96379 16.7443 5.92742 16.7742L5.65347 16.4412L5.92742 16.7742C5.89104 16.8041 5.86547 16.8452 5.85461 16.891C5.6509 17.754 5.2485 18.2661 4.76509 18.5668L4.76499 18.5669C4.27305 18.8727 3.67329 18.9777 3.04631 18.9777C2.98913 18.9777 2.93429 19.0004 2.89386 19.0408C2.85343 19.0812 2.83072 19.1361 2.83072 19.1933C2.83072 19.2504 2.85343 19.3053 2.89386 19.3457C2.93429 19.3861 2.98913 19.4088 3.04631 19.4088C3.71389 19.4088 4.40571 19.2981 4.99237 18.9333L6.26996 16.8749ZM6.26996 16.8749C6.66331 18.0984 7.64478 18.7413 8.65546 18.7498C9.66181 18.7582 10.6457 18.1357 11.0346 16.9694L10.6256 16.833M6.26996 16.8749L6.70199 16.8073C7.41039 18.8456 9.97274 18.7907 10.6256 16.833M10.6256 16.833C10.6687 16.7045 10.7511 16.5928 10.8611 16.5137C10.9711 16.4346 11.1032 16.392 11.2387 16.392C11.3742 16.392 11.5063 16.4346 11.6163 16.5137C11.7264 16.5928 11.8087 16.7045 11.8519 16.833M10.6256 16.833L11.0344 16.9702C11.0487 16.9274 11.0762 16.8902 11.1129 16.8638C11.1495 16.8374 11.1936 16.8232 11.2387 16.8232C11.2839 16.8232 11.3279 16.8374 11.3646 16.8638C11.4013 16.8902 11.4287 16.9274 11.4431 16.9702L11.8519 16.833M11.8519 16.833L11.4428 16.9693C11.8317 18.1361 12.8156 18.7587 13.8221 18.7501C14.8329 18.7414 15.8145 18.0981 16.2077 16.8743L15.7972 16.7424M11.8519 16.833C12.5116 18.8121 15.1211 18.8466 15.7972 16.7424M15.7972 16.7424C15.8394 16.6117 15.9222 16.4977 16.0335 16.4172C16.1448 16.3366 16.2789 16.2936 16.4163 16.2943C16.5537 16.2951 16.6873 16.3396 16.7977 16.4214C16.9081 16.5032 16.9896 16.6181 17.0303 16.7493C17.3753 17.8592 18.411 18.5465 19.4312 18.5465C19.6027 18.5465 19.7672 18.6146 19.8885 18.7359M15.7972 16.7424L16.2075 16.8749C16.2216 16.8313 16.2492 16.7933 16.2863 16.7665C16.3234 16.7396 16.3681 16.7253 16.4139 16.7255C16.4597 16.7258 16.5042 16.7406 16.541 16.7679C16.5778 16.7952 16.605 16.8334 16.6186 16.8772L16.6186 16.8773C17.0214 18.1734 18.2284 18.9777 19.4312 18.9777C19.4883 18.9777 19.5432 19.0004 19.5836 19.0408L19.8885 18.7359M19.8885 18.7359L19.5836 19.0408C19.624 19.0812 19.6467 19.1361 19.6467 19.1933C19.6467 19.2504 19.624 19.3053 19.5836 19.3457C19.5432 19.3861 19.4883 19.4088 19.4312 19.4088C18.4179 19.4088 17.4037 18.9151 16.7528 18.0638L16.4134 17.6199L16.0701 18.0608C14.9186 19.5394 12.7219 19.5518 11.5755 18.1177L11.2388 17.6964L10.902 18.1177C9.77582 19.5263 7.63451 19.5392 6.46765 18.1362L6.09824 17.6921L5.77752 18.1726C5.57295 18.479 5.30535 18.7384 4.99258 18.9332L19.8885 18.7359ZM9.32689 5.45585L9.3269 5.45584C10.0416 4.21782 11.2189 3.31444 12.5997 2.94442C13.9805 2.5744 15.4517 2.76805 16.6897 3.48278C17.9277 4.19751 18.8311 5.37476 19.2011 6.75556C19.5712 8.13636 19.3775 9.60759 18.6628 10.8456L18.4472 11.219L18.447 11.2193C18.4329 11.2439 18.414 11.2654 18.3915 11.2827C18.3691 11.2999 18.3434 11.3126 18.3161 11.3199L18.3161 11.3199C18.2887 11.3273 18.2602 11.3291 18.2321 11.3254C18.204 11.3217 18.1769 11.3125 18.1524 11.2984L18.1523 11.2983L16.2708 10.2119L16.481 9.83497L17.8038 10.599L18.1956 10.8252L18.4028 10.4231C18.8741 9.50846 19.0494 8.46993 18.9044 7.45128C18.7593 6.43264 18.3012 5.48428 17.5934 4.73753L16.7201 3.81624L16.8516 5.07881C16.9008 5.5517 16.8976 6.02858 16.842 6.50076C16.7559 7.19014 16.538 7.87297 16.1467 8.64613L15.886 8.49554V9.24247V9.24333V9.98967L14.2217 9.02861L13.8466 8.81203L13.6317 9.18805L11.5853 12.7686L11.2622 13.334L11.9089 13.4107C13.2166 13.5658 14.4039 14.1685 15.3592 15.0591C15.2306 15.1311 15.1095 15.2162 14.998 15.3132C13.9672 14.3836 12.6553 13.8026 11.2387 13.8026C9.82205 13.8026 8.51013 14.3837 7.47878 15.3133C7.36738 15.2164 7.24649 15.1314 7.1181 15.0594C8.06188 14.1797 9.23198 13.581 10.5204 13.4172L10.7337 13.39L10.8404 13.2034L13.2602 8.96918L13.4732 8.59645L13.1014 8.38181L9.19061 6.12415L9.1903 6.12398C9.16575 6.10983 9.14423 6.09099 9.12697 6.06852L8.78505 6.33121L9.12697 6.06852C9.10971 6.04606 9.09705 6.02041 9.0897 5.99304C9.08236 5.96568 9.08049 5.93713 9.08418 5.90904C9.08788 5.88096 9.09708 5.85387 9.11125 5.82934L9.1113 5.82925L9.32689 5.45585ZM9.82393 5.47022L9.57942 5.85066L9.97107 6.07676L11.6665 7.05554L12.0204 7.25985L12.2434 6.91742C12.6889 6.23322 13.1314 5.68377 13.674 5.18961C14.1367 4.77614 14.6401 4.41064 15.1766 4.09869L16.1365 3.54051L15.0514 3.30461C14.0632 3.08977 13.033 3.18206 12.0987 3.56911C11.1644 3.95616 10.3707 4.61948 9.82393 5.47022ZM14.9814 8.96913L15.361 9.18825L15.5739 8.80513C16.0713 7.90986 16.3235 7.17322 16.4147 6.44606L16.4148 6.44543C16.4875 5.85875 16.4574 5.26975 16.3583 4.59623L16.2669 3.97582L15.7204 4.28319C14.9959 4.69059 14.4392 5.07611 13.9651 5.50775C13.4727 5.95577 13.064 6.45623 12.6441 7.09222L12.3919 7.4743L12.7884 7.70318L14.9814 8.96913Z" fill="white" stroke="white" stroke-width="0.862361"/>
</svg>
