<svg width="22" height="22" viewBox="0 0 22 22" fill="none" xmlns="http://www.w3.org/2000/svg">
<path d="M18.3416 17.3472L18.429 17.5328H18.6341H19.841V18.1795H2.37819V17.5328H3.58507H3.79018L3.8776 17.3472L10.2384 3.84837C10.3175 3.68611 10.4404 3.54914 10.5931 3.45288C10.7463 3.35631 10.9236 3.30456 11.1047 3.3035C11.2858 3.30244 11.4636 3.35211 11.618 3.44688C11.7713 3.54104 11.8955 3.67598 11.9765 3.83661L18.3416 17.3472ZM11.3957 4.12256L11.1028 3.50105L10.8105 4.12278L7.6122 10.9242L7.49363 11.1764L7.7255 11.3309L8.98993 12.1737L9.16931 12.2932L9.34867 12.1736L11.1096 10.9997L12.8705 12.1736L13.0499 12.2932L13.2293 12.1736L14.4886 11.3341L14.7206 11.1795L14.6017 10.9272L11.3957 4.12256ZM7.52803 11.9764L7.21575 11.7681L7.05599 12.1078L4.72115 17.0717L4.50431 17.5328H5.01378H17.2035H17.7132L17.496 17.0716L15.1599 12.1102L15.0001 11.7709L14.688 11.9789L13.0499 13.0708L11.289 11.8968L11.1096 11.7772L10.9302 11.8968L9.1693 13.0707L7.52803 11.9764Z" fill="#6A778B" stroke="#6A778B" stroke-width="0.64677"/>
</svg>
