<svg width="22" height="22" viewBox="0 0 22 22" fill="none" xmlns="http://www.w3.org/2000/svg">
<path d="M14.8609 9.18831L14.4813 8.96919L12.2883 7.70324L11.8918 7.47436L12.144 7.09228C12.5638 6.45633 12.9725 5.95589 13.4649 5.5079L14.8609 9.18831ZM14.8609 9.18831L15.0737 8.80519M14.8609 9.18831L15.0737 8.80519M15.0737 8.80519C15.5712 7.90992 15.8233 7.17328 15.9146 6.44612L15.9147 6.44549M15.0737 8.80519L15.9147 6.44549M15.9147 6.44549C15.9874 5.85881 15.9573 5.26981 15.8582 4.59629L15.7668 3.97588M15.9147 6.44549L15.7668 3.97588M15.7668 3.97588L15.2202 4.28325M15.7668 3.97588L15.2202 4.28325M15.2202 4.28325C14.4958 4.69065 13.939 5.07617 13.465 5.50781L15.2202 4.28325ZM8.82677 5.45591L8.82677 5.4559C9.5415 4.21788 10.7188 3.3145 12.0996 2.94448C13.4804 2.57446 14.9516 2.76811 16.1896 3.48284C17.4276 4.19757 18.331 5.37483 18.701 6.75562C19.071 8.13642 18.8774 9.60764 18.1627 10.8457C18.1627 10.8457 18.1627 10.8457 18.1627 10.8457L17.9471 11.2191L17.9469 11.2194C17.9327 11.2439 17.9139 11.2655 17.8914 11.2827C17.869 11.3 17.8433 11.3126 17.8159 11.32C17.7886 11.3273 17.76 11.3292 17.732 11.3255C17.7039 11.3218 17.6768 11.3126 17.6522 11.2984L17.6522 11.2984L15.7707 10.2119L15.9808 9.83503L17.3037 10.599L17.6954 10.8252L17.9026 10.4231C18.374 9.50852 18.5492 8.46999 18.4042 7.45134C18.2592 6.4327 17.8011 5.48434 17.0932 4.73759L16.22 3.8163L16.3514 5.07887C16.4007 5.5518 16.3975 6.02872 16.3419 6.50094C16.2557 7.19027 16.0378 7.87307 15.6466 8.64619L15.3859 8.4956V9.24253V9.24339V9.98973L13.7215 9.02867L13.3465 8.81209L13.1316 9.18811L11.0852 12.7686L10.762 13.334L11.4087 13.4108C12.7165 13.5659 13.9038 14.1686 14.8591 15.0592C14.7305 15.1312 14.6094 15.2163 14.4979 15.3132C13.4671 14.3837 12.1552 13.8027 10.7386 13.8027C9.32192 13.8027 8.01001 14.3837 6.97866 15.3133C6.86726 15.2165 6.74636 15.1314 6.61798 15.0595C7.56176 14.1798 8.73186 13.581 10.0203 13.4172L10.2336 13.3901L10.3403 13.2034L12.7601 8.96924L12.9731 8.59651L12.6013 8.38188L8.69049 6.12422L8.69018 6.12404C8.66563 6.10989 8.64411 6.09105 8.62685 6.06858C8.60959 6.04612 8.59693 6.02047 8.58958 5.9931C8.58224 5.96574 8.58037 5.93719 8.58406 5.9091C8.58776 5.88102 8.59696 5.85393 8.61113 5.8294L8.61118 5.82931L8.82677 5.45591ZM11.1664 7.0556L11.5203 7.25991L11.7433 6.91748C12.1888 6.23328 12.6313 5.68384 13.1738 5.18969C13.6366 4.77621 14.14 4.4107 14.6764 4.09875L15.6363 3.54057L14.5513 3.30467C13.5631 3.08983 12.5328 3.18212 11.5985 3.56917C10.6643 3.95622 9.87057 4.61955 9.3238 5.47028L9.0793 5.85072L9.47095 6.07682L11.1664 7.0556ZM5.76957 16.875L5.76983 16.8749L10.5344 16.9698C10.5488 16.9272 10.5762 16.8901 10.6127 16.8638C10.6494 16.8375 10.6934 16.8233 10.7386 16.8233C10.7838 16.8233 10.8278 16.8375 10.8645 16.8638C10.9012 16.8902 10.9286 16.9274 10.943 16.9703L11.3516 16.8331L10.9427 16.9694C11.3316 18.1361 12.3155 18.7588 13.3219 18.7502C14.3326 18.7415 15.314 18.0984 15.7074 16.8749C15.7215 16.8314 15.749 16.7934 15.7861 16.7665C15.8233 16.7397 15.8679 16.7253 15.9138 16.7256C15.9596 16.7258 16.0041 16.7407 16.0409 16.7679C16.0777 16.7952 16.1049 16.8335 16.1184 16.8772L16.1185 16.8774C16.5213 18.1735 17.7283 18.9777 18.931 18.9777C18.9882 18.9777 19.0431 19.0004 19.0835 19.0409C19.1239 19.0813 19.1466 19.1361 19.1466 19.1933C19.1466 19.2505 19.1239 19.3053 19.0835 19.3458C19.0431 19.3862 18.9882 19.4089 18.931 19.4089C17.9178 19.4089 16.9036 18.9151 16.2527 18.0639L15.9133 17.62L15.57 18.0609C14.4185 19.5395 12.2218 19.5519 11.0754 18.1178L10.7386 17.6965L10.4018 18.1178C9.2757 19.5264 7.13439 19.5392 5.96753 18.1363L5.59812 17.6921L5.2774 18.1726C5.07282 18.4791 4.80522 18.7384 4.49246 18.9332C3.90575 19.2982 3.21384 19.4089 2.54618 19.4089C2.48901 19.4089 2.43417 19.3862 2.39374 19.3458C2.35331 19.3053 2.33059 19.2505 2.33059 19.1933C2.33059 19.1361 2.35331 19.0813 2.39374 19.0409C2.43417 19.0004 2.48901 18.9777 2.54618 18.9777C3.17316 18.9777 3.77293 18.8728 4.26487 18.5669L4.26497 18.5668C4.74837 18.2661 5.15078 17.754 5.35449 16.8911C5.36535 16.8452 5.39092 16.8042 5.42729 16.7743C5.46367 16.7444 5.50884 16.7272 5.55591 16.7253C5.60298 16.7235 5.64935 16.7371 5.68794 16.7642C5.72652 16.7912 5.75519 16.8301 5.76957 16.875Z" fill="#6A778B" stroke="#6A778B" stroke-width="0.862361"/>
</svg>
