<svg width="22" height="22" viewBox="0 0 22 22" fill="none" xmlns="http://www.w3.org/2000/svg">
<g clip-path="url(#clip0_103_492)">
<path d="M0.80786 4.98344C0.871701 4.82428 0.996137 4.69699 1.15381 4.62955C1.31148 4.56212 1.48948 4.56006 1.64866 4.62383L3.92141 5.53319C4.38394 5.71817 4.89989 5.71817 5.36242 5.53319L6.67407 5.00802C7.44507 4.69961 8.30517 4.69961 9.07617 5.00802L10.3891 5.53319C10.8516 5.71817 11.3676 5.71817 11.8301 5.53319L13.1418 5.00802C13.9128 4.69961 14.7729 4.69961 15.5439 5.00802L16.8568 5.53319C17.3193 5.71817 17.8353 5.71817 18.2978 5.53319L20.5706 4.62383C20.6498 4.59016 20.7349 4.57263 20.821 4.57227C20.907 4.57191 20.9923 4.58874 21.0718 4.62176C21.1513 4.65478 21.2234 4.70333 21.2838 4.76457C21.3443 4.82581 21.392 4.8985 21.424 4.97839C21.456 5.05827 21.4718 5.14375 21.4703 5.2298C21.4689 5.31586 21.4503 5.40076 21.4156 5.47954C21.381 5.55831 21.3309 5.62938 21.2685 5.68857C21.206 5.74776 21.1323 5.79388 21.0518 5.82424L18.7777 6.7336C18.0067 7.04201 17.1466 7.04201 16.3756 6.7336L15.064 6.20842C14.6014 6.02345 14.0855 6.02345 13.623 6.20842L12.31 6.7336C11.539 7.04201 10.6789 7.04201 9.90792 6.7336L8.59627 6.20842C8.13374 6.02345 7.61779 6.02345 7.15527 6.20842L5.84232 6.7336C5.07132 7.04201 4.21122 7.04201 3.44022 6.7336L1.16746 5.82424C1.00831 5.7604 0.881015 5.63596 0.81358 5.47829C0.746146 5.32062 0.744088 5.14263 0.80786 4.98344ZM0.80786 8.86406C0.871701 8.7049 0.996137 8.57761 1.15381 8.51018C1.31148 8.44274 1.48948 8.44069 1.64866 8.50446L3.92141 9.41382C4.38394 9.59879 4.89989 9.59879 5.36242 9.41382L6.67407 8.88864C7.44507 8.58023 8.30517 8.58023 9.07617 8.88864L10.3891 9.41382C10.8516 9.59879 11.3676 9.59879 11.8301 9.41382L13.1418 8.88864C13.9128 8.58023 14.7729 8.58023 15.5439 8.88864L16.8568 9.41382C17.3193 9.59879 17.8353 9.59879 18.2978 9.41382L20.5706 8.50446C20.6498 8.47078 20.7349 8.45325 20.821 8.45289C20.907 8.45254 20.9923 8.46936 21.0718 8.50238C21.1513 8.5354 21.2234 8.58395 21.2838 8.64519C21.3443 8.70643 21.392 8.77912 21.424 8.85901C21.456 8.9389 21.4718 9.02437 21.4703 9.11042C21.4689 9.19648 21.4503 9.28138 21.4156 9.36016C21.381 9.43894 21.3309 9.51 21.2685 9.56919C21.206 9.62838 21.1323 9.67451 21.0518 9.70486L18.7777 10.6142C18.0067 10.9226 17.1466 10.9226 16.3756 10.6142L15.064 10.089C14.6014 9.90407 14.0855 9.90407 13.623 10.089L12.31 10.6142C11.539 10.9226 10.6789 10.9226 9.90792 10.6142L8.59627 10.089C8.13374 9.90407 7.61779 9.90407 7.15527 10.089L5.84232 10.6142C5.07132 10.9226 4.21122 10.9226 3.44022 10.6142L1.16746 9.70486C1.00831 9.64102 0.881015 9.51659 0.81358 9.35892C0.746146 9.20125 0.744088 9.02325 0.80786 8.86406ZM0.80786 12.7447C0.871701 12.5855 0.996137 12.4582 1.15381 12.3908C1.31148 12.3234 1.48948 12.3213 1.64866 12.3851L3.92141 13.2944C4.38394 13.4794 4.89989 13.4794 5.36242 13.2944L6.67407 12.7693C7.44507 12.4609 8.30517 12.4609 9.07617 12.7693L10.3891 13.2944C10.8516 13.4794 11.3676 13.4794 11.8301 13.2944L13.1418 12.7693C13.9128 12.4609 14.7729 12.4609 15.5439 12.7693L16.8568 13.2944C17.3193 13.4794 17.8353 13.4794 18.2978 13.2944L20.5706 12.3851C20.6498 12.3514 20.7349 12.3339 20.821 12.3335C20.907 12.3332 20.9923 12.35 21.0718 12.383C21.1513 12.416 21.2234 12.4646 21.2838 12.5258C21.3443 12.5871 21.392 12.6597 21.424 12.7396C21.456 12.8195 21.4718 12.905 21.4703 12.991C21.4689 13.0771 21.4503 13.162 21.4156 13.2408C21.381 13.3196 21.3309 13.3906 21.2685 13.4498C21.206 13.509 21.1323 13.5551 21.0518 13.5855L18.7777 14.4948C18.0067 14.8033 17.1466 14.8033 16.3756 14.4948L15.064 13.9697C14.6014 13.7847 14.0855 13.7847 13.623 13.9697L12.31 14.4948C11.539 14.8033 10.6789 14.8033 9.90792 14.4948L8.59627 13.9697C8.13374 13.7847 7.61779 13.7847 7.15527 13.9697L5.84232 14.4948C5.07132 14.8033 4.21122 14.8033 3.44022 14.4948L1.16746 13.5855C1.00831 13.5216 0.881015 13.3972 0.81358 13.2395C0.746146 13.0819 0.744088 12.9039 0.80786 12.7447ZM0.80786 16.6253C0.871701 16.4661 0.996137 16.3389 1.15381 16.2714C1.31148 16.204 1.48948 16.2019 1.64866 16.2657L3.92141 17.1751C4.38394 17.36 4.89989 17.36 5.36242 17.1751L6.67407 16.6499C7.44507 16.3415 8.30517 16.3415 9.07617 16.6499L10.3891 17.1751C10.8516 17.36 11.3676 17.36 11.8301 17.1751L13.1418 16.6499C13.9128 16.3415 14.7729 16.3415 15.5439 16.6499L16.8568 17.1751C17.3193 17.36 17.8353 17.36 18.2978 17.1751L20.5706 16.2657C20.6498 16.232 20.7349 16.2145 20.821 16.2141C20.907 16.2138 20.9923 16.2306 21.0718 16.2636C21.1513 16.2966 21.2234 16.3452 21.2838 16.4064C21.3443 16.4677 21.392 16.5404 21.424 16.6203C21.456 16.7001 21.4718 16.7856 21.4703 16.8717C21.4689 16.9577 21.4503 17.0426 21.4156 17.1214C21.381 17.2002 21.3309 17.2712 21.2685 17.3304C21.206 17.3896 21.1323 17.4358 21.0518 17.4661L18.7777 18.3755C18.0067 18.6839 17.1466 18.6839 16.3756 18.3755L15.064 17.8503C14.6014 17.6653 14.0855 17.6653 13.623 17.8503L12.31 18.3755C11.539 18.6839 10.6789 18.6839 9.90792 18.3755L8.59627 17.8503C8.13374 17.6653 7.61779 17.6653 7.15527 17.8503L5.84232 18.3755C5.07132 18.6839 4.21122 18.6839 3.44022 18.3755L1.16746 17.4661C1.00831 17.4023 0.881015 17.2778 0.81358 17.1202C0.746146 16.9625 0.744088 16.7845 0.80786 16.6253Z" fill="white"/>
</g>
<defs>
<clipPath id="clip0_103_492">
<rect width="20.6967" height="20.6967" fill="white" transform="translate(0.76123 0.696655)"/>
</clipPath>
</defs>
</svg>
