<svg width="28" height="34" viewBox="0 0 28 34" fill="none" xmlns="http://www.w3.org/2000/svg">
<path d="M23.6461 23.4735C23.646 24.3617 23.3832 25.2193 22.9068 25.8857C22.4305 26.552 21.7733 26.9814 21.0585 27.0933C20.3437 27.2052 19.6204 26.992 19.024 26.4935C18.4276 25.9951 17.9992 25.2457 17.819 24.3858H8.84401C7.66628 24.3858 6.53679 23.8091 5.70401 22.7826C4.87123 21.7561 4.40338 20.3639 4.40338 18.9123C4.40338 17.4606 4.87123 16.0684 5.70401 15.0419C6.53679 14.0154 7.66628 13.4387 8.84401 13.4387H17.7253C18.3141 13.4387 18.8789 13.1504 19.2953 12.6371C19.7117 12.1239 19.9456 11.4278 19.9456 10.7019C19.9456 9.97608 19.7117 9.27997 19.2953 8.76673C18.8789 8.25348 18.3141 7.96514 17.7253 7.96514H8.84401C8.64772 7.96514 8.45947 7.86903 8.32068 7.69795C8.18188 7.52687 8.1039 7.29483 8.1039 7.05288C8.1039 6.81094 8.18188 6.5789 8.32068 6.40782C8.45947 6.23674 8.64772 6.14062 8.84401 6.14062H17.7253C18.7067 6.14062 19.6479 6.62119 20.3419 7.4766C21.0359 8.33201 21.4258 9.49219 21.4258 10.7019C21.4258 11.9117 21.0359 13.0718 20.3419 13.9272C19.6479 14.7827 18.7067 15.2632 17.7253 15.2632H8.84401C8.05886 15.2632 7.30586 15.6477 6.75068 16.332C6.19549 17.0163 5.88359 17.9445 5.88359 18.9123C5.88359 19.88 6.19549 20.8082 6.75068 21.4925C7.30586 22.1768 8.05886 22.5613 8.84401 22.5613H17.819C17.9992 21.7014 18.4276 20.952 19.024 20.4535C19.6204 19.9551 20.3437 19.7419 21.0585 19.8538C21.7733 19.9657 22.4305 20.3951 22.9068 21.0614C23.3832 21.7278 23.646 22.5854 23.6461 23.4735Z" fill="#0994CF"/>
</svg>
