<svg width="27" height="34" viewBox="0 0 27 34" fill="none" xmlns="http://www.w3.org/2000/svg">
<path d="M21.9238 13.7482L16.3928 12.7625L13.9203 6.61611C13.8528 6.44782 13.7417 6.31159 13.6045 6.22878C13.2603 6.02043 12.842 6.19406 12.6699 6.61611L10.1975 12.7625L4.66648 13.7482C4.51399 13.7749 4.37458 13.8631 4.26783 13.9966C4.13879 14.1593 4.06768 14.3781 4.07013 14.605C4.07258 14.8319 4.14839 15.0483 4.2809 15.2067L8.28263 19.9908L7.33721 26.7463C7.31504 26.9034 7.32922 27.0651 7.37814 27.2128C7.42707 27.3606 7.50878 27.4886 7.61401 27.5823C7.71925 27.676 7.84379 27.7317 7.97352 27.7431C8.10325 27.7544 8.23297 27.721 8.34799 27.6465L13.2951 24.4571L18.2423 27.6465C18.3774 27.7346 18.5342 27.764 18.6845 27.732C19.0636 27.6518 19.3184 27.2111 19.2531 26.7463L18.3077 19.9908L22.3094 15.2067C22.4183 15.0758 22.4902 14.9049 22.512 14.7179C22.5708 14.2504 22.305 13.8177 21.9238 13.7482Z" fill="#FF5733"/>
</svg>
