<svg width="27" height="34" viewBox="0 0 27 34" fill="none" xmlns="http://www.w3.org/2000/svg">
<path d="M17.7314 24.4687H19.4808V15.8437H14.2327V24.4687H15.9821V18H17.7314V24.4687ZM5.48606 24.4687V8.29687C5.48606 8.01094 5.57821 7.73671 5.74224 7.53453C5.90628 7.33234 6.12875 7.21875 6.36073 7.21875H18.6061C18.8381 7.21875 19.0605 7.33234 19.2246 7.53453C19.3886 7.73671 19.4808 8.01094 19.4808 8.29687V13.6875H21.2301V24.4687H22.1048V26.625H4.61139V24.4687H5.48606ZM8.98473 15.8437V18H10.7341V15.8437H8.98473ZM8.98473 20.1562V22.3125H10.7341V20.1562H8.98473ZM8.98473 11.5312V13.6875H10.7341V11.5312H8.98473Z" fill="#44AD9A"/>
</svg>
