<svg width="32" height="30" viewBox="0 0 32 30" fill="none" xmlns="http://www.w3.org/2000/svg">
<path d="M5.90965 15.5449C5.94974 16.1977 6.5462 16.6963 7.24189 16.6587C7.93758 16.6211 8.46905 16.0615 8.42896 15.4087C8.38888 14.756 7.79242 14.2573 7.09673 14.2949C6.40104 14.3325 5.86957 14.8922 5.90965 15.5449Z" fill="white"/>
<path d="M13.4676 15.1363C13.3737 13.6066 12.6513 12.1706 11.4522 11.1304C11.2062 10.9173 10.88 10.8046 10.5454 10.8171C10.2108 10.8296 9.89517 10.9664 9.668 11.1972C9.44084 11.4281 9.32073 11.7342 9.33408 12.0481C9.34744 12.3621 9.49317 12.6582 9.73921 12.8713C10.4355 13.5071 10.8526 14.3646 10.9085 15.2746C10.9644 16.1847 10.655 17.0814 10.0411 17.788C9.82282 18.0263 9.7143 18.3361 9.73947 18.6495C9.76464 18.9628 9.92142 19.2539 10.1753 19.4587C10.4293 19.6636 10.7595 19.7654 11.0934 19.7418C11.4274 19.7182 11.7376 19.5711 11.9559 19.3328C13.0197 18.1703 13.5616 16.666 13.4676 15.1363ZM19.7659 14.7958C19.6772 13.3683 19.2833 11.9723 18.6075 10.6907C17.9317 9.40912 16.9878 8.26829 15.8322 7.33616C15.704 7.23487 15.5558 7.15826 15.3961 7.1107C15.2363 7.06315 15.0681 7.04559 14.9011 7.05902C14.7341 7.07246 14.5716 7.11662 14.4228 7.18899C14.274 7.26136 14.1418 7.36053 14.0338 7.48082C13.8158 7.72377 13.7095 8.03803 13.7385 8.35448C13.7528 8.51117 13.7998 8.66368 13.877 8.8033C13.9541 8.94292 14.0598 9.06692 14.188 9.16822C15.0888 9.89385 15.8244 10.7824 16.3509 11.7808C16.8774 12.7793 17.1839 13.867 17.2522 14.9791C17.3205 16.0912 17.1492 17.2048 16.7484 18.2534C16.3476 19.3019 15.7256 20.2639 14.9196 21.0818C14.8073 21.1977 14.7206 21.3333 14.6646 21.4809C14.6086 21.6284 14.5843 21.7849 14.5933 21.9413C14.6084 22.1723 14.6953 22.394 14.8432 22.5791C14.9912 22.7641 15.1936 22.9045 15.4257 22.9828C15.6577 23.0611 15.9091 23.0738 16.1488 23.0195C16.3885 22.9652 16.6059 22.8462 16.7743 22.6772C17.814 21.6209 18.6149 20.378 19.1291 19.0235C19.6432 17.669 19.8598 16.2309 19.7659 14.7958Z" fill="white"/>
<path d="M21.8192 26.2108C24.8009 22.9551 26.32 18.741 26.0569 14.4555C25.7937 10.17 23.7687 6.14747 20.4082 3.23465C20.1596 3.04797 19.8449 2.9564 19.5273 2.97831C19.2098 3.00022 18.9128 3.13399 18.6959 3.35278C18.4791 3.57158 18.3584 3.85921 18.3581 4.158C18.3579 4.45678 18.478 4.7446 18.6945 4.96374C21.5814 7.46106 23.3213 10.913 23.5472 14.5912C23.7731 18.2693 22.4672 21.8859 19.9051 24.6778C19.6935 24.9091 19.5851 25.208 19.6025 25.5124C19.6129 25.6716 19.6575 25.8271 19.7336 25.9697C19.8097 26.1123 19.9157 26.2391 20.0452 26.3423C20.2994 26.5447 20.6287 26.6445 20.9611 26.6199C21.2935 26.5953 21.602 26.4482 21.8192 26.2108Z" fill="white"/>
</svg>
