<svg width="23" height="27" viewBox="0 0 23 27" fill="none" xmlns="http://www.w3.org/2000/svg">
<path d="M11.1695 17.7514C12.0567 17.7514 12.9077 17.3426 13.5351 16.6148C14.1625 15.887 14.5149 14.9 14.5149 13.8708C14.5149 12.8416 14.1625 11.8545 13.5351 11.1268C12.9077 10.399 12.0567 9.99017 11.1695 9.99017C10.2822 9.99017 9.43128 10.399 8.80389 11.1268C8.17649 11.8545 7.82403 12.8416 7.82403 13.8708C7.82403 14.9 8.17649 15.887 8.80389 16.6148C9.43128 17.3426 10.2822 17.7514 11.1695 17.7514V17.7514ZM11.727 4.16923C11.727 3.9977 11.6683 3.83319 11.5637 3.7119C11.4592 3.5906 11.3174 3.52246 11.1695 3.52246C11.0216 3.52246 10.8798 3.5906 10.7752 3.7119C10.6706 3.83319 10.6119 3.9977 10.6119 4.16923V6.13541C9.03529 6.28836 7.55638 7.08431 6.43765 8.38201C5.31893 9.6797 4.63274 11.3952 4.50089 13.224H2.80586C2.65799 13.224 2.51617 13.2922 2.4116 13.4135C2.30704 13.5347 2.24829 13.6993 2.24829 13.8708C2.24829 14.0423 2.30704 14.2068 2.4116 14.3281C2.51617 14.4494 2.65799 14.5176 2.80586 14.5176H4.50089C4.63274 16.3464 5.31893 18.0619 6.43765 19.3596C7.55638 20.6573 9.03529 21.4532 10.6119 21.6062V23.5723C10.6119 23.7439 10.6706 23.9084 10.7752 24.0297C10.8798 24.151 11.0216 24.2191 11.1695 24.2191C11.3174 24.2191 11.4592 24.151 11.5637 24.0297C11.6683 23.9084 11.727 23.7439 11.727 23.5723V21.6062C13.3036 21.453 14.7824 20.6569 15.9011 19.3593C17.0197 18.0617 17.706 16.3463 17.8381 14.5176H19.5331C19.681 14.5176 19.8228 14.4494 19.9273 14.3281C20.0319 14.2068 20.0907 14.0423 20.0907 13.8708C20.0907 13.6993 20.0319 13.5347 19.9273 13.4135C19.8228 13.2922 19.681 13.224 19.5331 13.224H17.8381C17.7062 11.3952 17.02 9.6797 15.9013 8.38201C14.7826 7.08431 13.3037 6.28836 11.727 6.13541V4.16923ZM11.1695 20.3385C9.69069 20.3385 8.27248 19.6571 7.22683 18.4441C6.18118 17.2312 5.59373 15.5861 5.59373 13.8708C5.59373 12.1554 6.18118 10.5104 7.22683 9.29743C8.27248 8.0845 9.69069 7.40308 11.1695 7.40308C12.6483 7.40308 14.0665 8.0845 15.1121 9.29743C16.1578 10.5104 16.7452 12.1554 16.7452 13.8708C16.7452 15.5861 16.1578 17.2312 15.1121 18.4441C14.0665 19.6571 12.6483 20.3385 11.1695 20.3385Z" fill="#FF5733"/>
</svg>
