<svg width="23" height="23" viewBox="0 0 23 23" fill="none" xmlns="http://www.w3.org/2000/svg">
<path d="M11.4494 15.0908C12.302 15.0908 13.1197 14.746 13.7227 14.1323C14.3256 13.5185 14.6643 12.6861 14.6643 11.8181C14.6643 10.9501 14.3256 10.1177 13.7227 9.50392C13.1197 8.89017 12.302 8.54537 11.4494 8.54537C10.5967 8.54537 9.77898 8.89017 9.17606 9.50392C8.57314 10.1177 8.23443 10.9501 8.23443 11.8181C8.23443 12.6861 8.57314 13.5185 9.17606 14.1323C9.77898 14.746 10.5967 15.0908 11.4494 15.0908V15.0908ZM11.9852 3.63627C11.9852 3.49161 11.9287 3.35287 11.8282 3.25058C11.7278 3.14829 11.5915 3.09082 11.4494 3.09082C11.3072 3.09082 11.171 3.14829 11.0705 3.25058C10.97 3.35287 10.9135 3.49161 10.9135 3.63627V5.29446C9.39843 5.42344 7.97722 6.09471 6.90214 7.18912C5.82706 8.28353 5.16765 9.73029 5.04094 11.2726H3.41204C3.26993 11.2726 3.13365 11.3301 3.03316 11.4324C2.93267 11.5347 2.87622 11.6734 2.87622 11.8181C2.87622 11.9628 2.93267 12.1015 3.03316 12.2038C3.13365 12.3061 3.26993 12.3635 3.41204 12.3635H5.04094C5.16765 13.9059 5.82706 15.3527 6.90214 16.4471C7.97722 17.5415 9.39843 18.2127 10.9135 18.3417V19.9999C10.9135 20.1446 10.97 20.2833 11.0705 20.3856C11.171 20.4879 11.3072 20.5454 11.4494 20.5454C11.5915 20.5454 11.7278 20.4879 11.8282 20.3856C11.9287 20.2833 11.9852 20.1446 11.9852 19.9999V18.3417C13.5002 18.2125 14.9213 17.5412 15.9963 16.4468C17.0714 15.3525 17.7309 13.9058 17.8578 12.3635H19.4867C19.6288 12.3635 19.7651 12.3061 19.8656 12.2038C19.966 12.1015 20.0225 11.9628 20.0225 11.8181C20.0225 11.6734 19.966 11.5347 19.8656 11.4324C19.7651 11.3301 19.6288 11.2726 19.4867 11.2726H17.8578C17.7311 9.73029 17.0717 8.28353 15.9966 7.18912C14.9215 6.09471 13.5003 5.42344 11.9852 5.29446V3.63627ZM11.4494 17.2726C10.0283 17.2726 8.66539 16.698 7.66053 15.675C6.65567 14.6521 6.09115 13.2647 6.09115 11.8181C6.09115 10.3715 6.65567 8.98407 7.66053 7.96115C8.66539 6.93822 10.0283 6.36355 11.4494 6.36355C12.8704 6.36355 14.2333 6.93822 15.2382 7.96115C16.243 8.98407 16.8076 10.3715 16.8076 11.8181C16.8076 13.2647 16.243 14.6521 15.2382 15.675C14.2333 16.698 12.8704 17.2726 11.4494 17.2726Z" fill="#FF5733"/>
</svg>
