<svg width="26" height="27" viewBox="0 0 26 27" fill="none" xmlns="http://www.w3.org/2000/svg">
<path d="M12.9886 16.9826C14.0178 16.9826 15.0048 16.5737 15.7326 15.8459C16.4604 15.1182 16.8692 14.1311 16.8692 13.1019C16.8692 12.0727 16.4604 11.0857 15.7326 10.3579C15.0048 9.63016 14.0178 9.22131 12.9886 9.22131C11.9594 9.22131 10.9723 9.63016 10.2446 10.3579C9.51681 11.0857 9.10796 12.0727 9.10796 13.1019C9.10796 14.1311 9.51681 15.1182 10.2446 15.8459C10.9723 16.5737 11.9594 16.9826 12.9886 16.9826ZM13.6354 3.40037C13.6354 3.22884 13.5672 3.06433 13.4459 2.94304C13.3246 2.82174 13.1601 2.7536 12.9886 2.7536C12.8171 2.7536 12.6525 2.82174 12.5313 2.94304C12.41 3.06433 12.3418 3.22884 12.3418 3.40037V5.36655C10.513 5.5195 8.79749 6.31545 7.4998 7.61314C6.20211 8.91084 5.40616 10.6263 5.25321 12.4552H3.28703C3.1155 12.4552 2.95099 12.5233 2.82969 12.6446C2.7084 12.7659 2.64026 12.9304 2.64026 13.1019C2.64026 13.2735 2.7084 13.438 2.82969 13.5593C2.95099 13.6806 3.1155 13.7487 3.28703 13.7487H5.25321C5.40616 15.5775 6.20211 17.293 7.4998 18.5907C8.79749 19.8884 10.513 20.6844 12.3418 20.8373V22.8035C12.3418 22.975 12.41 23.1395 12.5313 23.2608C12.6525 23.3821 12.8171 23.4503 12.9886 23.4503C13.1601 23.4503 13.3246 23.3821 13.4459 23.2608C13.5672 23.1395 13.6354 22.975 13.6354 22.8035V20.8373C15.4641 20.6841 17.1794 19.8881 18.4771 18.5904C19.7747 17.2928 20.5708 15.5774 20.724 13.7487H22.6901C22.8617 13.7487 23.0262 13.6806 23.1475 13.5593C23.2688 13.438 23.3369 13.2735 23.3369 13.1019C23.3369 12.9304 23.2688 12.7659 23.1475 12.6446C23.0262 12.5233 22.8617 12.4552 22.6901 12.4552H20.724C20.571 10.6263 19.7751 8.91084 18.4774 7.61314C17.1797 6.31545 15.4642 5.5195 13.6354 5.36655V3.40037ZM12.9886 19.5696C11.2732 19.5696 9.62816 18.8882 8.41523 17.6753C7.2023 16.4624 6.52088 14.8173 6.52088 13.1019C6.52088 11.3866 7.2023 9.7415 8.41523 8.52857C9.62816 7.31564 11.2732 6.63422 12.9886 6.63422C14.7039 6.63422 16.349 7.31564 17.5619 8.52857C18.7749 9.7415 19.4563 11.3866 19.4563 13.1019C19.4563 14.8173 18.7749 16.4624 17.5619 17.6753C16.349 18.8882 14.7039 19.5696 12.9886 19.5696Z" fill="#FF5733"/>
</svg>
