<svg width="43" height="43" viewBox="0 0 43 43" fill="none" xmlns="http://www.w3.org/2000/svg">
<g filter="url(#filter0_b_67_438)">
<path d="M0 21.3434C0 9.55578 9.55578 0 21.3434 0C33.1311 0 42.6869 9.55578 42.6869 21.3434C42.6869 33.1311 33.1311 42.6869 21.3434 42.6869C9.55578 42.6869 0 33.1311 0 21.3434Z" fill="#FFE9E4"/>
<path d="M30.5151 15.4545C29.9852 14.9244 29.356 14.5038 28.6635 14.2169C27.971 13.9299 27.2287 13.7822 26.4791 13.7822C25.7295 13.7822 24.9873 13.9299 24.2948 14.2169C23.6023 14.5038 22.9731 14.9244 22.4432 15.4545L21.3434 16.5543L20.2436 15.4545C19.1732 14.3841 17.7214 13.7828 16.2076 13.7828C14.6938 13.7828 13.242 14.3841 12.1716 15.4545C11.1012 16.5249 10.4999 17.9767 10.4999 19.4905C10.4999 21.0043 11.1012 22.4561 12.1716 23.5265L13.2714 24.6263L21.3434 32.6983L29.4153 24.6263L30.5151 23.5265C31.0453 22.9966 31.4659 22.3674 31.7528 21.6749C32.0398 20.9824 32.1874 20.2401 32.1874 19.4905C32.1874 18.7409 32.0398 17.9987 31.7528 17.3062C31.4659 16.6137 31.0453 15.9845 30.5151 15.4545Z" fill="#FF5733"/>
</g>
<defs>
<filter id="filter0_b_67_438" x="-316.594" y="-316.594" width="675.875" height="675.875" filterUnits="userSpaceOnUse" color-interpolation-filters="sRGB">
<feFlood flood-opacity="0" result="BackgroundImageFix"/>
<feGaussianBlur in="BackgroundImageFix" stdDeviation="158.297"/>
<feComposite in2="SourceAlpha" operator="in" result="effect1_backgroundBlur_67_438"/>
<feBlend mode="normal" in="SourceGraphic" in2="effect1_backgroundBlur_67_438" result="shape"/>
</filter>
</defs>
</svg>
