<svg width="24" height="96" viewBox="0 0 24 96" fill="none" xmlns="http://www.w3.org/2000/svg">
<g clip-path="url(#clip0_217_2994)">
<path d="M17.1699 96.0002C17.0383 96.0009 16.9078 95.9757 16.786 95.9259C16.6641 95.8762 16.5533 95.8028 16.4599 95.7102L8.28989 87.5402C7.82426 87.0757 7.45483 86.524 7.20277 85.9165C6.9507 85.3091 6.82095 84.6578 6.82095 84.0002C6.82095 83.3425 6.9507 82.6913 7.20277 82.0838C7.45483 81.4764 7.82426 80.9246 8.28989 80.4602L16.4599 72.2902C16.5531 72.1969 16.6638 72.123 16.7856 72.0725C16.9075 72.0221 17.038 71.9961 17.1699 71.9961C17.3018 71.9961 17.4323 72.0221 17.5541 72.0725C17.676 72.123 17.7867 72.1969 17.8799 72.2902C17.9731 72.3834 18.0471 72.4941 18.0976 72.6159C18.148 72.7378 18.174 72.8683 18.174 73.0002C18.174 73.132 18.148 73.2626 18.0976 73.3844C18.0471 73.5063 17.9731 73.6169 17.8799 73.7102L9.70989 81.8802C9.14809 82.4427 8.83253 83.2052 8.83253 84.0002C8.83253 84.7952 9.14809 85.5577 9.70989 86.1202L17.8799 94.2902C17.9736 94.3831 18.048 94.4937 18.0988 94.6156C18.1496 94.7374 18.1757 94.8681 18.1757 95.0002C18.1757 95.1322 18.1496 95.2629 18.0988 95.3847C18.048 95.5066 17.9736 95.6172 17.8799 95.7102C17.7865 95.8028 17.6756 95.8762 17.5538 95.9259C17.432 95.9757 17.3015 96.0009 17.1699 96.0002Z" fill="#374957"/>
</g>
<defs>
<clipPath id="clip0_217_2994">
<rect width="24" height="24" fill="white" transform="translate(0 72)"/>
</clipPath>
</defs>
</svg>
