<svg width="370" height="717" viewBox="0 0 370 717" fill="none" xmlns="http://www.w3.org/2000/svg">
<g clip-path="url(#clip0_217_44677)">
<path d="M77.1699 716C77.0383 716.001 76.9078 715.976 76.786 715.926C76.6641 715.876 76.5533 715.803 76.4599 715.71L68.2899 707.54C67.8242 707.076 67.4548 706.524 67.2027 705.917C66.9507 705.309 66.8209 704.658 66.8209 704C66.8209 703.342 66.9507 702.691 67.2027 702.084C67.4548 701.476 67.8242 700.925 68.2899 700.46L76.4599 692.29C76.5531 692.197 76.6638 692.123 76.7856 692.073C76.9074 692.022 77.038 691.996 77.1699 691.996C77.3017 691.996 77.4323 692.022 77.5541 692.073C77.6759 692.123 77.7866 692.197 77.8799 692.29C77.9731 692.383 78.0471 692.494 78.0975 692.616C78.148 692.738 78.174 692.868 78.174 693C78.174 693.132 78.148 693.263 78.0975 693.384C78.0471 693.506 77.9731 693.617 77.8799 693.71L69.7099 701.88C69.1481 702.443 68.8325 703.205 68.8325 704C68.8325 704.795 69.1481 705.558 69.7099 706.12L77.8799 714.29C77.9736 714.383 78.048 714.494 78.0988 714.616C78.1495 714.737 78.1757 714.868 78.1757 715C78.1757 715.132 78.1495 715.263 78.0988 715.385C78.048 715.507 77.9736 715.617 77.8799 715.71C77.7864 715.803 77.6756 715.876 77.5538 715.926C77.4319 715.976 77.3015 716.001 77.1699 716Z" fill="#374957"/>
</g>
<g clip-path="url(#clip1_217_44677)">
<path d="M189 692C186.627 692 184.307 692.704 182.333 694.022C180.36 695.341 178.822 697.215 177.913 699.408C177.005 701.601 176.768 704.013 177.231 706.341C177.694 708.669 178.836 710.807 180.515 712.485C182.193 714.164 184.331 715.306 186.659 715.769C188.987 716.232 191.399 715.995 193.592 715.087C195.785 714.178 197.659 712.64 198.978 710.667C200.296 708.693 201 706.373 201 704C200.997 700.818 199.731 697.768 197.481 695.519C195.232 693.269 192.182 692.003 189 692V692ZM189 714C187.022 714 185.089 713.414 183.444 712.315C181.8 711.216 180.518 709.654 179.761 707.827C179.004 706 178.806 703.989 179.192 702.049C179.578 700.109 180.53 698.327 181.929 696.929C183.327 695.53 185.109 694.578 187.049 694.192C188.989 693.806 191 694.004 192.827 694.761C194.654 695.518 196.216 696.8 197.315 698.444C198.414 700.089 199 702.022 199 704C198.997 706.651 197.943 709.193 196.068 711.068C194.193 712.943 191.651 713.997 189 714Z" fill="#374957"/>
</g>
<g clip-path="url(#clip2_217_44677)">
<path d="M317 703H295C294.448 703 294 703.447 294 704C294 704.552 294.448 705 295 705H317C317.552 705 318 704.552 318 704C318 703.447 317.552 703 317 703Z" fill="#374957"/>
<path d="M317 696H295C294.448 696 294 696.448 294 697C294 697.553 294.448 698 295 698H317C317.552 698 318 697.553 318 697C318 696.448 317.552 696 317 696Z" fill="#374957"/>
<path d="M317 710H295C294.448 710 294 710.448 294 711C294 711.552 294.448 712 295 712H317C317.552 712 318 711.552 318 711C318 710.448 317.552 710 317 710Z" fill="#374957"/>
</g>
<defs>
<clipPath id="clip0_217_44677">
<rect width="24" height="24" fill="white" transform="translate(60 692)"/>
</clipPath>
<clipPath id="clip1_217_44677">
<rect width="24" height="24" fill="white" transform="translate(177 692)"/>
</clipPath>
<clipPath id="clip2_217_44677">
<rect width="24" height="24" fill="white" transform="translate(294 692)"/>
</clipPath>
</defs>
</svg>
