<svg width="17" height="20" viewBox="0 0 17 20" fill="none" xmlns="http://www.w3.org/2000/svg">
<path d="M8.73873 18.6236C4.92882 18.6236 1.83984 16.3969 1.83984 12.587V12.5111C1.83984 10.6847 2.86519 9.22382 4.42693 8.27523C5.92053 7.36802 6.80445 5.69677 6.58283 3.96342L6.15165 1.37634L7.75046 2.06192C10.6303 3.29594 13.0293 5.43517 14.5838 8.15536C15.2745 9.36427 15.6377 10.7325 15.6376 12.1248V12.587C15.6376 13.934 15.2513 15.0836 14.5838 16.0063" stroke="white" stroke-width="1.72472" stroke-linecap="round" stroke-linejoin="round"/>
<path d="M8.73875 18.6236C7.30982 18.6236 6.15167 17.3879 6.15167 15.8641C6.15167 14.6568 7.02783 13.6901 7.79878 12.8044L8.73875 11.7247L9.67873 12.8044C10.4497 13.6909 11.3258 14.6568 11.3258 15.8641C11.3258 17.3879 10.1677 18.6236 8.73875 18.6236Z" stroke="white" stroke-width="1.72472" stroke-linecap="round" stroke-linejoin="round"/>
</svg>
