<svg width="17" height="20" viewBox="0 0 17 20" fill="none" xmlns="http://www.w3.org/2000/svg">
<path d="M8.66012 18.6687C4.85021 18.6687 1.76123 16.4421 1.76123 12.6322V12.5563C1.76123 10.7298 2.78658 9.26899 4.34831 8.32039C5.84192 7.41319 6.72584 5.74194 6.50421 4.00859L6.07303 1.42151L7.67185 2.10709C10.5517 3.34111 12.9506 5.48034 14.5052 8.20053C15.1959 9.40943 15.5591 10.7777 15.559 12.17V12.6322C15.559 13.9792 15.1727 15.1287 14.5052 16.0515" stroke="white" stroke-width="1.72472" stroke-linecap="round" stroke-linejoin="round"/>
<path d="M8.66008 18.6688C7.23115 18.6688 6.073 17.433 6.073 15.9092C6.073 14.7019 6.94916 13.7352 7.72011 12.8496L8.66008 11.7699L9.60005 12.8496C10.371 13.7361 11.2472 14.7019 11.2472 15.9092C11.2472 17.433 10.089 18.6688 8.66008 18.6688Z" stroke="white" stroke-width="1.72472" stroke-linecap="round" stroke-linejoin="round"/>
</svg>
