<svg width="17" height="20" viewBox="0 0 17 20" fill="none" xmlns="http://www.w3.org/2000/svg">
<path d="M8.66012 18.9719C4.85021 18.9719 1.76123 16.7453 1.76123 12.9354V12.8595C1.76123 11.0331 2.78658 9.57221 4.34831 8.62362C5.84192 7.71641 6.72584 6.04516 6.50421 4.31181L6.07303 1.72473L7.67185 2.41031C10.5517 3.64433 12.9506 5.78356 14.5052 8.50375C15.1959 9.71265 15.5591 11.0809 15.559 12.4732V12.9354C15.559 14.2824 15.1727 15.432 14.5052 16.3547" stroke="white" stroke-width="1.72472" stroke-linecap="round" stroke-linejoin="round"/>
<path d="M8.66008 18.972C7.23115 18.972 6.073 17.7362 6.073 16.2125C6.073 15.0051 6.94916 14.0384 7.72011 13.1528L8.66008 12.0731L9.60005 13.1528C10.371 14.0393 11.2472 15.0051 11.2472 16.2125C11.2472 17.7362 10.089 18.972 8.66008 18.972Z" stroke="white" stroke-width="1.72472" stroke-linecap="round" stroke-linejoin="round"/>
</svg>
