<svg width="17" height="20" viewBox="0 0 17 20" fill="none" xmlns="http://www.w3.org/2000/svg">
<path d="M8.66012 18.6236C4.85021 18.6236 1.76123 16.3969 1.76123 12.587V12.5111C1.76123 10.6847 2.78658 9.22382 4.34831 8.27523C5.84192 7.36802 6.72584 5.69677 6.50421 3.96342L6.07303 1.37634L7.67185 2.06192C10.5517 3.29594 12.9506 5.43517 14.5052 8.15536C15.1959 9.36427 15.5591 10.7325 15.559 12.1248V12.587C15.559 13.934 15.1727 15.0836 14.5052 16.0063" stroke="#6A778B" stroke-width="1.72472" stroke-linecap="round" stroke-linejoin="round"/>
<path d="M8.66008 18.6236C7.23115 18.6236 6.073 17.3879 6.073 15.8641C6.073 14.6568 6.94916 13.6901 7.72011 12.8044L8.66008 11.7247L9.60005 12.8044C10.371 13.6909 11.2472 14.6568 11.2472 15.8641C11.2472 17.3879 10.089 18.6236 8.66008 18.6236Z" stroke="#6A778B" stroke-width="1.72472" stroke-linecap="round" stroke-linejoin="round"/>
</svg>
