<svg width="17" height="20" viewBox="0 0 17 20" fill="none" xmlns="http://www.w3.org/2000/svg">
<path d="M8.66012 18.3654C4.85021 18.3654 1.76123 16.1388 1.76123 12.3289V12.253C1.76123 10.4265 2.78658 8.96565 4.34831 8.01705C5.84192 7.10985 6.72584 5.43859 6.50421 3.70525L6.07303 1.11816L7.67185 1.80374C10.5517 3.03776 12.9506 5.17699 14.5052 7.89718C15.1959 9.10609 15.5591 10.4743 15.559 11.8666V12.3289C15.559 13.6759 15.1727 14.8254 14.5052 15.7481" stroke="#6A778B" stroke-width="1.72472" stroke-linecap="round" stroke-linejoin="round"/>
<path d="M8.66008 18.3654C7.23115 18.3654 6.073 17.1297 6.073 15.6059C6.073 14.3986 6.94916 13.4319 7.72011 12.5462L8.66008 11.4666L9.60005 12.5462C10.371 13.4327 11.2472 14.3986 11.2472 15.6059C11.2472 17.1297 10.089 18.3654 8.66008 18.3654Z" stroke="#6A778B" stroke-width="1.72472" stroke-linecap="round" stroke-linejoin="round"/>
</svg>
