<svg width="15" height="14" viewBox="0 0 15 14" fill="none" xmlns="http://www.w3.org/2000/svg">
<g clip-path="url(#clip0_67_375)">
<path d="M12.8129 2.79967C12.5232 2.5244 12.1792 2.30604 11.8005 2.15706C11.4219 2.00808 11.0161 1.9314 10.6062 1.9314C10.1964 1.9314 9.79052 2.00808 9.41188 2.15706C9.03325 2.30604 8.68923 2.5244 8.39949 2.79967L7.79818 3.37068L7.19686 2.79967C6.6116 2.24391 5.81783 1.93168 4.99015 1.93168C4.16247 1.93168 3.36869 2.24391 2.78344 2.79967C2.19818 3.35543 1.86938 4.10921 1.86938 4.89518C1.86938 5.68114 2.19818 6.43492 2.78344 6.99068L3.38475 7.5617L7.79818 11.7527L12.2116 7.5617L12.8129 6.99068C13.1028 6.71554 13.3327 6.38887 13.4896 6.02931C13.6465 5.66976 13.7273 5.28437 13.7273 4.89518C13.7273 4.50598 13.6465 4.1206 13.4896 3.76104C13.3327 3.40149 13.1028 3.07481 12.8129 2.79967V2.79967Z" stroke="white" stroke-width="1.52137" stroke-linecap="round" stroke-linejoin="round"/>
</g>
<defs>
<clipPath id="clip0_67_375">
<rect width="13.6147" height="12.9286" fill="white" transform="translate(0.990723 0.316345)"/>
</clipPath>
</defs>
</svg>
