<svg width="19" height="12" viewBox="0 0 19 12" fill="none" xmlns="http://www.w3.org/2000/svg">
<path d="M10.7994 3C10.7994 2.44772 11.2472 2 11.7994 2H12.7994C13.3517 2 13.7994 2.44772 13.7994 3V11C13.7994 11.5523 13.3517 12 12.7994 12H11.7994C11.2472 12 10.7994 11.5523 10.7994 11V3Z" fill="black"/>
<path d="M15.7994 1C15.7994 0.447715 16.2472 0 16.7994 0H17.7994C18.3517 0 18.7994 0.447715 18.7994 1V11C18.7994 11.5523 18.3517 12 17.7994 12H16.7994C16.2472 12 15.7994 11.5523 15.7994 11V1Z" fill="black"/>
<path d="M5.79944 6.5C5.79944 5.94772 6.24715 5.5 6.79944 5.5H7.79944C8.35172 5.5 8.79944 5.94772 8.79944 6.5V11C8.79944 11.5523 8.35172 12 7.79944 12H6.79944C6.24715 12 5.79944 11.5523 5.79944 11V6.5Z" fill="black"/>
<path d="M0.799438 9C0.799438 8.44772 1.24715 8 1.79944 8H2.79944C3.35172 8 3.79944 8.44772 3.79944 9V11C3.79944 11.5523 3.35172 12 2.79944 12H1.79944C1.24715 12 0.799438 11.5523 0.799438 11V9Z" fill="black"/>
</svg>
