<svg width="19" height="13" viewBox="0 0 19 13" fill="none" xmlns="http://www.w3.org/2000/svg">
<path d="M10.7994 3.08423C10.7994 2.53194 11.2471 2.08423 11.7994 2.08423H12.7994C13.3517 2.08423 13.7994 2.53194 13.7994 3.08423V11.0842C13.7994 11.6365 13.3517 12.0842 12.7994 12.0842H11.7994C11.2471 12.0842 10.7994 11.6365 10.7994 11.0842V3.08423Z" fill="black"/>
<path d="M15.7994 1.08423C15.7994 0.531944 16.2471 0.0842285 16.7994 0.0842285H17.7994C18.3517 0.0842285 18.7994 0.531944 18.7994 1.08423V11.0842C18.7994 11.6365 18.3517 12.0842 17.7994 12.0842H16.7994C16.2471 12.0842 15.7994 11.6365 15.7994 11.0842V1.08423Z" fill="black"/>
<path d="M5.7994 6.58423C5.7994 6.03194 6.24712 5.58423 6.7994 5.58423H7.7994C8.35169 5.58423 8.7994 6.03194 8.7994 6.58423V11.0842C8.7994 11.6365 8.35169 12.0842 7.7994 12.0842H6.7994C6.24712 12.0842 5.7994 11.6365 5.7994 11.0842V6.58423Z" fill="black"/>
<path d="M0.799404 9.08423C0.799404 8.53194 1.24712 8.08423 1.7994 8.08423H2.7994C3.35169 8.08423 3.7994 8.53194 3.7994 9.08423V11.0842C3.7994 11.6365 3.35169 12.0842 2.7994 12.0842H1.7994C1.24712 12.0842 0.799404 11.6365 0.799404 11.0842V9.08423Z" fill="black"/>
</svg>
