<svg width="19" height="12" viewBox="0 0 19 12" fill="none" xmlns="http://www.w3.org/2000/svg">
<path d="M10.7994 3C10.7994 2.44772 11.2471 2 11.7994 2H12.7994C13.3517 2 13.7994 2.44772 13.7994 3V11C13.7994 11.5523 13.3517 12 12.7994 12H11.7994C11.2471 12 10.7994 11.5523 10.7994 11V3Z" fill="black"/>
<path d="M15.7994 1C15.7994 0.447715 16.2471 0 16.7994 0H17.7994C18.3517 0 18.7994 0.447715 18.7994 1V11C18.7994 11.5523 18.3517 12 17.7994 12H16.7994C16.2471 12 15.7994 11.5523 15.7994 11V1Z" fill="black"/>
<path d="M5.7994 6.5C5.7994 5.94772 6.24712 5.5 6.7994 5.5H7.7994C8.35169 5.5 8.7994 5.94772 8.7994 6.5V11C8.7994 11.5523 8.35169 12 7.7994 12H6.7994C6.24712 12 5.7994 11.5523 5.7994 11V6.5Z" fill="black"/>
<path d="M0.799404 9C0.799404 8.44772 1.24712 8 1.7994 8H2.7994C3.35169 8 3.7994 8.44772 3.7994 9V11C3.7994 11.5523 3.35169 12 2.7994 12H1.7994C1.24712 12 0.799404 11.5523 0.799404 11V9Z" fill="black"/>
</svg>
