<svg width="12" height="19" viewBox="0 0 12 19" fill="none" xmlns="http://www.w3.org/2000/svg">
<path d="M5.65939 0.0407715C2.53323 0.0407715 0.000152588 2.56366 0.000152588 5.68869C0.000152588 11.0921 5.65939 18.139 5.65939 18.139C5.65939 18.139 11.3186 11.091 11.3186 5.68869C11.3186 2.56479 8.78556 0.0407715 5.65939 0.0407715ZM5.65939 8.81373C4.8489 8.81373 4.07159 8.49176 3.49848 7.91865C2.92537 7.34554 2.6034 6.56824 2.6034 5.75774C2.6034 4.94724 2.92537 4.16994 3.49848 3.59683C4.07159 3.02372 4.8489 2.70175 5.65939 2.70175C6.46989 2.70175 7.2472 3.02372 7.82031 3.59683C8.39342 4.16994 8.71538 4.94724 8.71538 5.75774C8.71538 6.56824 8.39342 7.34554 7.82031 7.91865C7.2472 8.49176 6.46989 8.81373 5.65939 8.81373Z" fill="#FF9680"/>
</svg>
