<svg width="13" height="22" viewBox="0 0 13 22" fill="none" xmlns="http://www.w3.org/2000/svg">
<path d="M6.5 0.779175C2.9094 0.779175 0 3.6715 0 7.25415C0 13.4488 6.5 21.5276 6.5 21.5276C6.5 21.5276 13 13.4475 13 7.25415C13 3.6728 10.0906 0.779175 6.5 0.779175ZM6.5 10.8368C5.56909 10.8368 4.67631 10.4677 4.01805 9.81065C3.3598 9.15361 2.99 8.26249 2.99 7.3333C2.99 6.40412 3.3598 5.51299 4.01805 4.85596C4.67631 4.19893 5.56909 3.82981 6.5 3.82981C7.43091 3.82981 8.32369 4.19893 8.98194 4.85596C9.6402 5.51299 10.01 6.40412 10.01 7.3333C10.01 8.26249 9.6402 9.15361 8.98194 9.81065C8.32369 10.4677 7.43091 10.8368 6.5 10.8368Z" fill="#FF9680"/>
</svg>
