<svg width="17" height="18" viewBox="0 0 17 18" fill="none" xmlns="http://www.w3.org/2000/svg">
<path d="M8.5 0.000244141C3.8046 0.000244141 0 2.50944 0 5.6175C0 10.9916 8.5 18.0002 8.5 18.0002C8.5 18.0002 17 10.9905 17 5.6175C17 2.51056 13.1954 0.000244141 8.5 0.000244141ZM8.5 8.72557C7.28266 8.72557 6.11517 8.40535 5.25438 7.83535C4.39359 7.26536 3.91 6.49227 3.91 5.68617C3.91 4.88007 4.39359 4.10699 5.25438 3.53699C6.11517 2.96699 7.28266 2.64677 8.5 2.64677C9.71734 2.64677 10.8848 2.96699 11.7456 3.53699C12.6064 4.10699 13.09 4.88007 13.09 5.68617C13.09 6.49227 12.6064 7.26536 11.7456 7.83535C10.8848 8.40535 9.71734 8.72557 8.5 8.72557Z" fill="#FF9680"/>
</svg>
