<svg width="17" height="18" viewBox="0 0 17 18" fill="none" xmlns="http://www.w3.org/2000/svg">
<path d="M8.49976 0.00012207C3.80436 0.00012207 -0.000244141 2.50932 -0.000244141 5.61738C-0.000244141 10.9915 8.49976 18.0001 8.49976 18.0001C8.49976 18.0001 16.9998 10.9904 16.9998 5.61738C16.9998 2.51044 13.1952 0.00012207 8.49976 0.00012207ZM8.49976 8.72545C7.28241 8.72545 6.11493 8.40523 5.25414 7.83523C4.39334 7.26523 3.90976 6.49215 3.90976 5.68605C3.90976 4.87995 4.39334 4.10687 5.25414 3.53687C6.11493 2.96687 7.28241 2.64665 8.49976 2.64665C9.7171 2.64665 10.8846 2.96687 11.7454 3.53687C12.6062 4.10687 13.0898 4.87995 13.0898 5.68605C13.0898 6.49215 12.6062 7.26523 11.7454 7.83523C10.8846 8.40523 9.7171 8.72545 8.49976 8.72545Z" fill="#FF9680"/>
</svg>
