<svg width="20" height="14" viewBox="0 0 20 14" fill="none" xmlns="http://www.w3.org/2000/svg">
<path d="M19.2757 4.89238L13.3042 4.28705L10.6348 0.512345C10.5619 0.408996 10.442 0.325333 10.2938 0.274478C9.9222 0.146522 9.47063 0.253152 9.28483 0.512345L6.61541 4.28705L0.643916 4.89238C0.479283 4.90879 0.32876 4.96292 0.213517 5.04495C0.0741935 5.14483 -0.00257983 5.2792 6.61967e-05 5.41855C0.00271222 5.55789 0.0845612 5.6908 0.227628 5.78808L4.54809 8.72614L3.52736 12.8749C3.50342 12.9714 3.51873 13.0706 3.57155 13.1614C3.62438 13.2521 3.7126 13.3307 3.82621 13.3883C3.93983 13.4459 4.07429 13.4801 4.21435 13.487C4.35441 13.494 4.49447 13.4734 4.61864 13.4277L9.95983 11.469L15.301 13.4277C15.4468 13.4818 15.6162 13.4999 15.7785 13.4802C16.1877 13.431 16.4629 13.1603 16.3923 12.8749L15.3716 8.72614L19.692 5.78808C19.8096 5.70769 19.8872 5.6027 19.9108 5.48787C19.9743 5.20079 19.6873 4.93503 19.2757 4.89238Z" fill="#FF5733"/>
</svg>
