<svg width="20" height="14" viewBox="0 0 20 14" fill="none" xmlns="http://www.w3.org/2000/svg">
<path d="M19.2757 4.89232L13.3042 4.28699L10.6348 0.512284C10.5619 0.408935 10.442 0.325272 10.2938 0.274417C9.9222 0.146461 9.47063 0.253091 9.28483 0.512284L6.61541 4.28699L0.643916 4.89232C0.479283 4.90873 0.32876 4.96286 0.213517 5.04488C0.0741935 5.14477 -0.00257983 5.27914 6.61967e-05 5.41849C0.00271222 5.55783 0.0845612 5.69074 0.227628 5.78801L4.54809 8.72608L3.52736 12.8748C3.50342 12.9713 3.51873 13.0706 3.57155 13.1613C3.62438 13.2521 3.7126 13.3307 3.82621 13.3882C3.93983 13.4458 4.07429 13.48 4.21435 13.487C4.35441 13.4939 4.49447 13.4734 4.61864 13.4277L9.95983 11.4689L15.301 13.4277C15.4468 13.4818 15.6162 13.4998 15.7785 13.4801C16.1877 13.4309 16.4629 13.1603 16.3923 12.8748L15.3716 8.72608L19.692 5.78801C19.8096 5.70763 19.8872 5.60264 19.9108 5.48781C19.9743 5.20073 19.6873 4.93497 19.2757 4.89232Z" fill="#FF5733"/>
</svg>
