<svg width="20" height="16" viewBox="0 0 20 16" fill="none" xmlns="http://www.w3.org/2000/svg">
<path d="M18.6897 5.56877L12.8998 4.84747L10.3115 0.349657C10.2408 0.226509 10.1245 0.126818 9.98088 0.0662221C9.62057 -0.0862463 9.18274 0.0408107 9.00258 0.349657L6.41433 4.84747L0.624399 5.56877C0.464771 5.58831 0.318825 5.65282 0.207086 5.75055C0.0719987 5.86957 -0.00244035 6.02969 0.000125219 6.19573C0.00269079 6.36176 0.0820511 6.52014 0.220768 6.63604L4.40986 10.137L3.42017 15.0804C3.39696 15.1954 3.4118 15.3137 3.46302 15.4218C3.51424 15.53 3.59978 15.6236 3.70993 15.6922C3.82009 15.7608 3.95047 15.8016 4.08627 15.8099C4.22208 15.8182 4.35788 15.7937 4.47827 15.7392L9.65706 13.4052L14.8358 15.7392C14.9772 15.8037 15.1414 15.8252 15.2988 15.8017C15.6956 15.7431 15.9624 15.4206 15.894 15.0804L14.9043 10.137L19.0933 6.63604C19.2074 6.54026 19.2826 6.41516 19.3054 6.27833C19.367 5.93625 19.0888 5.61959 18.6897 5.56877Z" fill="#FF5733"/>
</svg>
