<svg width="306" height="280" viewBox="0 0 306 280" fill="none" xmlns="http://www.w3.org/2000/svg">
<g clip-path="url(#clip0_1_158)">
<path d="M153 279.999C237.223 279.999 305.5 273.638 305.5 265.791C305.5 257.944 237.223 251.583 153 251.583C68.7766 251.583 0.5 257.944 0.5 265.791C0.5 273.638 68.7766 279.999 153 279.999Z" fill="#3E548D" fill-opacity="0.12"/>
<path d="M262.538 64.491C262.938 61.8089 258.812 59.6026 255.709 59.3734C254.23 59.2643 252.693 59.4715 251.29 59.0233C248.253 58.0535 247.04 54.4566 244.076 53.3108C241.861 52.4546 239.31 53.2191 237.162 54.2072C235.014 55.1954 232.892 56.4457 230.492 56.5905C228.404 56.7133 226.138 56.0039 224.312 56.9388C222.951 57.6346 222.238 59.0728 220.984 59.9197C219.678 60.6579 218.167 61.0336 216.634 61.0014C215.106 60.9671 213.585 61.195 212.149 61.6733C211.436 61.9278 210.833 62.3866 210.428 62.9813C210.023 63.576 209.839 64.2747 209.903 64.9732L262.538 64.491Z" fill="#F5F5F5"/>
<path d="M174.869 69.0332C174.301 67.5189 173.853 65.9687 173.53 64.395C173.449 63.97 173.272 63.5654 173.01 63.2074C172.747 62.8493 172.406 62.546 172.007 62.317C171.41 62.1533 170.802 62.0271 170.187 61.9393C168.047 61.3518 167.463 58.6129 165.437 57.7631C164.783 57.54 164.096 57.4092 163.399 57.3754C160.686 57.0821 157.882 56.2213 156.176 54.2698C155.689 53.5905 155.13 52.9576 154.505 52.3806C154.18 52.1005 153.763 51.9278 153.319 51.8899C152.875 51.852 152.43 51.9512 152.055 52.1716C152.627 53.2203 153.188 54.2698 153.749 55.3084C154.194 56.2826 154.839 57.1694 155.649 57.9208C156.062 58.2911 156.582 58.5467 157.147 58.6581C157.712 58.7695 158.3 58.7322 158.843 58.5505C159.16 58.3461 159.533 58.2262 159.92 58.204C160.2 58.257 160.45 58.4029 160.62 58.6138C162.097 60.1143 161.62 62.6011 160.174 64.1329C158.728 65.6646 156.614 66.451 154.564 67.1963C153.856 67.5214 153.064 67.6631 152.275 67.606C150.856 67.3649 150.1 65.9478 149.688 64.6783C148.761 61.866 148.315 58.8118 146.414 56.4413C145.727 55.7506 145.146 54.9775 144.686 54.1433C144.297 53.1992 144.386 52.0965 143.77 51.2678C143.128 50.397 141.77 49.8929 141.67 48.8442C141.689 48.4723 141.825 48.1135 142.063 47.8116C142.301 47.5098 142.63 47.2781 143.009 47.1448C143.742 46.8194 144.566 46.725 145.322 46.4417C145.622 46.3262 145.951 46.1273 145.963 45.8331C145.963 45.3922 145.299 45.2144 145.127 44.8046C144.944 44.3463 145.459 43.9127 145.676 43.4617C146.146 42.4333 144.976 41.3947 143.845 40.9749C142.714 40.5551 141.361 40.2508 140.834 39.2434C140.642 38.7596 140.519 38.2553 140.468 37.7428C140.365 37.0989 140.055 36.4977 139.578 36.0156C139.101 35.5335 138.478 35.1922 137.789 35.0351C137.444 34.9839 137.092 35.0034 136.756 35.0923C136.421 35.1811 136.111 35.3371 135.849 35.5489C135.588 35.7608 135.38 36.0232 135.243 36.3173C135.105 36.6114 135.04 36.9299 135.053 37.2497C135.311 37.9169 135.653 38.5542 136.072 39.149C136.392 39.7988 136.3 40.765 135.572 40.9749C134.372 41.3104 133.214 39.2956 132.207 39.9877C132.619 41.2783 133.02 42.5698 133.432 43.8706C131.852 44.6039 129.963 43.272 129.288 41.7623C128.613 40.2526 128.588 38.5412 127.788 37.092C126.988 35.6428 124.823 34.5529 123.449 35.5814C123.381 37.4495 126.071 38.2048 127.261 39.7154C127.481 39.9811 127.642 40.284 127.734 40.6067C127.826 40.9294 127.848 41.2657 127.798 41.5962C127.748 41.9266 127.627 42.2448 127.443 42.5323C127.258 42.8199 127.014 43.0713 126.723 43.272C125.464 43.9641 123.461 42.7578 123.941 41.4882C124.113 41.0473 124.514 40.6797 124.559 40.2049C124.605 39.6174 124.067 39.1453 123.575 38.7676C122.808 38.1691 122.041 37.5824 121.275 36.9949C120.804 36.5821 120.247 36.2609 119.637 36.0507C118.058 35.6309 116.478 36.806 115.642 38.0967C114.806 39.3873 114.337 40.919 113.181 42.0006C112.765 42.3852 112.27 42.6908 111.724 42.9C111.179 43.1092 110.594 43.2178 110.003 43.2198C109.412 43.2218 108.826 43.117 108.28 42.9114C107.733 42.7058 107.235 42.4035 106.816 42.0217C105.248 40.3717 106.049 37.29 108.35 36.6914C109.219 36.4705 110.319 36.4916 110.777 35.7886C111.577 34.5401 109.289 32.947 110.077 31.6866C110.683 30.7214 112.286 31.1614 113.454 30.836C114.622 30.5106 115.263 29.4408 115.954 28.5178C116.645 27.5947 117.694 26.6845 118.884 26.9228C118.723 26.2886 118.767 25.6253 119.01 25.0135C119.078 24.8657 119.178 24.7324 119.305 24.6217C119.432 24.5111 119.582 24.4256 119.746 24.3704C119.91 24.3153 120.085 24.2918 120.26 24.3013C120.434 24.3109 120.605 24.3533 120.761 24.4259C120.652 24.6614 120.594 24.9144 120.592 25.1704C120.59 25.4263 120.643 25.68 120.749 25.9171C120.854 26.1541 121.009 26.3697 121.206 26.5514C121.402 26.7331 121.636 26.8774 121.894 26.976C122.961 27.328 124.114 27.4041 125.225 27.196C126.347 27.0704 127.755 26.6928 127.847 25.6643C127.881 25.3279 127.747 24.9713 127.881 24.656C128.373 23.4286 130.846 25.1143 131.796 24.1308C132.345 23.6165 131.739 22.7035 130.972 22.5367C130.196 22.4724 129.414 22.5076 128.648 22.6412C127.87 22.6724 126.919 22.2947 126.885 21.5816C126.851 20.8684 127.709 20.3744 127.801 19.6823C127.95 18.5063 125.775 18.2029 125.007 19.1571C124.239 20.1113 124.515 21.4239 124.744 22.588C124.973 23.7522 125.098 25.1271 124.16 25.9466C123.76 26.503 122.718 26.2088 122.374 25.6212C122.113 24.9959 122 24.327 122.042 23.6587C122.056 23.3222 121.96 22.9897 121.766 22.7037C121.572 22.4177 121.289 22.1913 120.954 22.0537C120.44 22.0128 119.922 22.0664 119.431 22.2113C117.439 22.4313 116.054 20.071 116.684 18.3293C117.314 16.5877 119.111 15.4539 120.862 14.562C122.145 13.9112 123.736 13.3025 125.006 13.9634C125.606 14.2677 126.014 14.7884 126.598 15.1074C127.605 15.6573 128.853 15.4539 130.009 15.474C131.842 15.5204 133.602 16.1467 134.989 17.2468C135.504 17.6767 135.989 18.3908 135.589 18.905C135.154 19.455 133.906 19.5668 134.124 20.2057C134.461 20.2913 134.813 20.3107 135.159 20.2628C135.504 20.2149 135.834 20.1006 136.128 19.9276C136.422 19.7545 136.673 19.5266 136.864 19.2586C137.055 18.9906 137.183 18.6886 137.238 18.3724C137.569 18.5125 137.853 18.7296 138.064 19.002C138.275 19.2745 138.404 19.5928 138.438 19.9252C138.815 19.6065 139.26 19.3629 139.744 19.2098C140.229 19.0567 140.743 18.9975 141.254 19.036C141.765 19.0744 142.262 19.2096 142.713 19.433C143.164 19.6565 143.56 19.9633 143.875 20.334C144.133 20.7803 144.474 21.1815 144.883 21.5193C145.341 21.7942 146.142 21.6558 146.2 21.1627C146.209 21.0054 146.177 20.8485 146.108 20.7044C145.833 19.9912 145.547 19.2882 145.272 18.5842C146.337 18.0599 147.596 18.8784 148.317 19.7602C150.996 23.0445 152.907 21.0719 156.684 21.6063C159.237 21.9629 160.359 23.4634 161.801 25.2793C166.22 30.8616 172.058 35.4366 176.076 41.2701C176.499 41.8787 176.889 42.4974 177.255 43.1272C177.187 42.9695 177.13 42.8128 177.061 42.6551C175.491 38.8685 173.537 35.2256 171.223 31.7746C170.731 31.0413 170.227 30.3175 169.712 29.6031C169.392 29.1622 169.059 28.7112 168.728 28.2804C168.305 27.7139 167.858 27.1685 167.411 26.6222C167.056 26.1813 166.702 25.7514 166.335 25.3315C166.083 25.0382 165.82 24.744 165.557 24.4497C165.283 24.1143 164.985 23.7888 164.664 23.4634L163.702 22.446C163.605 22.336 163.502 22.231 163.393 22.1316C163.061 21.775 162.706 21.4285 162.351 21.082C162.327 21.0403 162.293 21.0044 162.251 20.9775C162.159 20.8859 162.056 20.7887 161.951 20.6943C161.664 20.401 161.351 20.1177 161.058 19.8345C160.566 19.3761 160.058 18.9105 159.547 18.4705C159.124 18.0828 158.689 17.7152 158.242 17.3485C157.853 17.0231 157.464 16.6977 157.063 16.3833C156.662 16.0689 156.285 15.7646 155.884 15.4594C155.403 15.0817 154.911 14.7141 154.407 14.3475H154.395C153.01 13.33 151.583 12.3681 150.114 11.4619C149.748 11.2309 149.393 11.0109 149.026 10.79C148.659 10.5691 148.282 10.3491 147.916 10.1392C147.55 9.92927 147.172 9.70928 146.794 9.50945C146.416 9.28946 146.038 9.08963 145.661 8.89072C145.352 8.72298 145.054 8.56532 144.745 8.41865C144.594 8.33013 144.437 8.24964 144.276 8.17758C143.623 7.84117 142.96 7.51577 142.296 7.21236C141.964 7.0547 141.632 6.89795 141.288 6.75404C140.865 6.55421 140.43 6.3663 139.995 6.18756C139.934 6.15349 139.869 6.12523 139.801 6.10323C139.412 5.93548 139.023 5.76774 138.622 5.61008C138.061 5.38917 137.5 5.16917 136.939 4.95926C136.298 4.71819 135.656 4.47619 135.004 4.2562C134.283 4.00412 133.562 3.76305 132.83 3.54306C132.098 3.32306 131.353 3.09207 130.609 2.88124C129.865 2.67042 129.121 2.48251 128.365 2.29368C126.877 1.92702 125.365 1.60162 123.844 1.31838C123.821 1.30738 123.787 1.30737 123.763 1.29729C123.18 1.19279 122.595 1.0883 122.012 1.00397C121.975 0.992828 121.936 0.985753 121.897 0.982885C121.645 0.940719 121.382 0.899471 121.119 0.867389C120.032 0.699644 118.933 0.563065 117.819 0.447568C117.693 0.426486 117.556 0.416401 117.419 0.405402C117.098 0.363236 116.778 0.343072 116.446 0.313739C115.714 0.251408 114.981 0.198242 114.237 0.156077C113.47 0.103828 112.692 0.072664 111.913 0.0515813C111.1 0.0204156 110.288 0.00941467 109.475 0.00941467C107.322 0.00941467 105.193 0.0968002 103.087 0.271573C102.587 0.303655 102.087 0.345821 101.599 0.397153C101.083 0.449401 100.568 0.502565 100.054 0.564897C99.54 0.627228 99.023 0.690478 98.52 0.764726C98.017 0.838974 97.501 0.911387 96.986 0.995718C96.551 1.05897 96.105 1.1323 95.67 1.21663C94.594 1.40546 93.5293 1.61537 92.476 1.84636C91.9833 1.95086 91.491 2.06635 90.999 2.19285C90.507 2.30834 90.015 2.43392 89.534 2.5595C88.721 2.7685 87.934 3.0004 87.141 3.2314H87.129C86.488 3.43122 85.836 3.63014 85.206 3.82996C85.1886 3.83247 85.1726 3.83983 85.16 3.85104C84.507 4.06095 83.878 4.28095 83.237 4.51194L83.137 4.54402C82.554 4.75302 81.969 4.97393 81.398 5.19392C80.676 5.46891 79.967 5.7604 79.269 6.05465C78.669 6.3058 78.09 6.55788 77.517 6.82004C76.899 7.10328 76.281 7.38652 75.674 7.68076L75.606 7.71193C75.022 7.99517 74.438 8.28849 73.866 8.59281C73.266 8.89714 72.687 9.21246 72.103 9.54795H72.091C71.542 9.85227 71.003 10.1557 70.466 10.471C70.259 10.5865 70.066 10.7121 69.859 10.8377C69.286 11.1741 68.737 11.5196 68.176 11.8762C67.489 12.3061 66.825 12.7571 66.162 13.209C65.578 13.6077 65.006 14.0175 64.445 14.4263C61.2056 16.7902 58.1944 19.4055 55.445 22.2434C54.472 23.2297 53.556 24.2371 52.663 25.2683C51.907 26.1501 51.175 27.042 50.476 27.9651C49.8466 28.7674 49.2393 29.5851 48.654 30.418C49.2393 29.5869 49.8466 28.7692 50.476 27.9651C50.659 27.944 50.843 27.9229 51.026 27.9128C52.0626 27.935 53.0948 27.7822 54.071 27.4618C54.8635 26.9849 55.6138 26.4516 56.315 25.8669C58.307 24.5662 61.57 24.3242 62.108 22.1416C62.1369 21.3919 62.2248 20.645 62.371 19.9069C62.933 18.5952 64.844 18.4063 66.378 18.4274C67.031 18.4274 67.797 18.5108 68.095 19.0352C68.1771 19.2312 68.2134 19.4407 68.2017 19.6504C68.19 19.8601 68.1305 20.0652 68.027 20.2525C67.0683 22.7195 65.2128 24.8091 62.772 26.1703C60.78 27.2822 58.182 28.1438 57.632 30.2209C57.907 30.924 59.303 30.8717 59.418 31.6059C59.498 32.1935 58.674 32.4978 58.376 33.0231C57.941 33.7885 58.937 34.7225 59.887 34.6813C60.8331 34.5305 61.6939 34.0861 62.325 33.4227C64.408 31.649 66.595 29.7387 67.35 27.2207C67.67 26.1822 67.784 24.9649 68.7 24.2719C68.9829 24.0896 69.308 23.9697 69.6498 23.9219C69.9917 23.874 70.341 23.8993 70.6704 23.996C70.9998 24.0926 71.3003 24.2578 71.5483 24.4787C71.7963 24.6996 71.9852 24.9702 72.1 25.2692C73 24.8109 74.412 24.4607 74.881 25.3215C74.9866 25.6424 75.052 25.9733 75.076 26.3078C75.376 27.6506 77.376 28.2593 77.583 29.6132C77.823 31.176 75.637 31.9845 73.931 32.2256C72.386 32.4456 70.841 32.6656 69.295 32.8975C68.6139 32.9431 67.9546 33.1374 67.372 33.464C67.0846 33.6371 66.8709 33.8955 66.7665 34.1959C66.6622 34.4962 66.6737 34.8204 66.799 35.1139C67.0299 35.3956 67.2987 35.6493 67.599 35.8692C67.8716 36.1805 68.0493 36.5525 68.1141 36.9472C68.1789 37.342 68.1285 37.7454 67.9679 38.1165C67.8074 38.4876 67.5425 38.813 67.2001 39.0597C66.8578 39.3065 66.4502 39.4657 66.019 39.5211C65.401 39.5422 64.794 39.3323 64.176 39.3112C62.344 39.2379 60.89 40.7173 60.021 42.1968C59.152 43.6762 58.498 45.3656 57.033 46.373C54.675 47.9991 50.611 47.6224 49.466 50.1193C49.1336 51.1699 49.1215 52.2839 49.431 53.3403C49.7356 54.4041 49.5842 55.5344 49.008 56.4991C48.333 57.38 46.57 57.5688 46.066 56.5834C45.8946 56.1342 45.871 55.6488 45.998 55.1874C46.272 53.6346 46.536 52.0818 46.798 50.529C46.992 49.375 47.164 48.0843 46.42 47.1375C45.378 45.8148 43.043 45.9412 41.692 47.0009C40.4506 48.1748 39.6522 49.6824 39.414 51.3027C39.1577 52.7365 38.7197 54.1381 38.109 55.4789C37.869 56.7805 37.674 58.1023 37.526 59.4342C37.377 60.7981 37.274 62.152 37.217 63.537C37.4231 63.3808 37.6181 63.2127 37.801 63.0338C38.522 62.3518 39.975 59.4662 41.281 60.8824C41.443 61.0678 41.5332 61.2972 41.5373 61.5347C41.5415 61.7722 41.4594 62.0041 41.304 62.1942C40.904 62.6662 40.104 62.7707 39.793 63.285C39.415 63.8936 39.942 64.6489 40.56 65.0477C41.2353 65.3633 41.847 65.7821 42.369 66.286C43.204 67.386 42.403 69.0561 43.216 70.179C43.916 71.1442 45.403 71.2065 46.673 71.333C46.822 71.3541 46.96 71.3761 47.108 71.3963C47.1946 70.1803 47.7361 69.0288 48.6411 68.1362C49.5461 67.2435 50.7593 66.6642 52.076 66.4959C56.816 65.5096 63.043 69.1093 65.71 72.3826C68.686 76.0491 70.095 81.2281 74.651 83.0642C77.913 84.3759 82.551 83.9029 84.14 86.8316C85.559 89.455 83.087 92.4029 82.709 95.3096C82.469 97.229 83.156 99.1393 83.316 101.06C83.476 102.98 82.847 105.236 80.935 106.043C79.871 106.484 78.535 106.431 77.673 107.166C76.15 108.489 77.398 111.217 75.873 112.539C75.2794 112.932 74.6283 113.246 73.939 113.473C70.516 115.058 70.608 119.674 72.199 122.875C72.256 122.99 72.314 123.095 72.371 123.21C83.5852 129.355 96.4059 132.6 109.471 132.601C121.307 132.617 132.965 129.957 143.412 124.857H143.424C145.622 123.78 147.759 122.6 149.824 121.321C153.006 119.363 156.011 117.174 158.81 114.773C160.748 113.118 162.583 111.362 164.305 109.517C165.518 108.233 166.663 106.903 167.762 105.539C168.323 104.836 168.872 104.133 169.388 103.409C173.27 98.1836 176.302 92.468 178.388 86.442C179.672 82.779 180.595 79.018 181.147 75.204C181.365 73.7135 181.536 72.2029 181.647 70.6813C180.887 71.4134 179.842 71.8395 178.74 71.8665C176.999 71.8354 175.568 70.5017 174.869 69.0332Z" fill="#F5F5F5"/>
<path d="M92.199 17.3511C90.765 18.1357 89.999 19.6188 88.899 20.7655C87.799 21.9122 85.81 22.7308 84.505 21.7738C84.2078 21.5249 83.9678 21.224 83.7992 20.8889C83.6305 20.5538 83.5366 20.1912 83.523 19.8223C83.4224 18.7596 83.695 17.6952 84.301 16.7846C84.925 15.8542 85.875 15.1218 86.401 14.1428C86.927 13.1639 86.82 11.7302 85.74 11.271C85.155 11.0226 84.42 11.1197 83.901 10.7696C82.969 10.1399 83.636 8.65124 84.72 8.27634C85.8529 8.04876 87.0254 8.04282 88.161 8.25892C92.354 8.50458 95.438 5.98841 98.589 3.89755C101.04 2.27144 106.262 0.351078 109.099 2.01203C110.231 2.67476 110.673 4.37787 109.607 5.1286C109.13 5.46317 108.472 5.53834 108.028 5.90958C107.495 6.35506 107.42 7.08562 107.114 7.68419C106.321 9.24247 104.032 9.80437 103.295 11.3837C102.852 12.3334 103.051 13.5158 102.368 14.339C101.739 14.9308 100.909 15.3084 100.015 15.4096L94.548 16.6012C93.728 16.7406 92.936 16.9934 92.199 17.3511Z" fill="#EBEBEB"/>
<path d="M141.08 98.9649C139.265 101.47 138.936 104.601 138.433 107.573C137.93 110.545 137.065 113.703 134.575 115.66C132.085 117.617 127.509 117.5 126.138 114.769C125.394 113.286 125.775 111.537 125.37 109.947C124.841 107.876 123.043 106.281 122.19 104.302C121.592 102.569 121.325 100.754 121.401 98.9383C121.077 89.0303 118.441 78.6888 111.081 71.4254C110.244 70.4717 109.131 69.753 107.869 69.351C107.1 69.1761 106.292 69.2091 105.542 69.4459C104.793 69.6827 104.134 70.1133 103.646 70.6857C103.181 71.475 102.639 72.224 102.026 72.9232C100.453 74.2395 97.708 73.2962 96.657 71.5986C95.606 69.901 95.757 67.8193 95.928 65.8733C96.1453 63.4607 96.363 61.0484 96.581 58.6364C96.5539 57.3618 96.9639 56.1114 97.753 55.0616C99.038 53.6994 101.342 53.6362 102.914 52.5564C104.974 51.142 105.249 48.4425 106.548 46.4039C107.847 44.3653 111.915 43.5046 112.517 45.7998C116.817 37.3594 126.326 49.8981 131.98 48.9558C133.621 48.6808 135.226 47.9594 136.88 48.1712C139.798 48.5452 141.305 51.4922 142.298 54.0377L147.242 66.702C147.87 68.3107 148.681 70.0935 150.419 70.715C151.75 71.188 153.297 70.8268 154.639 71.2751C158.187 72.4584 157.033 77.576 154.179 79.8401C151.325 82.1042 147.318 83.5323 145.961 86.7617C144.938 89.1944 145.754 92.0452 144.654 94.4486C143.861 96.1682 142.205 97.4112 141.08 98.9649Z" fill="#EBEBEB"/>
<path d="M154.546 101.718C153.38 101.867 152.004 101.34 151.118 102.05C150.677 102.536 150.387 103.122 150.281 103.746C150.024 104.597 149.437 105.333 148.629 105.815C148.222 106.047 147.751 106.167 147.272 106.159C146.793 106.151 146.326 106.016 145.929 105.77C145.549 105.505 145.298 105.115 145.229 104.682C145.159 104.249 145.278 103.809 145.558 103.455C145.879 103.188 146.215 102.936 146.565 102.701C148.112 101.361 147.053 98.875 148.229 97.281C148.923 96.3414 150.015 95.3881 150.777 94.4394C151.363 93.7061 151.577 93.1268 152.655 92.9324C157.376 92.0772 159.508 101.08 154.546 101.718Z" fill="#EBEBEB"/>
<path d="M37.171 65.0978C37.163 65.4984 37.1479 65.8953 37.1479 66.294C37.1479 66.6194 37.16 66.9412 37.166 67.2647C37.16 66.9412 37.1479 66.6231 37.1479 66.294C37.1479 65.898 37.165 65.4984 37.171 65.0978Z" fill="#263238"/>
<g opacity="0.6">
<path d="M71.0559 122.463C71.4909 122.714 71.9259 122.956 72.3719 123.196C71.9259 122.955 71.4909 122.713 71.0559 122.463Z" fill="#263238"/>
</g>
<g opacity="0.6">
<path d="M37.194 63.9016C37.177 64.2948 37.178 64.6972 37.171 65.0932C37.178 64.6936 37.176 64.2903 37.194 63.9016Z" fill="#263238"/>
</g>
<path d="M82.708 95.2974C83.086 92.3907 85.558 89.4428 84.139 86.8194C82.548 83.8917 77.912 84.3637 74.65 83.052C70.094 81.2187 68.685 76.0324 65.709 72.3704C63.042 69.0971 56.815 65.4956 52.075 66.4838C50.7583 66.652 49.5451 67.2313 48.6401 68.124C47.7351 69.0167 47.1936 70.1681 47.107 71.3841C46.959 71.363 46.821 71.342 46.672 71.3209C45.401 71.1953 43.913 71.132 43.215 70.1668C42.402 69.0439 43.203 67.3757 42.368 66.2739C41.8461 65.7699 41.2344 65.3511 40.559 65.0355C39.941 64.6368 39.415 63.8814 39.792 63.2728C40.101 62.7586 40.903 62.6541 41.303 62.182C41.4584 61.992 41.5405 61.76 41.5363 61.5225C41.5322 61.2851 41.442 61.0556 41.28 60.8703C39.975 59.4541 38.521 62.3369 37.8 63.0216C37.6171 63.2006 37.4221 63.3686 37.216 63.5249V63.5359C37.204 63.6614 37.193 63.7769 37.193 63.9025C37.176 64.2958 37.177 64.6982 37.17 65.0942C37.163 65.4901 37.147 65.8916 37.147 66.2904C37.147 66.6158 37.159 66.9375 37.165 67.2611C37.171 67.5847 37.17 67.9119 37.182 68.2318C37.182 68.3895 37.182 68.5361 37.193 68.6901C37.4659 75.8856 39.0197 82.9918 41.793 89.7279C43.025 92.7218 44.5023 95.626 46.212 98.4158C46.921 99.623 47.7 100.808 48.512 101.972C49.519 103.41 50.572 104.814 51.706 106.17C52.759 107.471 53.881 108.741 55.06 109.958C56.6746 111.646 58.3825 113.257 60.177 114.785C61.7683 116.15 63.4283 117.444 65.157 118.667C61.457 109.558 57.957 100.274 51.965 92.3357C57.953 100.274 61.454 109.558 65.157 118.667H65.169C65.902 119.202 66.646 119.706 67.401 120.2C67.9963 120.593 68.5963 120.978 69.201 121.356C69.8056 121.733 70.4216 122.1 71.049 122.456C71.484 122.707 71.919 122.949 72.365 123.189C72.308 123.073 72.251 122.969 72.193 122.853C70.602 119.652 70.51 115.036 73.933 113.451C74.6223 113.225 75.2734 112.91 75.867 112.517C77.39 111.196 76.142 108.467 77.667 107.145C78.525 106.412 79.867 106.463 80.929 106.022C82.841 105.214 83.459 102.969 83.31 101.038C83.161 99.1078 82.465 97.2168 82.708 95.2974ZM42.632 73.1679C42.5073 72.9523 42.4554 72.7076 42.483 72.4648C42.408 71.2494 41.349 70.3722 40.197 69.6838C41.349 70.3712 42.408 71.2485 42.483 72.4648C42.4554 72.7076 42.5073 72.9523 42.632 73.1679ZM46.592 83.7239C46.5385 83.2504 46.5301 82.7734 46.567 82.2985C46.4396 83.7813 46.7923 85.2656 47.581 86.5655C47.0659 85.6812 46.7307 84.7183 46.592 83.7239ZM48.123 87.4455C48.316 87.7351 48.523 88.0202 48.732 88.3016C48.521 88.0193 48.316 87.7379 48.123 87.4455Z" fill="#EBEBEB"/>
<path d="M41.693 46.9869C43.044 45.9272 45.379 45.8017 46.421 47.1235C47.165 48.0676 46.994 49.3582 46.799 50.515C46.535 52.0678 46.272 53.6215 45.999 55.1734C45.872 55.6348 45.8956 56.1202 46.067 56.5694C46.567 57.5548 48.334 57.366 49.009 56.4851C49.5852 55.5204 49.7366 54.3901 49.432 53.3263C49.1225 52.2699 49.1346 51.1559 49.467 50.1053C50.611 47.6084 54.675 47.9851 57.034 46.359C58.499 45.3507 59.152 43.6622 60.022 42.1828C60.892 40.7033 62.346 39.2239 64.177 39.2972C64.795 39.3183 65.401 39.5282 66.02 39.5071C66.4513 39.4517 66.8588 39.2925 67.2011 39.0457C67.5435 38.799 67.8084 38.4735 67.969 38.1025C68.1295 37.7314 68.1799 37.328 68.1151 36.9332C68.0503 36.5385 67.8726 36.1665 67.6 35.8552C67.2997 35.6353 67.0309 35.3816 66.8 35.0999C66.6747 34.8064 66.6632 34.4822 66.7676 34.1819C66.8719 33.8815 67.0856 33.6231 67.373 33.45C67.9556 33.1234 68.6149 32.9291 69.296 32.8835C70.842 32.6525 72.387 32.4325 73.932 32.2116C75.638 31.9705 77.824 31.162 77.584 29.5992C77.378 28.2453 75.375 27.6366 75.077 26.2938C75.053 25.9593 74.9876 25.6284 74.882 25.3075C74.413 24.4467 73.005 24.7932 72.101 25.2552C71.9862 24.9562 71.7973 24.6856 71.5493 24.4647C71.3013 24.2438 71.0008 24.0786 70.6714 23.982C70.342 23.8853 69.9927 23.86 69.6508 23.9079C69.309 23.9557 68.9839 24.0756 68.701 24.2579C67.785 24.9509 67.671 26.1673 67.351 27.2067C66.595 29.7247 64.408 31.6341 62.326 33.4087C61.6933 34.0724 60.8306 34.5161 59.883 34.6654C58.933 34.7076 57.937 33.7735 58.372 33.0072C58.672 32.482 59.494 32.1823 59.414 31.5901C59.299 30.8568 57.903 30.9081 57.628 30.2051C58.177 28.128 60.776 27.2672 62.768 26.1544C65.2073 24.7938 67.062 22.7057 68.021 20.2403C68.1245 20.053 68.184 19.8479 68.1957 19.6382C68.2074 19.4286 68.1711 19.219 68.089 19.023C67.789 18.4978 67.025 18.4153 66.372 18.4153C64.838 18.3942 62.927 18.583 62.365 19.8947C62.2188 20.6329 62.1309 21.3797 62.102 22.1295C61.564 24.312 58.302 24.5531 56.309 25.8547C55.6078 26.4395 54.8575 26.9728 54.065 27.4496C53.0888 27.77 52.0566 27.9229 51.02 27.9006C50.837 27.9116 50.653 27.9327 50.47 27.9529C49.8407 28.7552 49.2333 29.5729 48.648 30.4058C48.0627 31.2387 47.4987 32.0823 46.956 32.9366C44.3715 36.992 42.2695 41.29 40.686 45.7568C40.1253 47.3254 39.63 48.9195 39.2 50.5388C38.77 52.1582 38.4067 53.7996 38.11 55.463C38.7207 54.1222 39.1587 52.7207 39.415 51.2868C39.6536 49.6672 40.452 48.1603 41.693 46.9869Z" fill="#EBEBEB"/>
<g opacity="0.6">
<path d="M177.251 43.137C177.251 43.137 177.262 43.126 177.251 43.126V43.137Z" fill="#263238"/>
</g>
<path d="M181.771 65.381C181.766 64.4259 181.735 63.4787 181.678 62.5395C181.621 61.6002 181.542 60.6628 181.439 59.7272C181.359 58.9719 181.267 58.2267 181.153 57.4824C181.041 56.6947 180.914 55.9116 180.771 55.133C180.345 52.8116 179.781 50.5132 179.081 48.2482C178.814 47.3829 178.528 46.5246 178.221 45.6733C177.914 44.8221 177.591 43.9769 177.25 43.1379V43.1269C176.884 42.4972 176.495 41.8784 176.071 41.2698C172.053 35.4363 166.215 30.8614 161.796 25.279C160.354 23.4632 159.232 21.9626 156.679 21.6061C152.902 21.0717 150.99 23.0434 148.312 19.76C147.591 18.8782 146.332 18.0605 145.267 18.5839C145.542 19.287 145.828 19.99 146.103 20.7041C146.172 20.8482 146.204 21.0052 146.195 21.1624C146.138 21.6556 145.337 21.7922 144.878 21.519C144.469 21.1812 144.128 20.78 143.87 20.3338C143.555 19.963 143.159 19.6562 142.708 19.4328C142.257 19.2093 141.76 19.0741 141.249 19.0357C140.738 18.9973 140.224 19.0565 139.739 19.2095C139.255 19.3626 138.81 19.6062 138.433 19.925C138.399 19.5926 138.27 19.2742 138.059 19.0018C137.849 18.7293 137.564 18.5122 137.233 18.3722C137.178 18.6884 137.051 18.9903 136.859 19.2583C136.668 19.5263 136.417 19.7543 136.123 19.9273C135.829 20.1004 135.499 20.2146 135.154 20.2625C134.808 20.3104 134.456 20.291 134.119 20.2055C133.901 19.5638 135.149 19.4501 135.584 18.9047C135.984 18.3905 135.504 17.6774 134.984 17.2465C133.597 16.1465 131.837 15.5201 130.004 15.4738C128.848 15.4527 127.604 15.6516 126.593 15.1071C126.009 14.7927 125.593 14.2675 125.001 13.9631C123.731 13.3013 122.14 13.9109 120.857 14.5617C119.106 15.4536 117.297 16.5783 116.679 18.3291C116.061 20.0799 117.434 22.431 119.426 22.2111C119.917 22.0661 120.435 22.0125 120.949 22.0534C121.284 22.1911 121.567 22.4174 121.761 22.7034C121.955 22.9894 122.051 23.322 122.037 23.6584C121.995 24.3268 122.108 24.9957 122.369 25.6209C122.713 26.2085 123.754 26.5028 124.155 25.9464C125.093 25.1278 124.979 23.7528 124.739 22.5878C124.499 21.4227 124.247 20.1129 125.002 19.1568C125.757 18.2008 127.945 18.506 127.796 19.6821C127.704 20.3741 126.846 20.8737 126.88 21.5813C126.914 22.289 127.864 22.6721 128.643 22.641C129.409 22.5074 130.191 22.4722 130.967 22.5365C131.734 22.7042 132.34 23.6172 131.791 24.1305C130.841 25.1168 128.368 23.4274 127.876 24.6557C127.739 24.9701 127.876 25.3276 127.842 25.664C127.75 26.6925 126.342 27.0702 125.22 27.1957C124.109 27.4038 122.956 27.3277 121.889 26.9757C121.631 26.8772 121.397 26.7329 121.201 26.5511C121.004 26.3694 120.849 26.1538 120.744 25.9168C120.638 25.6798 120.585 25.426 120.587 25.1701C120.589 24.9142 120.647 24.6612 120.756 24.4257C120.6 24.353 120.429 24.3106 120.255 24.3011C120.08 24.2915 119.905 24.315 119.741 24.3702C119.577 24.4253 119.427 24.5108 119.3 24.6215C119.173 24.7321 119.073 24.8655 119.005 25.0132C118.762 25.625 118.718 26.2884 118.879 26.9226C117.689 26.6815 116.624 27.6046 115.949 28.5175C115.274 29.4305 114.61 30.5112 113.449 30.8357C112.288 31.1602 110.678 30.7202 110.072 31.6863C109.282 32.9449 111.572 34.5408 110.772 35.7883C110.314 36.4914 109.215 36.4703 108.345 36.6912C106.045 37.2898 105.245 40.3742 106.811 42.0214C107.23 42.4032 107.728 42.7055 108.275 42.9111C108.821 43.1167 109.407 43.2215 109.998 43.2195C110.589 43.2176 111.174 43.1089 111.719 42.8997C112.265 42.6905 112.76 42.3849 113.176 42.0004C114.332 40.9196 114.801 39.398 115.637 38.0964C116.473 36.7948 118.052 35.6306 119.632 36.0505C120.242 36.2607 120.799 36.5818 121.27 36.9946C122.037 37.5822 122.804 38.1697 123.57 38.7674C124.062 39.145 124.6 39.618 124.554 40.2047C124.508 40.6767 124.107 41.0443 123.936 41.488C123.456 42.7575 125.459 43.9629 126.718 43.2717C127.009 43.071 127.253 42.8197 127.438 42.5321C127.622 42.2445 127.743 41.9263 127.793 41.5959C127.843 41.2654 127.821 40.9292 127.729 40.6065C127.637 40.2837 127.476 39.9808 127.256 39.7152C126.066 38.2046 123.376 37.4483 123.444 35.5811C124.818 34.5527 126.982 35.6334 127.783 37.0918C128.584 38.5501 128.607 40.2615 129.283 41.762C129.959 43.2626 131.847 44.6036 133.427 43.8703C133.015 42.5696 132.614 41.278 132.202 39.9874C133.21 39.2954 134.366 41.3101 135.567 40.9746C136.3 40.7647 136.391 39.7986 136.067 39.1487C135.648 38.554 135.306 37.9166 135.048 37.2494C135.035 36.9296 135.1 36.6112 135.238 36.3171C135.375 36.023 135.583 35.7605 135.844 35.5487C136.106 35.3368 136.416 35.1809 136.751 35.092C137.087 35.0032 137.439 34.9836 137.784 35.0348C138.473 35.192 139.096 35.5332 139.573 36.0154C140.05 36.4975 140.36 37.0987 140.463 37.7426C140.514 38.2551 140.637 38.7594 140.829 39.2431C141.356 40.2514 142.718 40.5548 143.84 40.9746C144.962 41.3945 146.14 42.433 145.671 43.4615C145.454 43.9125 144.939 44.3433 145.122 44.8044C145.294 45.2141 145.958 45.3919 145.958 45.8328C145.946 46.1271 145.615 46.326 145.317 46.4415C144.561 46.7247 143.737 46.8191 143.004 47.1445C142.625 47.2778 142.296 47.5095 142.058 47.8114C141.82 48.1132 141.684 48.472 141.665 48.844C141.757 49.8935 143.119 50.3968 143.765 51.2676C144.383 52.0925 144.292 53.1989 144.681 54.1431C145.141 54.9773 145.722 55.7504 146.409 56.4411C148.309 58.8124 148.756 61.8657 149.683 64.678C150.095 65.9475 150.851 67.3637 152.27 67.6057C153.059 67.6629 153.851 67.5212 154.559 67.196C156.608 66.4508 158.738 65.6533 160.169 64.1326C161.6 62.6119 162.092 60.1131 160.615 58.6135C160.445 58.4026 160.195 58.2567 159.915 58.2038C159.528 58.2259 159.155 58.3458 158.838 58.5503C158.295 58.732 157.707 58.7693 157.142 58.6578C156.577 58.5464 156.057 58.2908 155.644 57.9205C154.834 57.1691 154.189 56.2823 153.744 55.3081C153.183 54.2696 152.622 53.22 152.05 52.1714C152.425 51.9509 152.87 51.8518 153.314 51.8896C153.758 51.9275 154.175 52.1002 154.5 52.3804C155.125 52.9573 155.684 53.5902 156.171 54.2696C157.877 56.2211 160.681 57.0818 163.394 57.3751C164.091 57.409 164.778 57.5397 165.432 57.7629C167.458 58.6135 168.042 61.3515 170.182 61.9391C170.797 62.0268 171.405 62.153 172.002 62.3167C172.401 62.5457 172.742 62.8491 173.005 63.2071C173.267 63.5651 173.444 63.9698 173.525 64.3947C173.848 65.9685 174.296 67.5186 174.864 69.0329C175.564 70.4996 176.993 71.8351 178.733 71.8553C179.835 71.8283 180.88 71.4021 181.64 70.6701V70.659C181.732 69.2117 181.789 67.7634 181.789 66.294C181.794 65.9897 181.794 65.6854 181.771 65.381Z" fill="#EBEBEB"/>
<path d="M141.38 55.9213C141.138 55.4686 140.775 55.0792 140.325 54.7893C140.129 54.5889 139.891 54.4266 139.625 54.3118C139.359 54.1971 139.071 54.1323 138.778 54.1213C138.484 54.1103 138.191 54.1532 137.916 54.2477C137.641 54.3421 137.389 54.486 137.176 54.6711C136.877 55.0747 136.699 55.543 136.659 56.0294C136.618 56.5158 136.717 57.0034 136.946 57.4439C137.123 57.8578 137.397 58.2313 137.748 58.5384C138.099 58.8455 138.519 59.0788 138.978 59.2222C139.442 59.3535 139.939 59.3477 140.399 59.2056C140.859 59.0634 141.259 58.7921 141.541 58.4302C141.767 58.0384 141.871 57.5974 141.842 57.1552C141.814 56.7129 141.654 56.2862 141.38 55.9213Z" fill="#EBEBEB"/>
<path d="M63.407 225.935C62.8169 223.56 62.7981 221.096 63.352 218.714C63.9058 216.331 65.0189 214.088 66.614 212.14C66.845 211.865 67.15 211.572 67.526 211.603C68.102 211.652 68.251 212.355 68.226 212.886C67.9891 217.565 66.319 222.087 63.407 225.936" fill="#E0E0E0"/>
<path d="M65 226.929C68.0802 227.594 71.2811 227.639 74.3822 227.061C77.4833 226.483 80.4107 225.296 82.963 223.581C79.9569 222.196 76.5202 221.809 73.238 222.486C70.0042 223.026 67.0855 224.601 65 226.929Z" fill="#E0E0E0"/>
<path d="M66.334 223.901C68.1156 221.385 70.5208 219.29 73.3536 217.789C76.1863 216.287 79.3663 215.42 82.634 215.26C82.1936 216.446 81.4934 217.538 80.5763 218.468C79.6593 219.398 78.5447 220.147 77.301 220.668C74.812 221.693 72.1805 222.397 69.481 222.761C68.44 222.945 67.012 223.151 66.337 223.901" fill="#E0E0E0"/>
<path d="M63.743 209.201C64.7657 206.357 65.4648 203.424 65.829 200.449C66.1875 197.452 65.5237 194.428 63.929 191.792C62.3223 194.503 61.4576 197.53 61.4092 200.615C61.3608 203.699 62.1301 206.749 63.651 209.5" fill="#E0E0E0"/>
<path d="M74.364 204.281C78.053 198.14 85.5789 193.226 93.1949 192.538C90.2569 199.243 82.245 204.425 74.364 204.281Z" fill="#E0E0E0"/>
<path d="M72.0439 205.486C77.5439 206.254 82.2339 209.475 87.3749 211.427C88.4526 211.904 89.6475 212.113 90.841 212.036C91.396 212.03 91.9357 211.868 92.387 211.571C92.8384 211.275 93.1798 210.859 93.3651 210.379C93.5504 209.9 93.5708 209.38 93.4234 208.889C93.276 208.398 92.968 207.961 92.5409 207.636C91.8121 207.02 90.9559 206.544 90.0229 206.236C84.4448 204.227 78.3102 203.914 72.5229 205.342" fill="#E0E0E0"/>
<path d="M68.859 209.022C70.105 209.349 70.53 209.939 71.516 210.71C74.8799 213.331 78.8582 215.204 83.141 216.185C83.586 216.285 84.168 216.326 84.388 215.957C84.58 215.636 84.337 215.248 84.088 214.961C82.2192 212.953 79.794 211.444 77.068 210.593C74.385 209.676 72.061 208.576 68.859 208.81" fill="#E0E0E0"/>
<path d="M65.266 187.659C67.5219 189.565 70.188 191.018 73.093 191.924C75.998 192.83 79.0776 193.169 82.134 192.919C82.415 192.923 82.6879 192.833 82.902 192.666C83.327 192.243 82.817 191.589 82.323 191.235C79.9829 189.459 77.2209 188.21 74.2587 187.589C71.2966 186.968 68.2169 186.993 65.267 187.661" fill="#E0E0E0"/>
<g opacity="0.34">
<path d="M33.278 207.108C30.2584 205.374 26.8454 204.297 23.301 203.96C21.6746 203.677 19.9915 203.961 18.581 204.755C18.4302 204.835 18.3056 204.95 18.2201 205.089C18.1346 205.228 18.0914 205.386 18.095 205.545C18.171 205.771 18.3355 205.964 18.557 206.086C20.6756 207.471 23.1672 208.299 25.762 208.479C28.3568 208.659 30.956 208.185 33.278 207.108Z" fill="#3E548D"/>
<path d="M33.022 206.847C30.7113 205.291 28.555 203.552 26.578 201.649C24.5948 199.734 23.2009 197.37 22.538 194.8C22.4075 194.42 22.3685 194.018 22.4235 193.622C22.4786 193.227 22.6265 192.847 22.857 192.509C27.994 196.186 32.029 200.942 33.022 206.847Z" fill="#3E548D"/>
<path d="M33.228 207.07C32.751 204.5 32.7913 201.871 33.347 199.315C33.9205 196.739 35.5292 194.455 37.854 192.915C38.742 194.817 38.36 197.008 37.735 198.995C36.7655 202.073 35.2561 204.986 33.266 207.619" fill="#3E548D"/>
<path d="M38.261 215.34C35.2386 215.786 32.4426 217.083 30.261 219.052C27.9663 220.966 26.3686 223.48 25.684 226.254C28.684 226.084 31.227 224.146 33.071 221.973C34.915 219.801 36.194 217.416 38.22 215.383" fill="#3E548D"/>
<path d="M39.355 216.663C38.1518 213.862 37.7301 210.831 38.1281 207.843C38.526 204.855 39.7311 202.005 41.634 199.552C42.5442 202.396 42.8115 205.381 42.4196 208.323C42.0278 211.265 40.9849 214.103 39.355 216.663Z" fill="#3E548D"/>
<path d="M46.0069 223.926C43.213 223.766 40.4298 224.364 38.0037 225.644C35.5776 226.924 33.6159 228.83 32.3629 231.125C32.1929 231.435 32.0439 231.828 32.2709 232.106C32.3885 232.21 32.5317 232.286 32.6884 232.329C32.8451 232.371 33.0106 232.378 33.1709 232.349C35.8599 232.19 38.2429 230.707 40.2089 229.018C42.1749 227.33 43.8889 225.378 46.0619 223.918" fill="#3E548D"/>
<path d="M45.797 223.53C44.3646 219.301 44.2765 214.786 45.543 210.513C46.043 208.839 46.883 207.075 48.572 206.29C48.6397 206.25 48.7158 206.222 48.7956 206.209C48.8754 206.196 48.9572 206.199 49.036 206.216C49.1729 206.282 49.2776 206.393 49.329 206.527C49.8968 207.699 50.142 208.981 50.043 210.26C49.9434 211.534 49.73 212.798 49.405 214.04C48.873 216.35 48.59 218.832 47.205 220.823C46.8789 221.302 46.5853 221.8 46.326 222.312C46.065 222.819 46.063 222.997 45.826 223.399" fill="#3E548D"/>
<path d="M69.526 186.23C72.512 184.215 75.9754 182.877 79.6334 182.324C83.2914 181.77 87.0403 182.018 90.574 183.046C87.8199 185.385 84.2867 186.806 80.544 187.079C76.8452 187.388 73.1159 187.099 69.526 186.226" fill="#3E548D"/>
<path d="M67.833 176.413C67.346 171.876 67.662 168.294 67.319 163.735C67.291 163.369 67.206 162.933 66.834 162.802C66.317 162.619 65.885 163.202 65.716 163.686C64.9953 165.799 64.8108 168.035 65.1764 170.223C65.5421 172.411 66.4484 174.494 67.826 176.313" fill="#3E548D"/>
<path d="M67.476 176.914C70.7093 175 73.4964 172.517 75.6759 169.609C77.2949 167.579 78.6599 165.145 78.2919 162.652C77.1518 162.68 76.0321 162.935 75.0105 163.4C73.989 163.865 73.0903 164.528 72.377 165.344C70.9635 166.987 69.9368 168.88 69.3619 170.904C68.7049 172.901 68.246 174.952 67.476 176.914Z" fill="#3E548D"/>
<path d="M75.532 174.863C82.9126 172.357 89.7458 168.663 95.71 163.955C93.3 163.065 90.54 163.598 88.13 164.49C82.6613 166.391 78.1427 170.063 75.43 174.813" fill="#3E548D"/>
<path d="M69.742 179.397C73.4553 179.883 77.2237 179.9 80.942 179.448C84.5516 178.761 88.0619 177.692 91.402 176.261C91.6985 176.184 91.9523 176.007 92.113 175.766C92.1667 175.622 92.1712 175.466 92.1258 175.32C92.0805 175.173 91.9874 175.043 91.859 174.946C91.5979 174.757 91.2926 174.626 90.967 174.563C87.2171 173.733 83.2824 173.949 79.667 175.182C76.2078 176.266 72.8817 177.68 69.743 179.398" fill="#3E548D"/>
<path d="M48.472 187.815C47.2732 185.466 46.6369 182.909 46.6056 180.316C46.5744 177.723 47.1491 175.154 48.291 172.782C49.836 174.94 50.025 177.689 49.742 180.258C49.459 182.826 48.607 185.471 48.551 188.049" fill="#3E548D"/>
<path d="M38.319 183.12C35.1376 183.083 31.9825 183.654 29.0554 184.797C26.1282 185.94 23.4933 187.63 21.319 189.759C24.5253 190.111 27.7724 189.559 30.628 188.177C33.4612 186.797 36.1342 185.157 38.606 183.282" fill="#3E548D"/>
<path d="M31.493 181.028C28.393 180.797 25.403 180.446 22.418 181.284C20.9112 181.671 19.5134 182.352 18.3197 183.28C17.1261 184.208 16.1646 185.36 15.501 186.66C18.4297 186.876 21.368 186.367 24.009 185.187C26.6343 184.008 29.1391 182.617 31.493 181.028Z" fill="#3E548D"/>
<path d="M41.6 181.124C38.807 179.447 35.94 177.739 32.688 177.044C29.436 176.349 25.669 176.861 23.401 179.108C26.033 180.525 29.227 180.691 32.279 180.69C35.331 180.688 39.072 180.656 41.949 181.589" fill="#3E548D"/>
<path d="M41.616 181.259C36.842 176.962 35.032 169.242 36.953 163.367C40.7218 168.656 42.37 174.98 41.616 181.259Z" fill="#3E548D"/>
<path d="M54.744 169.083C55.644 167.165 56.278 165.151 57.085 163.197C57.8216 161.215 58.9535 159.375 60.423 157.772C61.9159 156.161 64.0394 155.152 66.336 154.963C65.6019 157.924 64.2023 160.711 62.2264 163.148C60.2506 165.584 57.742 167.616 54.861 169.113" fill="#3E548D"/>
<path d="M52.368 171.619C50.878 169.739 49.157 167.188 47.136 165.785C46.1565 165.043 45.0124 164.505 43.7834 164.21C42.5544 163.914 41.2698 163.867 40.019 164.072C41.2956 166.123 43.0765 167.874 45.2201 169.184C47.3637 170.494 49.8112 171.329 52.368 171.62" fill="#3E548D"/>
<path d="M52.843 169.24C51.7727 166.998 50.9823 164.653 50.487 162.249C49.9968 159.824 50.4177 157.318 51.681 155.14C54.301 159.681 55.146 164.555 52.976 169.292" fill="#3E548D"/>
<path d="M54.768 155.14C56.252 150.639 60.749 147.325 65.603 145.803C66.2041 145.577 66.8559 145.488 67.503 145.542C67.8254 145.574 68.1302 145.693 68.3792 145.884C68.6282 146.074 68.8104 146.328 68.903 146.613C69.08 147.379 68.39 148.065 67.741 148.573C63.9456 151.544 59.5318 153.778 54.767 155.139" fill="#3E548D"/>
<path d="M54.821 151.459C54.8676 148.548 55.3443 145.656 56.238 142.863C56.6934 141.467 57.4504 140.169 58.4639 139.047C59.4775 137.924 60.727 137.001 62.138 136.33C62.629 139.263 61.219 142.178 59.517 144.701C57.815 147.223 55.765 149.604 54.743 152.418" fill="#3E548D"/>
<path d="M54.744 153.457C53.517 150.177 53.39 146.009 51.244 143.152C49.744 141.155 47.344 139.794 46.056 137.677C45.2763 139.707 45.3838 141.934 46.356 143.892C47.3307 145.828 48.6732 147.59 50.321 149.095C51.907 150.648 53.264 151.815 54.739 153.457" fill="#3E548D"/>
</g>
<path d="M54.767 250.066C54.667 250.066 54.5889 228.182 54.5819 201.192C54.5749 174.203 54.6479 152.313 54.7429 152.313C54.8379 152.313 54.9209 174.192 54.9279 201.192C54.9349 228.192 54.863 250.066 54.767 250.066Z" fill="#E0E0E0"/>
<path d="M75.631 184.512C75.3423 184.641 75.0409 184.744 74.731 184.821L72.261 185.584C70.178 186.235 67.316 187.177 64.211 188.344C61.136 189.553 58.236 190.535 56.584 191.847C55.9247 192.35 55.4006 192.986 55.052 193.705C54.815 194.218 54.773 194.53 54.741 194.53C54.729 194.453 54.7324 194.375 54.751 194.3C54.787 194.081 54.8456 193.867 54.926 193.658C55.2398 192.894 55.7551 192.214 56.426 191.677C57.423 190.905 58.5378 190.27 59.735 189.794C61.059 189.227 62.526 188.636 64.084 188.052C67.199 186.881 70.084 185.97 72.184 185.373C73.237 185.072 74.096 184.85 74.692 184.704C74.9977 184.613 75.3121 184.549 75.631 184.512Z" fill="#E0E0E0"/>
<path d="M82.47 169.114C82.3972 169.206 82.3126 169.288 82.218 169.361L81.452 170.021L78.592 172.404L69.073 180.174C65.357 183.206 62.146 186.102 59.92 188.284C58.806 189.374 57.928 190.276 57.33 190.906L56.638 191.63C56.563 191.719 56.476 191.8 56.379 191.87C56.4329 191.769 56.5001 191.676 56.579 191.59C56.723 191.414 56.934 191.152 57.221 190.828C57.789 190.172 58.641 189.245 59.735 188.134C62.6085 185.257 65.6461 182.521 68.835 179.939C72.564 176.914 75.957 174.197 78.423 172.239L81.355 169.933L82.164 169.318C82.2559 169.238 82.3588 169.17 82.47 169.114Z" fill="#E0E0E0"/>
<path d="M65.0609 183.253C64.9609 183.214 65.74 181.571 66.514 179.495C67.288 177.419 67.662 175.665 67.761 175.678C67.6796 177.02 67.3688 178.342 66.8399 179.596C66.5084 180.492 66.1228 181.37 65.6849 182.226C65.5321 182.594 65.3219 182.94 65.0609 183.253Z" fill="#E0E0E0"/>
<path d="M54.79 196.5C54.5769 196.315 54.3849 196.111 54.217 195.89L52.75 194.163C51.518 192.703 49.814 190.688 47.905 188.48C45.996 186.272 44.24 184.297 42.969 182.865L41.469 181.163C41.2727 180.964 41.0995 180.746 40.952 180.514C41.1794 180.684 41.3872 180.875 41.572 181.084C41.954 181.463 42.495 182.022 43.155 182.72C44.475 184.116 46.262 186.074 48.175 188.283C50.088 190.492 51.761 192.531 52.945 194.027C53.537 194.774 54.008 195.384 54.325 195.811C54.5056 196.025 54.6615 196.256 54.79 196.5Z" fill="#E0E0E0"/>
<path d="M50.215 191.116C49.2922 190.18 48.6339 189.051 48.298 187.827C47.9382 186.755 47.7912 185.632 47.864 184.512L48.016 184.523C47.948 184.776 47.898 184.91 47.871 184.906C47.844 184.902 47.842 184.76 47.865 184.5L48.018 184.511C48.0918 185.605 48.2953 186.687 48.625 187.74C49.062 188.901 49.5935 190.029 50.215 191.116Z" fill="#E0E0E0"/>
<path d="M44.308 184.307C43.8963 184.018 43.4464 183.779 42.969 183.594C41.7654 183.264 40.4997 183.17 39.254 183.319C37.9926 183.407 36.7414 183.591 35.513 183.868C35.0092 184.014 34.495 184.127 33.974 184.207C34.4324 183.957 34.9289 183.772 35.447 183.657C36.6765 183.309 37.9449 183.09 39.228 183.003C40.5203 182.845 41.8351 182.975 43.061 183.382C43.5812 183.548 44.0221 183.875 44.308 184.307Z" fill="#E0E0E0"/>
<path d="M42.911 182.655C42.884 182.704 42.131 182.369 40.861 181.971C37.5403 180.929 33.9845 180.681 30.53 181.25C29.208 181.466 28.408 181.693 28.39 181.641C28.5584 181.545 28.7419 181.474 28.934 181.428C29.4403 181.266 29.9573 181.133 30.482 181.031C33.9723 180.33 37.6103 180.585 40.944 181.764C41.4454 181.938 41.9343 182.142 42.408 182.373C42.5902 182.443 42.7598 182.538 42.911 182.655Z" fill="#E0E0E0"/>
<path d="M54.744 175.676C53.6363 172.532 52.7492 169.326 52.088 166.078C52.698 167.634 53.1991 169.225 53.588 170.839C54.0849 172.428 54.4711 174.043 54.744 175.676Z" fill="#E0E0E0"/>
<path d="M54.839 175.677C54.3602 174.693 53.8065 173.741 53.182 172.828C52.4807 171.966 51.6613 171.191 50.744 170.521C51.0916 170.599 51.4141 170.751 51.685 170.966C52.3775 171.43 52.9793 171.998 53.465 172.646C54.2064 173.528 54.6804 174.574 54.839 175.677Z" fill="#E0E0E0"/>
<path d="M54.768 238.399C54.731 238.404 54.661 237.873 54.391 236.944C53.9943 235.636 53.4584 234.367 52.791 233.155C50.4922 229.194 47.6483 225.52 44.329 222.223C42.439 220.244 40.605 218.374 39.049 216.59C37.653 215.017 36.391 213.349 35.274 211.599C34.5243 210.416 33.8867 209.178 33.368 207.895C33.193 207.437 33.068 207.082 32.994 206.836C32.9455 206.714 32.9119 206.587 32.894 206.458C32.925 206.449 33.094 206.959 33.494 207.851C34.0574 209.106 34.7229 210.322 35.485 211.486C36.625 213.208 37.8989 214.853 39.297 216.407C40.859 218.176 42.697 220.034 44.589 222.015C47.9308 225.329 50.7649 229.044 53.013 233.058C53.666 234.29 54.1709 235.583 54.519 236.914C54.6104 237.277 54.6809 237.645 54.73 238.014C54.7576 238.141 54.7703 238.27 54.768 238.399Z" fill="#E0E0E0"/>
<path d="M73.621 218.883C73.3041 219.072 72.974 219.242 72.633 219.392C71.7397 219.853 70.8832 220.372 70.07 220.945C68.8703 221.802 67.745 222.742 66.704 223.759C65.523 224.903 64.304 226.234 63.064 227.654C60.581 230.511 58.259 233.037 56.864 235.055C56.157 236.055 55.644 236.899 55.308 237.49C55.1492 237.805 54.9675 238.11 54.764 238.402C54.7796 238.313 54.8106 238.226 54.856 238.145C54.929 237.982 55.029 237.737 55.188 237.436C55.6217 236.575 56.1126 235.74 56.658 234.934C58.5447 232.336 60.5927 229.839 62.792 227.456C64.036 226.029 65.268 224.698 66.472 223.555C67.5357 222.537 68.6911 221.603 69.926 220.762C70.7602 220.199 71.6458 219.703 72.573 219.279C72.9 219.129 73.167 219.036 73.344 218.967C73.4311 218.926 73.5245 218.898 73.621 218.883Z" fill="#E0E0E0"/>
<path d="M73.991 225.213C73.3032 225.352 72.6053 225.444 71.903 225.488C70.2253 225.647 68.567 225.947 66.949 226.383C65.3501 226.859 63.8509 227.581 62.515 228.516C61.492 229.24 61.015 229.839 60.963 229.805C61.0362 229.642 61.1409 229.493 61.2719 229.364C61.597 228.992 61.9615 228.65 62.3599 228.343C63.6824 227.332 65.2048 226.565 66.8439 226.082C68.4823 225.634 70.1714 225.36 71.878 225.265C72.5791 225.188 73.2864 225.171 73.991 225.213Z" fill="#E0E0E0"/>
<path d="M61.571 229.11C61.462 229.053 62.403 227.735 63.133 225.963C63.818 224.175 63.978 222.607 64.102 222.625C64.1543 222.966 64.1424 223.314 64.067 223.651C63.9644 224.477 63.7601 225.288 63.458 226.071C63.1412 226.848 62.7352 227.592 62.247 228.291C62.0735 228.597 61.845 228.874 61.571 229.11Z" fill="#E0E0E0"/>
<path d="M79.722 201.88C79.6183 201.947 79.5061 202.002 79.388 202.044L78.407 202.452C77.977 202.621 77.455 202.836 76.867 203.12C76.279 203.404 75.588 203.686 74.867 204.08L73.728 204.674C73.328 204.883 72.942 205.133 72.528 205.369C71.688 205.836 70.847 206.411 69.949 206.998C66.1019 209.625 62.7465 212.807 60.014 216.421C59.405 217.263 58.806 218.055 58.326 218.84C58.08 219.23 57.826 219.595 57.61 219.965L57.002 221.029C56.596 221.699 56.302 222.34 56.023 222.89C55.744 223.44 55.518 223.923 55.348 224.323L54.936 225.24C54.8946 225.35 54.8389 225.454 54.77 225.552C54.7886 225.438 54.8222 225.326 54.87 225.219C54.963 224.971 55.08 224.662 55.223 224.283C55.373 223.875 55.572 223.381 55.846 222.824C56.12 222.266 56.39 221.614 56.784 220.934L57.376 219.854C57.585 219.48 57.837 219.108 58.076 218.713C58.549 217.916 59.142 217.115 59.75 216.262C62.4737 212.6 65.8574 209.391 69.756 206.77C70.666 206.185 71.519 205.614 72.372 205.153C72.794 204.917 73.191 204.673 73.592 204.47L74.749 203.89C75.478 203.506 76.178 203.231 76.778 202.966C77.378 202.701 77.909 202.496 78.348 202.345L79.357 201.99C79.4733 201.94 79.5959 201.903 79.722 201.88Z" fill="#E0E0E0"/>
<path d="M64.805 211.043C64.9436 210.6 65.2304 210.208 65.625 209.923C66.544 209.192 67.7143 208.78 68.931 208.761C70.1242 208.756 71.3065 208.968 72.41 209.384C72.8776 209.518 73.3208 209.716 73.725 209.97C73.247 209.884 72.7784 209.759 72.325 209.596C71.2343 209.254 70.0897 209.078 68.937 209.077C67.7936 209.1 66.6879 209.456 65.78 210.093C65.4303 210.388 65.1044 210.705 64.805 211.043Z" fill="#E0E0E0"/>
<path d="M62.576 213.153C63.5764 211.393 63.8356 209.356 63.304 207.432C63.5038 207.67 63.637 207.95 63.692 208.246C64.0968 209.657 63.9061 211.155 63.158 212.442C62.866 212.925 62.608 213.172 62.576 213.153Z" fill="#E0E0E0"/>
<path opacity="0.31" d="M38.278 241.535C38.792 249.899 41.542 258.401 45.771 267.004H64.161C68.194 258.489 70.753 249.997 71.208 241.535H38.278Z" fill="#3E548D"/>
<path d="M68.228 255.068C68.228 255.16 62.173 255.226 54.706 255.226C47.239 255.226 41.182 255.155 41.182 255.068C41.182 254.981 47.236 254.911 54.706 254.911C62.176 254.911 68.228 254.981 68.228 255.068Z" fill="#FAFAFA"/>
<path d="M67.817 258.098C67.817 258.19 62.141 258.256 55.14 258.256C48.139 258.256 42.462 258.186 42.462 258.098C42.462 258.01 48.137 257.94 55.14 257.94C62.143 257.94 67.817 258.011 67.817 258.098Z" fill="#FAFAFA"/>
<path d="M46.067 247.027C46.2977 249.611 46.2977 252.208 46.067 254.792C45.8372 252.208 45.8372 249.611 46.067 247.027Z" fill="#FAFAFA"/>
<path d="M55.92 247.027C56.1507 249.703 56.1507 252.392 55.92 255.068C55.6902 252.392 55.6902 249.703 55.92 247.027Z" fill="#FAFAFA"/>
<path d="M65.171 246.959C65.4008 249.689 65.4008 252.431 65.171 255.161C64.9402 252.431 64.9402 249.689 65.171 246.959Z" fill="#FAFAFA"/>
<path d="M70.625 247.027C70.625 247.118 63.525 247.184 54.765 247.184C46.005 247.184 38.903 247.114 38.903 247.027C38.903 246.94 46.003 246.868 54.765 246.868C63.527 246.868 70.625 246.939 70.625 247.027Z" fill="#FAFAFA"/>
<path d="M257.317 240.909C254.37 237.72 253.978 232.601 254.411 228.443C254.844 224.285 255.897 220.095 255.182 215.967C254.757 213.522 253.722 211.187 253.373 208.732C253.024 206.278 253.519 203.501 255.595 201.915C257.98 200.094 261.737 200.524 264.218 202.234C266.699 203.945 268.137 206.634 269.188 209.309C271.497 215.193 272.343 221.716 270.447 227.722C268.551 233.728 264.101 239.099 257.574 240.911" fill="#3E548D"/>
<path d="M272.972 248.155C273.172 247.373 273.555 246.641 274.095 246.009C274.635 245.376 275.319 244.86 276.099 244.494C277.846 243.974 279.741 244.076 281.41 244.779C283.06 245.481 284.811 245.964 286.61 246.212C288.425 246.314 290.473 245.526 291.016 243.936C291.527 242.441 290.543 240.847 289.316 239.76C288.016 238.612 286.421 237.784 284.68 237.35C282.938 236.916 281.105 236.891 279.35 237.277C277.595 237.664 275.975 238.448 274.638 239.56C273.301 240.671 272.29 242.073 271.7 243.636" fill="#3E548D"/>
<g opacity="0.3">
<path d="M272.972 248.155C273.172 247.373 273.555 246.641 274.095 246.009C274.635 245.376 275.319 244.86 276.099 244.494C277.846 243.974 279.741 244.076 281.41 244.779C283.06 245.481 284.811 245.964 286.61 246.212C288.425 246.314 290.473 245.526 291.016 243.936C291.527 242.441 290.543 240.847 289.316 239.76C288.016 238.612 286.421 237.784 284.68 237.35C282.938 236.916 281.105 236.891 279.35 237.277C277.595 237.664 275.975 238.448 274.638 239.56C273.301 240.671 272.29 242.073 271.7 243.636" fill="black"/>
</g>
<path d="M258.599 254.837C255.937 252.519 256.07 248.484 257.399 245.346C258.889 242.234 261.533 239.706 264.862 238.21C268.022 236.689 271.518 235.844 275.085 235.738C278.653 235.632 282.201 236.268 285.462 237.598C283.865 237.661 282.31 238.082 280.931 238.824C279.553 239.566 278.394 240.606 277.556 241.853C276.097 244.074 275.773 246.769 274.568 249.115C273.209 251.759 270.797 253.826 267.827 254.89C264.857 255.954 261.555 255.935 258.6 254.836" fill="#3E548D"/>
<path d="M255.903 267.074C255.883 266.953 255.876 266.83 255.884 266.708C255.884 266.467 255.879 266.111 255.898 265.654C255.931 264.737 256.022 263.414 256.242 261.788C256.501 259.884 256.877 257.994 257.367 256.128C257.977 253.835 258.925 251.629 260.184 249.569C262.487 245.824 265.724 242.631 269.629 240.251C270.366 239.785 271.08 239.432 271.695 239.105C272.326 238.804 272.876 238.555 273.326 238.361L274.39 237.958C274.511 237.905 274.638 237.865 274.769 237.836C274.659 237.907 274.54 237.966 274.416 238.013L273.38 238.465C272.94 238.678 272.401 238.938 271.78 239.25C271.18 239.589 270.48 239.951 269.753 240.425C265.928 242.834 262.753 246.011 260.471 249.715C257.766 254.053 257.019 258.616 256.471 261.815C256.223 263.431 256.096 264.748 256.025 265.657C255.994 266.088 255.969 266.437 255.95 266.708C255.949 266.831 255.933 266.954 255.903 267.074Z" fill="#263238"/>
<path d="M230.288 232.076C224.835 235.092 224.852 237.837 225.763 240.428C226.674 243.018 230.021 244.819 232.795 243.849C234.32 243.183 235.598 242.121 236.47 240.794C237.335 239.473 238.43 238.29 239.712 237.293C240.364 236.804 241.163 236.509 242.002 236.446C242.841 236.383 243.682 236.555 244.412 236.94" fill="#3E548D"/>
<g opacity="0.3">
<path d="M230.288 232.076C224.835 235.092 224.852 237.837 225.763 240.428C226.674 243.018 230.021 244.819 232.795 243.849C234.32 243.183 235.598 242.121 236.47 240.794C237.335 239.473 238.43 238.29 239.712 237.293C240.364 236.804 241.163 236.509 242.002 236.446C242.841 236.383 243.682 236.555 244.412 236.94" fill="black"/>
</g>
<path d="M226.206 235.38C227.632 233.574 231.154 233.052 233.379 233.952C235.604 234.852 237.232 236.64 238.69 238.424C240.148 240.208 241.568 242.091 243.59 243.333C245.612 244.575 248.432 245.023 250.445 243.773C251.087 243.334 251.624 242.78 252.024 242.145C252.425 241.509 252.679 240.805 252.773 240.077C252.951 238.618 252.843 237.142 252.453 235.718C251.972 233.622 251.186 231.433 249.353 230.101C247.313 228.616 244.483 228.543 241.88 228.624C238.886 228.604 235.907 229.024 233.058 229.868C230.085 230.828 227.63 232.802 226.204 235.379" fill="#3E548D"/>
<path d="M251.178 266.817C251.15 266.674 251.136 266.53 251.137 266.385C251.123 266.073 251.105 265.66 251.082 265.145C251.044 264.035 250.991 262.487 250.926 260.583C250.856 258.658 250.767 256.366 250.614 253.822C250.461 251.277 250.249 248.485 249.829 245.577C249.652 244.163 249.351 242.765 248.929 241.395C248.496 240.131 247.939 238.906 247.263 237.735C246.138 235.737 244.65 233.929 242.863 232.388C241.65 231.359 240.279 230.498 238.795 229.831C238.393 229.647 237.98 229.482 237.559 229.336C237.41 229.29 237.265 229.231 237.127 229.16C237.282 229.187 237.434 229.228 237.581 229.281C238.014 229.403 238.437 229.552 238.848 229.726C240.371 230.36 241.777 231.205 243.018 232.233C244.849 233.771 246.374 235.59 247.524 237.607C248.218 238.79 248.791 240.028 249.235 241.308C249.667 242.692 249.974 244.107 250.154 245.537C250.577 248.46 250.774 251.261 250.916 253.807C251.058 256.353 251.116 258.65 251.158 260.576C251.2 262.503 251.209 264.06 251.211 265.141C251.211 265.658 251.211 266.071 251.205 266.383C251.21 266.528 251.201 266.673 251.178 266.817Z" fill="#263238"/>
<path d="M253.605 266.818C253.579 266.774 253.559 266.727 253.547 266.679L253.407 266.259C253.235 265.719 253.093 265.171 252.982 264.617C252.59 262.576 252.448 260.501 252.559 258.431C252.695 255.357 253.245 252.311 254.197 249.361C255.29 246.043 256.844 242.511 258.218 238.734C259.542 235.193 260.396 231.518 260.764 227.79C261.043 224.742 261.12 221.681 260.994 218.624C260.905 216.012 260.759 213.901 260.669 212.442C260.626 211.729 260.592 211.169 260.569 210.76C260.561 210.582 260.555 210.438 260.551 210.323C260.544 210.273 260.544 210.223 260.551 210.173C260.568 210.221 260.577 210.271 260.58 210.321C260.593 210.437 260.61 210.58 260.631 210.756C260.67 211.163 260.724 211.723 260.793 212.434C260.921 213.891 261.103 216.002 261.221 218.616C261.381 221.681 261.327 224.752 261.06 227.81C260.708 231.562 259.856 235.261 258.524 238.823C257.145 242.614 255.584 246.138 254.481 249.437C253.523 252.363 252.955 255.384 252.787 258.435C252.658 260.492 252.765 262.555 253.106 264.591C253.242 265.31 253.361 265.866 253.47 266.241L253.578 266.668C253.594 266.716 253.604 266.767 253.605 266.818Z" fill="#263238"/>
<path d="M95.68 188.687H74.461C74.1514 188.687 73.8447 188.632 73.5587 188.523C73.2726 188.415 73.0126 188.255 72.7937 188.055C72.5747 187.854 72.401 187.616 72.2825 187.354C72.164 187.092 72.103 186.811 72.103 186.527C72.103 185.953 72.3514 185.404 72.7936 184.998C73.2358 184.593 73.8356 184.365 74.461 184.365H95.68C96.3053 184.365 96.9051 184.593 97.3473 184.998C97.7895 185.404 98.038 185.953 98.038 186.527C98.038 186.811 97.977 187.092 97.8585 187.354C97.7399 187.616 97.5662 187.854 97.3473 188.055C97.1283 188.255 96.8683 188.415 96.5823 188.523C96.2962 188.632 95.9896 188.687 95.68 188.687Z" fill="#263238"/>
<path d="M96.256 187.512H65.033C60.0823 187.512 56.069 191.191 56.069 195.729V251.086C56.069 255.624 60.0823 259.303 65.033 259.303H96.256C101.207 259.303 105.22 255.624 105.22 251.086V195.729C105.22 191.191 101.207 187.512 96.256 187.512Z" fill="#4CCB9E"/>
<g opacity="0.3">
<path d="M96.256 187.512H65.033C60.0823 187.512 56.069 191.191 56.069 195.729V251.086C56.069 255.624 60.0823 259.303 65.033 259.303H96.256C101.207 259.303 105.22 255.624 105.22 251.086V195.729C105.22 191.191 101.207 187.512 96.256 187.512Z" fill="black"/>
</g>
<path d="M107.927 187.512H76.704C71.7533 187.512 67.74 191.191 67.74 195.729V251.086C67.74 255.624 71.7533 259.303 76.704 259.303H107.927C112.878 259.303 116.891 255.624 116.891 251.086V195.729C116.891 191.191 112.878 187.512 107.927 187.512Z" fill="#4CCB9E"/>
<path d="M116.474 247.304C116.474 247.395 105.522 247.467 92.014 247.467C78.506 247.467 67.552 247.394 67.552 247.304C67.552 247.213 78.502 247.139 92.014 247.139C105.526 247.139 116.474 247.213 116.474 247.304Z" fill="#263238"/>
<path d="M116.474 237.408C116.474 237.5 105.522 237.572 92.014 237.572C78.506 237.572 67.552 237.499 67.552 237.408C67.552 237.318 78.502 237.245 92.014 237.245C105.526 237.245 116.474 237.318 116.474 237.408Z" fill="#263238"/>
<path d="M116.474 227.513C116.474 227.605 105.522 227.677 92.014 227.677C78.506 227.677 67.552 227.604 67.552 227.513C67.552 227.423 78.502 227.35 92.014 227.35C105.526 227.35 116.474 227.423 116.474 227.513Z" fill="#263238"/>
<path d="M116.474 217.615C116.474 217.706 105.522 217.778 92.014 217.778C78.506 217.778 67.552 217.705 67.552 217.615C67.552 217.524 78.502 217.451 92.014 217.451C105.526 217.451 116.474 217.527 116.474 217.615Z" fill="#263238"/>
<path d="M116.474 207.723C116.474 207.815 105.522 207.887 92.014 207.887C78.506 207.887 67.552 207.814 67.552 207.723C67.552 207.632 78.502 207.56 92.014 207.56C105.526 207.56 116.474 207.633 116.474 207.723Z" fill="#263238"/>
<path d="M116.474 197.828C116.474 197.92 105.522 197.991 92.014 197.991C78.506 197.991 67.552 197.918 67.552 197.828C67.552 197.738 78.502 197.665 92.014 197.665C105.526 197.665 116.474 197.738 116.474 197.828Z" fill="#263238"/>
<path d="M108.742 263.189C108.742 263.957 108.493 264.709 108.028 265.348C107.562 265.987 106.9 266.485 106.125 266.779C105.351 267.073 104.498 267.15 103.676 267C102.854 266.85 102.098 266.48 101.506 265.936C100.913 265.393 100.509 264.701 100.345 263.947C100.182 263.193 100.266 262.412 100.587 261.702C100.907 260.992 101.451 260.385 102.148 259.958C102.845 259.531 103.665 259.303 104.503 259.303C105.627 259.303 106.705 259.713 107.5 260.441C108.295 261.17 108.742 262.158 108.742 263.189Z" fill="#263238"/>
<path d="M111.693 263.189C111.693 263.957 111.444 264.709 110.979 265.347C110.513 265.986 109.851 266.484 109.076 266.779C108.302 267.073 107.45 267.15 106.627 267C105.805 266.85 105.05 266.48 104.457 265.937C103.864 265.393 103.46 264.701 103.297 263.947C103.133 263.194 103.217 262.413 103.537 261.703C103.858 260.993 104.401 260.386 105.098 259.959C105.795 259.531 106.615 259.303 107.453 259.303C108.577 259.303 109.656 259.713 110.451 260.441C111.246 261.17 111.693 262.158 111.693 263.189Z" fill="#455A64"/>
<path d="M75.0139 263.189C75.0139 263.957 74.7653 264.709 74.2995 265.348C73.8338 265.987 73.1717 266.485 72.3971 266.779C71.6226 267.073 70.7702 267.15 69.948 267C69.1257 266.85 68.3704 266.48 67.7775 265.936C67.1847 265.393 66.781 264.701 66.6174 263.947C66.4538 263.193 66.5378 262.412 66.8586 261.702C67.1795 260.992 67.7228 260.385 68.4199 259.958C69.117 259.531 69.9366 259.303 70.775 259.303C71.8991 259.303 72.9772 259.713 73.7721 260.442C74.567 261.17 75.0137 262.158 75.0139 263.189Z" fill="#263238"/>
<path d="M77.9649 263.189C77.9649 263.957 77.7163 264.709 77.2505 265.348C76.7848 265.987 76.1227 266.485 75.3481 266.779C74.5736 267.073 73.7212 267.15 72.8989 267C72.0767 266.85 71.3214 266.48 70.7285 265.936C70.1357 265.393 69.732 264.701 69.5684 263.947C69.4048 263.193 69.4888 262.412 69.8096 261.702C70.1305 260.992 70.6738 260.385 71.3709 259.958C72.068 259.531 72.8875 259.303 73.7259 259.303C74.8502 259.303 75.9284 259.713 76.7234 260.441C77.5183 261.17 77.9649 262.158 77.9649 263.189Z" fill="#455A64"/>
<path d="M64.216 210.134C64.216 208.802 63.0385 207.723 61.586 207.723C60.1335 207.723 58.956 208.802 58.956 210.134V230.958C58.956 232.289 60.1335 233.369 61.586 233.369C63.0385 233.369 64.216 232.289 64.216 230.958V210.134Z" fill="#263238"/>
<path d="M62.606 258.658C62.5452 258.626 62.4885 258.588 62.437 258.545L61.962 258.187C61.3894 257.685 60.899 257.11 60.506 256.479C59.431 254.847 58.796 252.089 58.817 248.73C58.942 242.015 59.227 232.756 59.517 222.523C59.841 212.298 60.135 203.044 60.347 196.318C60.3319 194.802 60.4769 193.288 60.78 191.797C61.0327 190.662 61.6093 189.607 62.451 188.742C62.9813 188.196 63.6509 187.778 64.4 187.527C64.6585 187.438 64.9296 187.383 65.205 187.365C65.205 187.384 64.924 187.411 64.425 187.589C63.7028 187.861 63.0612 188.285 62.553 188.828C61.7492 189.688 61.2049 190.726 60.974 191.839C60.6943 193.32 60.5684 194.822 60.598 196.326C60.412 203.052 60.155 212.307 59.872 222.533C59.557 232.754 59.272 242.006 59.063 248.731C59.011 252.073 59.601 254.793 60.621 256.419C61.1361 257.265 61.8078 258.022 62.606 258.658Z" fill="#263238"/>
<path d="M146.836 139.522L137.499 145.073L136.65 153.722C136.65 153.722 139.398 154.898 143.428 151.539C147.458 148.179 152.709 141.369 152.709 141.369L146.836 139.522Z" fill="#FFBE9D"/>
<path d="M146.422 143.074L143.362 128.851L135.2 131.814L137.286 150.547L146.422 143.074Z" fill="#FFBE9D"/>
<path d="M168.542 125.07C168.483 124.921 168.382 124.788 168.25 124.685C168.119 124.583 167.96 124.513 167.79 124.483L161.923 123.445C161.667 123.403 161.405 123.412 161.153 123.47C160.901 123.528 160.665 123.634 160.461 123.781L142.744 136.557L143.469 137.29L149.734 139.041L168.645 125.32L168.542 125.07Z" fill="#263238"/>
<path d="M163.785 125.964C163.806 126.043 163.853 126.114 163.921 126.167C163.988 126.22 164.072 126.252 164.16 126.258C164.248 126.265 164.336 126.246 164.412 126.204C164.488 126.163 164.548 126.1 164.583 126.025C164.618 125.951 164.626 125.868 164.607 125.789C164.588 125.71 164.542 125.638 164.476 125.584C164.41 125.53 164.327 125.496 164.239 125.488C164.15 125.48 164.062 125.497 163.985 125.537C163.898 125.571 163.828 125.634 163.791 125.714C163.754 125.794 163.751 125.883 163.785 125.964Z" fill="white"/>
<path d="M168.645 125.325C168.256 125.307 167.869 125.26 167.488 125.184L164.361 124.681L162.205 124.315C162.026 124.274 161.84 124.271 161.66 124.305C161.48 124.339 161.311 124.41 161.165 124.513L160.153 125.246L155.624 128.521C152.404 130.838 149.476 132.921 147.347 134.416L144.813 136.172C144.511 136.398 144.191 136.602 143.854 136.782C144.124 136.524 144.416 136.287 144.727 136.072L147.191 134.233C149.281 132.693 152.183 130.581 155.403 128.264L159.949 125.009L160.976 124.276C161.157 124.153 161.365 124.068 161.586 124.028C161.806 123.987 162.034 123.991 162.253 124.04L164.404 124.443L167.514 125.049C167.898 125.113 168.277 125.205 168.645 125.325Z" fill="#455A64"/>
<path d="M160.254 129.252C160.254 129.252 159.785 129.014 159.047 130.182C158.309 131.35 156.096 134.669 156.096 134.669L153.95 132.579L150.531 131.95C150.531 131.95 149.592 132.333 149.994 132.825C150.712 133.398 151.5 133.893 152.342 134.299L153.122 136.786L149.458 133.486C149.458 133.486 147.867 133.381 147.992 134.332C148.559 135.864 149.272 137.346 150.123 138.763L147.984 137.927L145.912 135.661C145.912 135.661 145.099 135.445 145.166 136.164C145.689 137.489 146.34 138.768 147.111 139.986L149.86 142.476C149.86 142.476 151.705 142.906 152.06 142.476C152.319 142.129 152.537 141.758 152.711 141.369C152.711 141.369 153.752 141.431 154.087 141.061C154.324 140.737 154.484 140.371 154.557 139.986C154.557 139.986 155.965 140.694 156.434 139.986C156.92 139.074 157.237 138.095 157.373 137.088C157.44 136.452 160.256 131.228 160.256 131.043C160.256 130.857 161.328 129.183 160.254 129.252Z" fill="#FFBE9D"/>
<path d="M152.17 142.522C151.857 142.587 151.53 142.579 151.221 142.499C149.69 142.236 148.326 141.45 147.405 140.299C147.063 139.858 146.933 139.544 146.971 139.524C148.252 141.066 150.1 142.131 152.171 142.52L152.17 142.522Z" fill="#EB996E"/>
<path d="M151.792 141.196C151.715 141.25 151.235 140.788 150.787 140.126C150.465 139.749 150.258 139.3 150.187 138.826C150.276 138.785 150.652 139.305 151.093 139.953C151.534 140.601 151.872 141.138 151.792 141.196Z" fill="#EB996E"/>
<path d="M154.487 139.128C154.411 139.182 153.934 138.729 153.534 138.051C153.239 137.664 153.077 137.205 153.067 136.732C153.167 136.7 153.459 137.244 153.847 137.895C154.235 138.547 154.567 139.072 154.487 139.128Z" fill="#EB996E"/>
<path d="M157.086 137.597C156.753 136.632 156.397 135.674 156.02 134.724C156.419 135.1 156.722 135.553 156.907 136.05C157.091 136.547 157.152 137.075 157.086 137.597Z" fill="#EB996E"/>
<path d="M115.749 72.2742C116.177 70.721 117.108 69.3231 118.42 68.2649C119.732 67.2067 121.363 66.5379 123.098 66.3468C124.833 66.1557 126.591 66.4513 128.139 67.1944C129.687 67.9376 130.953 69.0935 131.77 70.5097C133.297 73.1578 133.27 76.6805 135.804 78.5761C137.542 79.874 140.067 80.0207 141.764 81.3627C145.358 84.2042 143.274 90.5226 147.084 93.1195C144.699 94.8997 141.89 96.1398 138.884 96.7393C138.665 95.8 138.151 94.9399 137.406 94.2643C137.648 95.0889 137.603 95.962 137.279 96.7624C136.955 97.5628 136.367 98.2509 135.597 98.7311C134.032 99.663 132.252 100.246 130.397 100.434C125.991 101.157 121.432 101.564 117.061 100.679C112.69 99.7944 108.496 97.4543 106.434 93.8124C106.019 92.8433 105.421 91.949 104.667 91.1707C103.655 90.525 102.538 90.03 101.357 89.7041C99.8178 89.0485 98.5251 87.9895 97.6423 86.6608C96.7595 85.3321 96.3261 83.7933 96.397 82.239C99.297 82.0721 101.278 79.5147 102.446 77.0792C103.614 74.6437 104.554 71.8975 106.935 70.3768C107.728 69.8699 108.637 69.5357 109.592 69.3995C110.548 69.2633 111.525 69.3288 112.448 69.5909C113.372 69.853 114.218 70.3048 114.923 70.912C115.627 71.5191 116.171 72.2656 116.513 73.0946" fill="#263238"/>
<path d="M108.919 78.0976L108.795 75.8665L123.337 72.9003C127.837 72.3347 132.851 76.3395 133.276 80.4809C133.749 85.0815 134.128 90.716 133.649 94.1727C132.685 101.124 126.931 102.168 126.931 102.168L127.131 110.622L110.469 110.072L108.919 78.0976Z" fill="#FFBE9D"/>
<path d="M131.272 85.615C131.281 85.8449 131.192 86.0692 131.024 86.2403C130.856 86.4113 130.622 86.5158 130.372 86.5316C130.249 86.5441 130.125 86.534 130.007 86.5018C129.888 86.4696 129.778 86.416 129.683 86.3441C129.587 86.2723 129.508 86.1836 129.451 86.0834C129.393 85.9832 129.358 85.8735 129.348 85.7607C129.338 85.5299 129.426 85.3045 129.594 85.1324C129.762 84.9602 129.997 84.8548 130.248 84.8386C130.371 84.8263 130.496 84.8368 130.614 84.8695C130.733 84.9021 130.843 84.9562 130.939 85.0286C131.034 85.1009 131.113 85.1901 131.17 85.2908C131.227 85.3916 131.262 85.5018 131.272 85.615Z" fill="#263238"/>
<path d="M131.78 83.4645C131.664 83.5828 130.914 83.107 129.872 83.1391C128.832 83.1575 128.084 83.6699 127.972 83.5571C127.915 83.5067 128.03 83.294 128.355 83.063C128.796 82.7637 129.327 82.5969 129.876 82.5855C130.418 82.5679 130.951 82.7092 131.399 82.9888C131.722 83.2042 131.838 83.4104 131.78 83.4645Z" fill="#263238"/>
<path d="M121.573 86.0238C121.583 86.2545 121.495 86.4798 121.327 86.6518C121.159 86.8238 120.924 86.929 120.673 86.945C120.55 86.9575 120.426 86.9474 120.307 86.9152C120.189 86.883 120.079 86.8294 119.983 86.7576C119.888 86.6858 119.809 86.5971 119.751 86.4969C119.694 86.3967 119.659 86.2869 119.648 86.1741C119.637 85.9432 119.726 85.7177 119.894 85.5455C120.062 85.3733 120.296 85.268 120.548 85.252C120.671 85.2394 120.795 85.2496 120.914 85.2818C121.032 85.3141 121.143 85.3678 121.238 85.4397C121.334 85.5116 121.412 85.6004 121.47 85.7007C121.527 85.801 121.562 85.9108 121.573 86.0238Z" fill="#263238"/>
<path d="M121.55 83.9338C121.434 84.053 120.683 83.5763 119.642 83.6084C118.601 83.6405 117.854 84.1401 117.742 84.0264C117.685 83.976 117.799 83.7642 118.126 83.5323C118.567 83.2332 119.098 83.0664 119.646 83.0548C120.187 83.0378 120.721 83.179 121.169 83.4581C121.491 83.6735 121.607 83.8797 121.55 83.9338Z" fill="#263238"/>
<path d="M125.565 90.9049C126.108 90.7316 126.674 90.6213 127.247 90.5767C127.512 90.5437 127.762 90.4851 127.802 90.321C127.816 90.069 127.746 89.819 127.602 89.6042C127.335 89.0212 127.052 88.4101 126.753 87.7709C125.97 86.2193 125.325 84.6124 124.823 82.9659C125.74 84.4562 126.525 86.0115 127.171 87.6169C127.456 88.261 127.728 88.8763 127.988 89.463C128.165 89.7524 128.225 90.0895 128.158 90.4154C128.122 90.5019 128.065 90.5799 127.991 90.6434C127.918 90.7069 127.829 90.7543 127.733 90.782C127.587 90.8225 127.436 90.8462 127.284 90.8526C126.716 90.9368 126.138 90.9543 125.565 90.9049Z" fill="#263238"/>
<path d="M126.929 102.186C123.294 102.341 119.682 101.584 116.482 99.9961C116.482 99.9961 119.195 104.763 126.982 103.911L126.929 102.186Z" fill="#EB996E"/>
<path d="M125.209 93.2185C125.003 92.996 124.74 92.825 124.442 92.7216C124.145 92.6182 123.824 92.5857 123.509 92.6272C123.28 92.6527 123.058 92.7204 122.858 92.8262C122.658 92.9321 122.484 93.0739 122.345 93.2432C122.211 93.4062 122.135 93.603 122.127 93.807C122.119 94.011 122.18 94.2123 122.301 94.3835C122.474 94.5498 122.698 94.6649 122.943 94.7139C123.188 94.7629 123.444 94.7436 123.677 94.6585C124.163 94.4848 124.607 94.2243 124.983 93.8922C125.098 93.8127 125.196 93.7141 125.271 93.6016C125.307 93.5479 125.325 93.4855 125.323 93.4223C125.32 93.3592 125.297 93.2981 125.257 93.2469" fill="#EB996E"/>
<path d="M122.526 91.6519C122.695 91.6382 122.732 92.674 123.726 93.3816C124.72 94.0893 125.918 93.9417 125.931 94.0865C125.949 94.1507 125.67 94.2955 125.161 94.3221C124.499 94.3496 123.848 94.1623 123.322 93.7932C122.817 93.4381 122.483 92.9172 122.389 92.3403C122.331 91.9086 122.448 91.6483 122.526 91.6519Z" fill="#263238"/>
<path d="M121.695 81.2316C121.601 81.4947 120.557 81.4003 119.34 81.5698C118.119 81.7174 117.145 82.0731 116.975 81.8448C116.899 81.7348 117.063 81.4864 117.452 81.2233C117.974 80.9 118.569 80.6898 119.193 80.6088C119.817 80.5278 120.453 80.5781 121.052 80.7559C121.495 80.9099 121.733 81.1069 121.695 81.2316Z" fill="#263238"/>
<path d="M131.638 80.1921C131.462 80.4139 130.738 80.2086 129.874 80.2233C129.011 80.2095 128.286 80.4139 128.11 80.1921C128.033 80.0839 128.141 79.864 128.453 79.6495C128.874 79.3912 129.368 79.2533 129.874 79.2533C130.381 79.2533 130.875 79.3912 131.296 79.6495C131.607 79.864 131.715 80.0839 131.638 80.1921Z" fill="#263238"/>
<path d="M123.113 73.1936C123.009 74.6474 122.436 76.0402 121.468 77.1957C120.5 78.3511 119.179 79.2172 117.674 79.6843C116.469 80.0363 114.948 80.2948 114.558 81.3984C114.158 82.5415 115.317 83.5883 115.864 84.6791C116.189 85.357 116.288 86.1077 116.15 86.8372C116.012 87.5668 115.643 88.2429 115.088 88.781C114.449 89.3796 113.598 89.7683 112.994 90.398C112.607 90.8277 112.33 91.3316 112.184 91.8724C112.038 92.4133 112.027 92.9772 112.15 93.5228C112.411 94.6168 113.04 95.6078 113.95 96.3552C111.097 96.5046 107.966 95.1737 107.037 92.696C106.634 91.1742 106.619 89.5875 106.994 88.0596C107.506 84.532 107.664 80.9688 107.466 77.4147C107.359 76.8149 107.468 76.1995 107.776 75.6612C108.203 75.2094 108.782 74.9006 109.422 74.783C113.447 73.6328 117.551 72.7288 121.707 72.0771" fill="#263238"/>
<path d="M121.421 72.1889C122.138 73.5515 123.083 74.8031 124.221 75.8986C124.797 76.4421 125.502 76.8563 126.281 77.1088C127.06 77.3613 127.892 77.4453 128.713 77.3542L127.838 76.0049C130.141 78.1748 132.911 79.8814 135.973 81.0162C134.466 78.4202 132.908 75.7638 130.498 73.8224C128.088 71.881 124.607 70.7746 121.605 71.8113" fill="#263238"/>
<path d="M128.065 107.894L109.47 106.583L112.593 115.608L128.501 120.466L130.611 117.193L128.065 107.894Z" fill="#FFBE9D"/>
<path d="M92.769 122.55C90.5397 121.889 88.1778 121.692 85.8549 121.972C83.532 122.253 81.3064 123.004 79.3398 124.171C77.3732 125.339 75.7151 126.893 74.4858 128.722C73.2565 130.55 72.4869 132.606 72.233 134.741C71.742 138.879 73.205 143.093 72.433 147.195C71.864 150.213 70.121 152.946 69.348 155.928C67.682 162.354 71.021 169.449 76.899 173.27C82.777 177.092 90.767 177.731 97.553 175.511L104.526 165.461L99.906 126.913L92.768 122.548" fill="#455A64"/>
<path d="M103.908 149.855C103.908 149.855 102.319 157.684 103.273 158.868C103.902 159.594 104.813 160.071 105.815 160.198L136.65 158.013L137.671 142.457C137.671 142.457 140.781 131.791 139.35 127.274C137.919 122.758 131.784 108.919 131.784 108.919L127.061 107.623C127.061 107.623 127.061 112.139 125.317 112.43C123.573 112.722 115.179 112.77 111.059 107.899L109.47 106.589L100.676 112.461L104.701 144.32L103.908 149.855Z" fill="#4CCB9E"/>
<path d="M90.004 121.991C90.004 121.991 95.75 114.088 98.051 111.856C101.67 108.345 106.776 106.914 108.003 107.565C109.682 108.455 118.078 116.464 118.75 121.87C119.422 127.275 118.75 140.687 118.75 140.687L111.657 142.645L111.572 136.165L110.398 120.232C110.398 120.232 107.488 112.738 100.677 112.453C100.677 112.453 93.559 117.938 93.3 123.219L90.004 121.991Z" fill="#455A64"/>
<path d="M106.538 151.835L92.3149 163.731L96.0729 168.325C96.0729 168.325 113.373 158.218 115.179 148.145L106.538 151.835Z" fill="#455A64"/>
<path d="M88.547 176.788C87.8179 176.419 87.1314 175.983 86.498 175.488C84.7438 174.147 83.3045 172.494 82.267 170.629C81.5474 169.345 81.004 167.983 80.649 166.576C80.2752 164.957 80.0832 163.307 80.076 161.652C80.1313 157.874 80.5618 154.108 81.362 150.402C82.1572 146.713 82.636 142.972 82.794 139.214C82.8228 137.578 82.6967 135.942 82.417 134.325C82.146 132.807 81.798 131.399 81.623 130.087C81.4312 128.907 81.4289 127.707 81.616 126.526C81.7635 125.633 82.0803 124.77 82.552 123.977C82.8494 123.476 83.2341 123.024 83.691 122.637C83.8465 122.499 84.0171 122.376 84.2 122.27C83.5813 122.771 83.0646 123.369 82.674 124.035C82.2336 124.823 81.9425 125.674 81.813 126.551C81.6499 127.716 81.6701 128.895 81.873 130.054C82.062 131.351 82.423 132.75 82.709 134.278C83.005 135.909 83.1436 137.561 83.123 139.214C82.9843 142.989 82.5135 146.748 81.715 150.454C80.9181 154.142 80.48 157.888 80.406 161.646C80.4047 163.282 80.5836 164.913 80.94 166.515C81.2786 167.904 81.8004 169.25 82.494 170.523C83.5017 172.374 84.8945 174.027 86.594 175.389C86.889 175.635 87.169 175.834 87.413 176.006C87.657 176.179 87.863 176.325 88.037 176.433L88.427 176.688C88.507 176.751 88.551 176.784 88.547 176.788Z" fill="#263238"/>
<path d="M81.935 146.779C80.303 146.942 78.6604 146.996 77.02 146.943C75.3788 146.997 73.7356 146.942 72.103 146.779C73.7355 146.616 75.3788 146.561 77.02 146.615C78.6605 146.561 80.3031 146.616 81.935 146.779Z" fill="#263238"/>
<path d="M131.784 108.914C131.784 108.914 137.322 111.187 139.227 114.063C141.132 116.938 146.285 133.388 146.285 133.388L139.034 134.705L131.784 108.914Z" fill="#4CCB9E"/>
<path d="M135.801 132.658C135.801 132.658 134.129 117.625 133.431 116.646C132.733 115.667 131.608 108.342 128.066 107.895C130.121 108.33 132.101 109.021 133.95 109.95C136.103 111.217 138.45 118.049 138.45 118.049L139.808 129.966L135.801 132.658Z" fill="#455A64"/>
<path d="M91.608 119.487C91.3338 119.116 90.9878 118.795 90.587 118.538C90.1434 118.287 89.6376 118.144 89.117 118.122C88.4791 118.108 87.8494 118.256 87.297 118.549C86.2855 119.114 85.4978 119.962 85.049 120.967C84.676 121.735 84.528 122.25 84.472 122.236C84.49 121.767 84.6068 121.307 84.816 120.879C85.2245 119.786 86.0412 118.86 87.122 118.265C87.7324 117.942 88.4315 117.789 89.135 117.823C89.7082 117.861 90.2589 118.043 90.727 118.348C90.9527 118.471 91.1478 118.636 91.2996 118.832C91.4514 119.028 91.5564 119.252 91.608 119.487Z" fill="#263238"/>
<path d="M110.398 120.235C110.227 119.962 110.08 119.677 109.957 119.383C109.888 119.241 109.814 119.086 109.734 118.92L109.417 118.389L109.052 117.777L108.573 117.125C107.767 116.048 106.758 115.111 105.593 114.357C104.137 113.406 102.443 112.807 100.667 112.615H100.65C99.3234 112.578 98.0204 112.943 96.943 113.653L96.979 113.625L96.847 113.769C94.1195 116.713 91.6669 119.863 89.515 123.184C88.689 124.459 88.057 125.512 87.627 126.242L87.127 127.083C87.076 127.185 87.0108 127.28 86.933 127.367C86.961 127.258 87.0044 127.153 87.062 127.054C87.162 126.855 87.301 126.558 87.501 126.185C87.894 125.436 88.493 124.364 89.294 123.069C91.3924 119.698 93.8292 116.513 96.573 113.557L96.706 113.413L96.722 113.396L96.741 113.385C97.3386 113.031 97.9805 112.745 98.653 112.532C99.307 112.313 100.007 112.234 100.7 112.303H100.683C102.52 112.503 104.27 113.135 105.764 114.136C106.944 114.92 107.958 115.895 108.754 117.014L109.22 117.688L109.568 118.319L109.868 118.869L110.068 119.346C110.203 119.634 110.313 119.931 110.398 120.235Z" fill="#263238"/>
<path d="M104.402 157.612C103.91 158.049 103.364 158.432 102.775 158.753C100.006 160.419 96.9328 161.617 93.702 162.288C93.0411 162.455 92.3611 162.551 91.676 162.572C92.3194 162.367 92.9756 162.198 93.641 162.064C96.8015 161.277 99.8296 160.097 102.641 158.557C103.207 158.211 103.795 157.895 104.402 157.612Z" fill="#263238"/>
<path d="M186.352 223.351L182.024 261.863L168.804 261.697L167.854 221.003L186.352 223.351Z" fill="#FFBE9D"/>
<path d="M182.409 258.194V259.001C182.409 259.001 197.3 264.524 197.451 267.118L167.851 266.907L168.33 257.882C170.515 258.857 172.903 259.389 175.332 259.443C177.762 259.497 180.175 259.071 182.409 258.194Z" fill="#455A64"/>
<g opacity="0.6">
<path d="M171.306 260.788C171.021 260.866 170.777 261.037 170.62 261.269C170.464 261.501 170.407 261.778 170.459 262.047C170.533 262.311 170.714 262.539 170.966 262.684C171.218 262.829 171.521 262.88 171.813 262.827C172.115 262.744 172.374 262.562 172.538 262.315C172.702 262.068 172.761 261.774 172.702 261.49C172.594 261.222 172.377 261.003 172.096 260.878C171.816 260.753 171.493 260.733 171.197 260.822" fill="white"/>
</g>
<g opacity="0.6">
<path d="M167.854 266.905L167.969 264.734L196.295 265.732C196.295 265.732 197.608 266.266 197.452 267.116L167.854 266.905Z" fill="white"/>
</g>
<path d="M182.514 259.077C182.508 259.209 181.785 259.26 181.07 259.685C180.343 260.089 179.97 260.66 179.839 260.606C179.706 260.579 179.929 259.789 180.803 259.293C181.677 258.797 182.546 258.956 182.514 259.077Z" fill="#263238"/>
<path d="M185.608 260.275C185.639 260.403 185.008 260.625 184.516 261.181C184.002 261.725 183.874 262.329 183.729 262.324C183.593 262.343 183.5 261.566 184.129 260.885C184.758 260.204 185.606 260.149 185.608 260.275Z" fill="#263238"/>
<path d="M187.342 263.694C187.211 263.721 187.015 263.058 187.393 262.335C187.771 261.613 188.448 261.327 188.509 261.44C188.59 261.55 188.148 261.936 187.848 262.533C187.548 263.131 187.485 263.682 187.342 263.694Z" fill="#263238"/>
<path d="M190.264 233.033L210.37 254.024L200.927 262.507L177.066 243.401L190.264 233.033Z" fill="#FFBE9D"/>
<path d="M207.801 251.192L208.426 251.76C208.426 251.76 223.194 245.965 225.307 247.694L204.289 266.799L197.64 260.128C199.934 259.394 202.029 258.216 203.782 256.674C205.535 255.132 206.906 253.263 207.801 251.192Z" fill="#455A64"/>
<g opacity="0.6">
<path d="M201.981 260.243C201.84 260.483 201.801 260.762 201.871 261.028C201.94 261.293 202.114 261.525 202.359 261.68C202.615 261.818 202.92 261.861 203.209 261.799C203.499 261.737 203.752 261.576 203.916 261.349C204.065 261.095 204.106 260.798 204.031 260.517C203.955 260.237 203.769 259.991 203.508 259.829C203.224 259.71 202.901 259.697 202.607 259.792C202.312 259.887 202.069 260.083 201.929 260.338" fill="white"/>
</g>
<g opacity="0.6">
<path d="M204.289 266.796L202.689 265.192L223.419 247.469C223.419 247.469 224.758 246.991 225.306 247.692L204.289 266.796Z" fill="white"/>
</g>
<path d="M208.559 251.746C208.659 251.843 208.19 252.351 208.012 253.113C207.812 253.87 207.993 254.514 207.858 254.562C207.744 254.63 207.288 253.929 207.521 253.01C207.754 252.09 208.488 251.639 208.559 251.746Z" fill="#263238"/>
<path d="M211.667 250.579C211.789 250.648 211.518 251.213 211.6 251.927C211.659 252.644 212.036 253.154 211.93 253.243C211.849 253.345 211.182 252.859 211.099 251.968C211.016 251.077 211.568 250.491 211.667 250.579Z" fill="#263238"/>
<path d="M215.535 251.858C215.464 251.963 214.813 251.623 214.519 250.868C214.225 250.114 214.483 249.472 214.612 249.511C214.754 249.536 214.741 250.096 214.992 250.712C215.228 251.333 215.627 251.757 215.535 251.858Z" fill="#263238"/>
<path d="M104.621 112.89C103.899 112.358 102.989 112.09 102.065 112.135C101.14 112.181 100.267 112.537 99.611 113.136C97.094 115.441 93.44 119.314 93.329 122.457C93.16 127.266 92.314 139.986 92.314 139.986L111.606 139.367C111.606 139.367 111.606 122.458 109.914 118.58C108.957 116.387 106.541 114.293 104.621 112.89Z" fill="#4CCB9E"/>
<path d="M94.5409 139.985C94.5409 139.985 93.4409 149.714 94.6639 154.177C95.9279 158.794 98.4229 158.725 100.528 158.863C102.633 159 135.783 143.073 135.783 143.073L132.104 137.086L107.144 143.977L107.376 139.511L94.5409 139.985Z" fill="#FFBE9D"/>
<path d="M131.892 137.267L137.876 130.399L143.276 129.252L149.86 129.916C149.925 130.196 149.882 130.487 149.737 130.74C149.593 130.994 149.357 131.193 149.07 131.304L151.375 131.424C151.437 131.578 151.464 131.743 151.455 131.907C151.445 132.071 151.398 132.232 151.318 132.379C151.238 132.526 151.126 132.656 150.988 132.762C150.851 132.868 150.691 132.946 150.519 132.993L152.165 133.258C151.948 133.697 151.578 134.058 151.113 134.283C150.648 134.509 150.115 134.586 149.597 134.502C147.982 134.3 146.354 134.199 144.724 134.2L141.497 135.83L146.304 135.647L149.794 136.251C149.794 136.251 150.255 137.07 149.465 137.259C148.194 137.359 146.916 137.359 145.645 137.259L141.035 138.359C140.641 139.515 140.112 140.628 139.455 141.679C138.863 142.283 135.57 143.067 135.57 143.067L131.892 137.267Z" fill="#FFBE9D"/>
<path d="M151.379 131.425C150.781 131.46 150.181 131.44 149.588 131.364C148.488 131.286 146.968 131.154 145.288 130.989L143.68 130.824L143.746 130.818C142.499 131.141 141.416 131.408 140.646 131.585C140.241 131.706 139.821 131.783 139.396 131.814C139.773 131.631 140.172 131.49 140.585 131.393C141.343 131.163 142.413 130.857 143.654 130.515L143.685 130.505H143.72L145.329 130.659C147.004 130.824 148.519 130.992 149.613 131.13C150.211 131.174 150.802 131.273 151.379 131.425Z" fill="#EB996E"/>
<path d="M151.777 133.197C151.234 133.218 150.69 133.183 150.155 133.095C149.155 132.99 147.786 132.825 146.274 132.622L144.768 132.414L144.857 132.404C143.628 132.895 142.361 133.304 141.067 133.627C142.246 133.041 143.47 132.535 144.729 132.112L144.771 132.097L144.818 132.102L146.326 132.298C147.839 132.502 149.206 132.704 150.192 132.866C150.732 132.922 151.264 133.033 151.777 133.197Z" fill="#EB996E"/>
<path d="M135.576 143.074C135.747 143.009 135.924 142.955 136.103 142.911C136.45 142.81 136.966 142.662 137.624 142.446C137.951 142.335 138.315 142.207 138.698 142.041C138.896 141.958 139.086 141.859 139.265 141.744C139.439 141.605 139.578 141.434 139.674 141.242C140.17 140.302 140.591 139.331 140.933 138.334L140.954 138.28L141.014 138.266L145.614 137.145L145.635 137.14H145.659C146.444 137.183 147.275 137.218 148.135 137.216C148.564 137.226 148.992 137.198 149.415 137.134C149.499 137.123 149.578 137.089 149.64 137.036C149.703 136.984 149.747 136.915 149.766 136.839C149.786 136.661 149.748 136.48 149.658 136.321L149.768 136.396L146.277 135.8H146.315L141.508 135.988L140.77 136.016L141.417 135.689L144.642 134.057L144.682 134.036H144.727C145.945 134.045 147.227 134.083 148.534 134.203C148.893 134.238 149.251 134.28 149.607 134.336C149.931 134.391 150.264 134.384 150.584 134.313C150.894 134.23 151.181 134.087 151.426 133.894C151.671 133.7 151.869 133.462 152.005 133.193L152.137 133.417L150.491 133.151L149.885 133.053L150.456 132.843C150.758 132.747 151.011 132.554 151.169 132.299C151.301 132.043 151.318 131.749 151.216 131.481L151.367 131.582L149.067 131.458L148.438 131.424L149.001 131.163C149.253 131.056 149.463 130.879 149.601 130.658C149.724 130.441 149.763 130.192 149.71 129.952L149.852 130.064L143.269 129.384H143.318L137.918 130.508L137.986 130.469L133.558 135.468L132.345 136.811L132.024 137.155C131.95 137.231 131.91 137.268 131.906 137.265C131.929 137.218 131.96 137.174 131.997 137.135L132.291 136.768L133.452 135.387L137.793 130.324L137.819 130.293L137.862 130.284L143.256 129.116L143.28 129.111H143.305L149.892 129.759L150.012 129.771L150.035 129.871C150.112 130.185 150.065 130.513 149.903 130.798C149.734 131.077 149.474 131.302 149.16 131.44L149.094 131.144L151.399 131.263L151.516 131.268L151.55 131.36C151.619 131.534 151.649 131.719 151.64 131.904C151.63 132.088 151.58 132.27 151.493 132.437C151.296 132.763 150.976 133.012 150.593 133.136L150.559 132.828L152.205 133.091L152.436 133.128L152.336 133.311C152.179 133.626 151.95 133.906 151.664 134.131C151.378 134.357 151.042 134.524 150.68 134.619C150.31 134.702 149.925 134.712 149.551 134.649C149.207 134.595 148.857 134.557 148.503 134.519C147.22 134.4 145.937 134.361 144.733 134.351L144.818 134.331L141.59 135.958L141.499 135.659L146.306 135.486H146.325H146.343L149.831 136.097L149.911 136.111L149.942 136.172C150.064 136.389 150.111 136.636 150.075 136.878C150.043 137.006 149.972 137.122 149.869 137.213C149.767 137.304 149.637 137.365 149.497 137.389C149.049 137.459 148.595 137.487 148.141 137.474C147.268 137.474 146.441 137.429 145.641 137.382H145.686L141.07 138.461L141.15 138.392C140.792 139.395 140.351 140.372 139.831 141.314C139.72 141.524 139.561 141.71 139.364 141.858C139.175 141.975 138.974 142.076 138.764 142.16C138.364 142.322 137.999 142.441 137.664 142.545C136.996 142.746 136.475 142.876 136.12 142.96L135.72 143.052C135.674 143.066 135.625 143.074 135.576 143.074Z" fill="#EB996E"/>
<path d="M91.981 139.985C92.0869 139.961 92.1957 139.948 92.305 139.948L93.24 139.893L96.731 139.741L108.693 139.321L108.526 139.474C108.57 137.937 108.542 136.298 108.447 134.616C108.295 131.833 108.031 129.186 107.861 126.77C107.769 125.562 107.732 124.412 107.626 123.347C107.538 122.36 107.371 121.379 107.126 120.414C106.785 119.012 106.151 117.684 105.259 116.504C104.609 115.679 104.127 115.312 104.153 115.291C104.281 115.364 104.399 115.452 104.503 115.551C104.818 115.821 105.108 116.114 105.37 116.428C106.322 117.599 107.002 118.937 107.37 120.358C107.634 121.332 107.817 122.323 107.917 123.323C108.037 124.399 108.085 125.547 108.186 126.751C108.373 129.161 108.648 131.808 108.8 134.601C108.9 136.292 108.92 137.939 108.868 139.488V139.637H108.706L96.74 139.943L93.24 140.002H92.304C92.196 140.008 92.0875 140.003 91.981 139.985Z" fill="#263238"/>
<path d="M105.814 160.194C105.814 160.194 97.081 171.117 97.081 175.484C97.081 179.851 97.264 186.399 102.943 191.101C108.622 195.802 178.107 250.817 178.107 250.817L195.042 237.127L132.076 178.842C132.076 178.842 135.007 173.972 133.724 171.957C132.968 170.759 131.811 169.817 130.424 169.27L130.241 158.463L105.814 160.194Z" fill="#263238"/>
<path d="M136.649 158.008L138.126 169.521C138.126 169.521 182.851 190.766 186.459 197.043C188.094 199.885 189.679 225.637 189.679 225.637L167.626 226.095L164.773 205.692L152.939 199.825L131.783 180.118L124.578 158.862L136.649 158.008Z" fill="#263238"/>
<path d="M116.478 159.761C116.578 159.979 116.646 160.209 116.678 160.445C116.814 161.077 116.9 161.717 116.936 162.36C116.993 163.32 116.917 164.283 116.71 165.225C116.454 166.389 115.941 167.493 115.202 168.468C114.463 169.455 113.453 170.246 112.273 170.76C111.302 171.164 110.237 171.342 109.173 171.276C108.461 171.232 107.766 171.059 107.129 170.765C106.958 170.686 106.794 170.594 106.639 170.49C106.534 170.418 106.482 170.377 106.489 170.367C107.327 170.764 108.247 170.996 109.189 171.048C110.204 171.079 111.212 170.887 112.131 170.49C113.246 169.987 114.202 169.229 114.907 168.29C116.162 166.539 116.782 164.471 116.68 162.378C116.646 160.761 116.413 159.77 116.478 159.761Z" fill="#263238"/>
<path d="M133.624 167.571C133.292 167.904 132.9 168.182 132.466 168.396C130.44 169.543 128.111 170.162 125.73 170.186C125.24 170.219 124.747 170.176 124.272 170.059C125.912 169.984 127.54 169.763 129.133 169.398C130.691 168.925 132.195 168.313 133.624 167.571Z" fill="#455A64"/>
<path d="M132.272 159.851C132.253 159.82 132.694 159.711 133.222 160.076C133.376 160.186 133.5 160.327 133.585 160.488C133.669 160.649 133.711 160.826 133.708 161.005C133.705 161.229 133.634 161.448 133.501 161.637C133.369 161.825 133.181 161.976 132.96 162.071C132.73 162.155 132.477 162.174 132.236 162.124C131.994 162.073 131.775 161.957 131.607 161.789C131.471 161.653 131.383 161.481 131.356 161.298C131.328 161.114 131.362 160.927 131.452 160.762C131.505 160.654 131.581 160.557 131.676 160.477C131.771 160.396 131.882 160.334 132.003 160.293C132.176 160.244 132.276 160.269 132.277 160.286C132.299 160.332 131.877 160.378 131.685 160.852C131.631 160.975 131.617 161.11 131.646 161.241C131.675 161.371 131.745 161.491 131.847 161.585C131.972 161.699 132.131 161.777 132.303 161.81C132.476 161.844 132.655 161.831 132.82 161.774C132.981 161.701 133.117 161.59 133.216 161.453C133.315 161.316 133.372 161.158 133.382 160.994C133.39 160.856 133.365 160.718 133.309 160.589C133.253 160.461 133.167 160.345 133.057 160.25C132.661 159.9 132.262 159.904 132.272 159.851Z" fill="#455A64"/>
<path d="M133.711 181.069C133.19 180.73 132.697 180.357 132.234 179.954C131.069 179.041 129.85 178.19 128.58 177.404C127.307 176.625 125.974 175.931 124.592 175.328C124.001 175.108 123.425 174.856 122.866 174.574C123.498 174.682 124.113 174.865 124.694 175.117C126.124 175.665 127.492 176.341 128.778 177.134C130.064 177.924 131.276 178.81 132.403 179.783C132.892 180.164 133.331 180.595 133.711 181.069Z" fill="#455A64"/>
<path d="M136.539 173.342C136.493 172.621 136.65 171.902 136.994 171.253C137.339 170.605 137.86 170.048 138.507 169.637C138.581 169.707 137.85 170.37 137.315 171.396C136.78 172.422 136.646 173.353 136.539 173.342Z" fill="#455A64"/>
<path d="M186.784 253.867C186.354 253.543 185.964 253.177 185.62 252.776C184.936 252.075 184.009 251.092 183.003 249.994C182.788 249.727 182.528 249.493 182.233 249.301C181.956 249.152 181.634 249.092 181.316 249.13C180.745 249.215 180.203 249.421 179.734 249.731C179.3 250.063 178.786 250.295 178.234 250.408C178.226 250.372 178.777 250.122 179.588 249.539C180.076 249.177 180.657 248.933 181.275 248.832C181.666 248.777 182.065 248.846 182.408 249.027C182.74 249.233 183.033 249.489 183.272 249.784C184.278 250.884 185.172 251.892 185.809 252.626C186.182 253.006 186.509 253.422 186.784 253.867Z" fill="#455A64"/>
<path d="M178.107 250.817C178.107 250.817 178.2 250.725 178.394 250.562L179.259 249.839L182.609 247.089L194.954 237.037L194.948 237.213L162.996 208.016L140.045 186.972L137.545 184.672L136.331 183.557C135.931 183.185 135.538 182.824 135.116 182.494C134.218 181.896 133.491 181.107 132.998 180.196C132.791 179.726 132.746 179.21 132.869 178.716C132.992 178.227 133.217 177.819 133.359 177.379C133.673 176.54 133.9 175.677 134.038 174.799C134.196 173.988 134.127 173.154 133.838 172.374C133.436 171.698 132.916 171.087 132.298 170.565C131.741 170.069 131.1 169.659 130.398 169.354L130.336 169.328V169.27C130.298 165.988 130.268 163.39 130.247 161.597C130.247 160.719 130.239 160.039 130.237 159.563C130.237 159.342 130.237 159.17 130.237 159.04C130.235 158.981 130.238 158.922 130.248 158.864C130.259 158.922 130.264 158.981 130.264 159.04C130.269 159.171 130.277 159.341 130.287 159.563C130.301 160.038 130.322 160.718 130.349 161.596C130.391 163.388 130.449 165.986 130.53 169.268L130.467 169.186C131.197 169.494 131.867 169.912 132.447 170.422C133.093 170.958 133.636 171.59 134.053 172.29C134.365 173.105 134.445 173.978 134.287 174.829C134.152 175.721 133.926 176.601 133.612 177.455C133.471 177.897 133.241 178.334 133.137 178.767C133.027 179.214 133.07 179.682 133.26 180.106C133.743 180.976 134.446 181.727 135.311 182.297C135.737 182.626 136.138 182.99 136.535 183.359L137.754 184.471L140.266 186.762L163.251 207.78L195.144 237.041L195.244 237.133L195.138 237.218L182.715 247.189L179.315 249.892L178.424 250.59C178.217 250.745 178.107 250.817 178.107 250.817Z" fill="#455A64"/>
<path d="M188.025 251.579C186.471 249.794 185.316 247.746 184.625 245.552C184.725 245.517 185.38 246.911 186.32 248.568C187.26 250.226 188.11 251.527 188.025 251.579Z" fill="#455A64"/>
<path d="M192.379 248.745C190.265 247.275 188.597 245.333 187.536 243.103C187.63 243.057 188.504 244.456 189.842 246.007C191.18 247.559 192.451 248.673 192.379 248.745Z" fill="#455A64"/>
<path d="M195.132 245.961C193.562 244.28 192.081 242.531 190.694 240.719C192.448 242.255 193.944 244.022 195.132 245.961Z" fill="#455A64"/>
<path d="M198 241.343C196.404 240.598 194.925 239.66 193.6 238.556C195.195 239.302 196.674 240.239 198 241.343Z" fill="#455A64"/>
<path d="M157.723 204.739C157.788 204.807 154.748 207.369 150.935 210.462C147.122 213.555 143.975 216.008 143.91 215.94C143.845 215.872 146.883 213.31 150.699 210.216C154.515 207.123 157.658 204.672 157.723 204.739Z" fill="#455A64"/>
<path d="M157.14 205.829C156.935 206.271 156.666 206.685 156.34 207.06C154.901 208.952 153.189 210.657 151.251 212.128C150.869 212.453 150.441 212.731 149.978 212.953C149.91 212.875 151.75 211.499 153.721 209.527C155.692 207.555 157.049 205.774 157.14 205.829Z" fill="#455A64"/>
<path d="M117.785 160.807C117.783 160.985 117.749 161.161 117.685 161.329C117.558 161.798 117.386 162.256 117.171 162.697C116.86 163.356 116.481 163.986 116.038 164.579C114.947 166.037 113.517 167.254 111.85 168.143C111.172 168.503 110.458 168.803 109.718 169.038C109.222 169.201 108.712 169.324 108.193 169.405C108.005 169.451 107.81 169.468 107.616 169.457C107.603 169.398 108.416 169.262 109.63 168.82C110.341 168.56 111.028 168.246 111.682 167.881C113.288 166.988 114.678 165.805 115.77 164.404C116.215 163.833 116.607 163.229 116.943 162.598C117.509 161.519 117.72 160.789 117.785 160.807Z" fill="#455A64"/>
<path d="M170.628 197.951C167.953 200.083 165.886 202.78 164.604 205.809C164.663 205.33 164.804 204.862 165.021 204.423C165.932 202.244 167.418 200.305 169.346 198.78C169.724 198.444 170.156 198.164 170.628 197.951Z" fill="#455A64"/>
<path d="M175.131 200.236C175.154 200.338 172.705 200.739 169.905 201.83C167.096 202.903 165.07 204.228 165.005 204.142C165.385 203.783 165.818 203.474 166.291 203.225C168.494 201.902 170.941 200.958 173.513 200.439C174.039 200.302 174.584 200.234 175.131 200.236Z" fill="#455A64"/>
</g>
<defs>
<clipPath id="clip0_1_158">
<rect width="305" height="280" fill="white" transform="translate(0.5)"/>
</clipPath>
</defs>
</svg>
