<svg width="18" height="12" viewBox="0 0 18 12" fill="none" xmlns="http://www.w3.org/2000/svg">
<path fill-rule="evenodd" clip-rule="evenodd" d="M8.79984 2.58753C11.2664 2.58764 13.6386 3.55505 15.4263 5.28982C15.5609 5.42375 15.776 5.42206 15.9086 5.28603L17.1954 3.96045C17.2625 3.89146 17.2999 3.798 17.2994 3.70076C17.2988 3.60353 17.2603 3.51052 17.1924 3.44234C12.5005 -1.14745 5.09845 -1.14745 0.40654 3.44234C0.338575 3.51047 0.300012 3.60345 0.299385 3.70069C0.298758 3.79792 0.33612 3.89141 0.403201 3.96045L1.69034 5.28603C1.82283 5.42226 2.03816 5.42396 2.17269 5.28982C3.96053 3.55494 6.33304 2.58752 8.79984 2.58753ZM8.83529 6.58938C10.1905 6.58929 11.4974 7.10346 12.5019 8.03199C12.6378 8.16376 12.8518 8.16091 12.9843 8.02555L14.2695 6.69997C14.3372 6.63044 14.3748 6.53611 14.3738 6.4381C14.3728 6.34008 14.3334 6.24656 14.2644 6.17844C11.2053 3.27385 6.4679 3.27385 3.40882 6.17844C3.33973 6.24656 3.3003 6.34013 3.29939 6.43817C3.29849 6.53622 3.33617 6.63054 3.404 6.69997L4.68891 8.02555C4.82136 8.16091 5.0354 8.16376 5.17127 8.03199C6.17516 7.10408 7.48097 6.58995 8.83529 6.58938ZM11.4489 9.17672C11.4509 9.27501 11.413 9.36977 11.3443 9.43863L9.12103 11.7289C9.05585 11.7962 8.967 11.834 8.87429 11.834C8.78157 11.834 8.69272 11.7962 8.62754 11.7289L6.4039 9.43863C6.33521 9.36972 6.29742 9.27492 6.29946 9.17663C6.30149 9.07834 6.34317 8.98527 6.41466 8.91938C7.83453 7.69354 9.91405 7.69354 11.3339 8.91938C11.4053 8.98532 11.447 9.07843 11.4489 9.17672Z" fill="black"/>
</svg>
