<svg width="18" height="12" viewBox="0 0 18 12" fill="none" xmlns="http://www.w3.org/2000/svg">
<path fill-rule="evenodd" clip-rule="evenodd" d="M9.2999 2.58753C11.7665 2.58764 14.1387 3.55505 15.9263 5.28982C16.0609 5.42375 16.2761 5.42206 16.4087 5.28603L17.6954 3.96045C17.7626 3.89146 17.8 3.798 17.7994 3.70076C17.7989 3.60353 17.7604 3.51052 17.6925 3.44234C13.0006 -1.14745 5.59852 -1.14745 0.906601 3.44234C0.838636 3.51047 0.800073 3.60345 0.799446 3.70069C0.79882 3.79792 0.836181 3.89141 0.903262 3.96045L2.1904 5.28603C2.32289 5.42226 2.53822 5.42396 2.67275 5.28982C4.46059 3.55494 6.83311 2.58752 9.2999 2.58753ZM9.33535 6.58938C10.6906 6.58929 11.9974 7.10346 13.002 8.03199C13.1378 8.16376 13.3519 8.16091 13.4843 8.02555L14.7696 6.69997C14.8373 6.63044 14.8748 6.53611 14.8739 6.4381C14.8729 6.34008 14.8335 6.24656 14.7644 6.17844C11.7053 3.27385 6.96796 3.27385 3.90889 6.17844C3.83979 6.24656 3.80036 6.34013 3.79945 6.43817C3.79855 6.53622 3.83623 6.63054 3.90406 6.69997L5.18897 8.02555C5.32142 8.16091 5.53546 8.16376 5.67133 8.03199C6.67522 7.10408 7.98103 6.58995 9.33535 6.58938ZM11.949 9.17672C11.951 9.27501 11.9131 9.36977 11.8444 9.43863L9.62109 11.7289C9.55592 11.7962 9.46706 11.834 9.37435 11.834C9.28163 11.834 9.19278 11.7962 9.12761 11.7289L6.90396 9.43863C6.83527 9.36972 6.79748 9.27492 6.79952 9.17663C6.80155 9.07834 6.84324 8.98527 6.91472 8.91938C8.33459 7.69354 10.4141 7.69354 11.834 8.91938C11.9054 8.98532 11.947 9.07843 11.949 9.17672Z" fill="black"/>
</svg>
