<svg width="18" height="12" viewBox="0 0 18 12" fill="none" xmlns="http://www.w3.org/2000/svg">
<path fill-rule="evenodd" clip-rule="evenodd" d="M9.29987 2.67176C11.7664 2.67187 14.1387 3.63928 15.9263 5.37405C16.0609 5.50798 16.2761 5.50629 16.4086 5.37026L17.6954 4.04468C17.7625 3.97569 17.8 3.88223 17.7994 3.78499C17.7988 3.68776 17.7603 3.59475 17.6924 3.52657C13.0005 -1.06322 5.59848 -1.06322 0.906567 3.52657C0.838601 3.5947 0.800039 3.68768 0.799412 3.78491C0.798785 3.88215 0.836146 3.97564 0.903228 4.04468L2.19037 5.37026C2.32286 5.50649 2.53819 5.50818 2.67272 5.37405C4.46056 3.63917 6.83307 2.67175 9.29987 2.67176ZM9.33532 6.6736C10.6905 6.67352 11.9974 7.18769 13.0019 8.11621C13.1378 8.24799 13.3518 8.24514 13.4843 8.10978L14.7696 6.78419C14.8373 6.71466 14.8748 6.62034 14.8738 6.52233C14.8729 6.42431 14.8334 6.33078 14.7644 6.26267C11.7053 3.35808 6.96793 3.35808 3.90885 6.26267C3.83975 6.33078 3.80033 6.42436 3.79942 6.5224C3.79851 6.62045 3.8362 6.71476 3.90403 6.78419L5.18894 8.10978C5.32139 8.24514 5.53542 8.24799 5.67129 8.11621C6.67519 7.18831 7.981 6.67418 9.33532 6.6736ZM11.949 9.26094C11.9509 9.35923 11.9131 9.454 11.8443 9.52286L9.62105 11.8131C9.55588 11.8804 9.46703 11.9183 9.37431 11.9183C9.2816 11.9183 9.19274 11.8804 9.12757 11.8131L6.90393 9.52286C6.83523 9.45395 6.79745 9.35915 6.79948 9.26086C6.80152 9.16257 6.8432 9.0695 6.91469 9.00361C8.33455 7.77777 10.4141 7.77777 11.8339 9.00361C11.9054 9.06955 11.947 9.16265 11.949 9.26094Z" fill="black"/>
</svg>
